<svg xmlns="http://www.w3.org/2000/svg" viewBox="0 0 770.86 417.56"><defs><style>.cls-1{fill:#e6b63b;}.cls-2{fill:#da9034;}</style></defs><title>Asset 36b</title><g id="Layer_2" data-name="Layer 2"><g id="layout"><circle class="cls-1" cx="410.9" cy="362.56" r="55"/><circle class="cls-2" cx="410.9" cy="362.56" r="43.29"/><path class="cls-1" d="M420.28,390.78a29.54,29.54,0,0,1-19.81-.37l3.78-10.25,2.54-6.88,2.61-7.59s.88-2.49.9-2.5l.12-.28a.31.31,0,0,0,.07-.12l.1-.09.09,0h.06l.06.05.11.21.24.73.5,1.45,1.79,5.45,1.56,4.82,2.42,7.36,1.88,5.2Z"/><path class="cls-1" d="M440.51,362.75A29.7,29.7,0,0,1,431.37,384l0,0-3.64-5.49-2.4-4.09-2.41-4.75-2-4.17-1.59-3.8L418,358l-1.24-3.67-1.33-4.17-1.29-4.38-1.16-4.35-1.3-4.82-.73-2.43-1.42,4.6-2,6.42L406,350.06l-1.85,5.44L402.59,360l-1.77,4.29-1.89,4.08-2.19,4.35-6.56,11.15h0a.52.52,0,0,0-.16-.14,29.69,29.69,0,1,1,50.5-20.92Z"/><polygon class="cls-1" points="390.17 383.81 396.74 372.67 390.18 383.82 390.17 383.82 390.17 383.81"/><polygon class="cls-1" points="431.37 384.03 431.37 384.05 431.36 384.05 427.71 378.56 431.37 384.03"/><circle class="cls-1" cx="517.37" cy="238.61" r="28.61"/><circle class="cls-2" cx="517.37" cy="238.61" r="22.52"/><path class="cls-1" d="M522.25,253.29a15.46,15.46,0,0,1-5,.79,15.24,15.24,0,0,1-5.33-1l2-5.33,1.32-3.58,1.36-4s.46-1.29.47-1.3l.06-.14,0-.06.05,0,0,0h0l0,0,0,.11.13.38.26.75.93,2.84.81,2.51,1.26,3.82,1,2.71Z"/><path class="cls-1" d="M532.78,238.7A15.51,15.51,0,0,1,528,249.78h0l-1.89-2.85-1.25-2.13-1.26-2.47-1-2.17-.83-2-.7-2-.64-1.92-.69-2.17-.68-2.27-.6-2.27-.67-2.5-.39-1.27-.73,2.39-1,3.34-.81,2.54-1,2.83-.8,2.32-.92,2.23-1,2.12L510,243.86l-3.42,5.81h0l-.08-.07a15.44,15.44,0,1,1,26.27-10.89Z"/><polygon class="cls-1" points="506.59 249.66 510.01 243.86 506.59 249.66 506.59 249.66 506.59 249.66"/><polygon class="cls-1" points="528.02 249.78 528.02 249.78 528.01 249.78 526.12 246.93 528.02 249.78"/><circle class="cls-1" cx="475.29" cy="167.29" r="25.19"/><circle class="cls-2" cx="475.29" cy="167.29" r="19.83"/><path class="cls-1" d="M479.58,180.21a13.53,13.53,0,0,1-4.38.7,13.29,13.29,0,0,1-4.69-.87l1.73-4.69,1.16-3.16,1.2-3.47s.4-1.14.41-1.14l.06-.13,0-.06,0,0h.07l0,0,.05.1.11.33.23.67.82,2.49.71,2.21,1.11,3.37.86,2.38Z"/><path class="cls-1" d="M488.85,167.37a13.62,13.62,0,0,1-4.19,9.75h0L483,174.61l-1.1-1.87-1.11-2.17-.92-1.91-.73-1.74-.61-1.73-.57-1.68-.6-1.91-.6-2-.53-2-.59-2.21-.34-1.11-.65,2.11-.89,2.94-.72,2.23-.84,2.49-.71,2-.81,2-.87,1.86-1,2-3,5.1h0l-.07-.07a13.59,13.59,0,1,1,23.13-9.58Z"/><polygon class="cls-1" points="465.79 177.02 468.81 171.91 465.8 177.02 465.79 177.02 465.79 177.02"/><polygon class="cls-1" points="484.66 177.12 484.66 177.13 484.66 177.13 482.99 174.61 484.66 177.12"/><circle class="cls-1" cx="549.33" cy="174.61" r="30.25"/><circle class="cls-2" cx="549.33" cy="174.61" r="23.81"/><path class="cls-1" d="M554.48,190.13a15.8,15.8,0,0,1-5.26.84,16.17,16.17,0,0,1-5.63-1l2.08-5.64,1.39-3.79,1.44-4.17L549,175l.07-.15a.16.16,0,0,0,0-.07l0-.05.05,0h0l0,0,.06.11.13.41.28.79,1,3,.86,2.65,1.33,4.05,1,2.86Z"/><path class="cls-1" d="M565.61,174.71a16.33,16.33,0,0,1-5,11.71h0l-2-3-1.32-2.25-1.32-2.61-1.11-2.29-.87-2.09-.74-2.08-.68-2-.73-2.29-.72-2.41-.63-2.39-.72-2.65-.4-1.34-.78,2.53-1.07,3.53-.86,2.69-1,3-.84,2.45-1,2.36-1,2.24-1.2,2.39-3.61,6.13h0a.6.6,0,0,0-.08-.08,16.33,16.33,0,1,1,27.77-11.51Z"/><polygon class="cls-1" points="537.92 186.29 541.54 180.17 537.93 186.3 537.92 186.3 537.92 186.29"/><polygon class="cls-1" points="560.59 186.42 560.59 186.43 560.58 186.43 558.57 183.41 560.59 186.42"/><circle class="cls-1" cx="619.39" cy="155.85" r="23.32"/><circle class="cls-2" cx="619.39" cy="155.85" r="18.36"/><path class="cls-1" d="M623.37,167.81a12.38,12.38,0,0,1-4.06.65,12.52,12.52,0,0,1-4.34-.8l1.61-4.35,1.07-2.92,1.11-3.21s.37-1.06.38-1.06l.05-.12a.09.09,0,0,0,0-.05l0,0h.09l0,.1.1.31.22.61.75,2.31.66,2,1,3.11.8,2.21Z"/><path class="cls-1" d="M632,155.93a12.63,12.63,0,0,1-3.87,9h0l-1.55-2.33-1-1.73-1-2-.85-1.76-.67-1.61-.57-1.6-.53-1.56-.56-1.77-.55-1.85-.49-1.85-.55-2-.31-1-.6,1.95-.83,2.72-.66,2.07-.78,2.3-.66,1.89-.75,1.82-.8,1.73-.93,1.84-2.78,4.73h0a.17.17,0,0,0-.06-.06A12.59,12.59,0,1,1,632,155.93Z"/><polygon class="cls-1" points="610.61 164.86 613.39 160.13 610.61 164.86 610.61 164.86 610.61 164.86"/><polygon class="cls-1" points="628.08 164.95 628.08 164.96 628.07 164.96 626.52 162.63 628.08 164.95"/><circle class="cls-1" cx="534.53" cy="74.88" r="19.43"/><circle class="cls-2" cx="534.53" cy="74.88" r="15.29"/><path class="cls-1" d="M537.85,84.85a10.45,10.45,0,0,1-7-.13l1.34-3.62.89-2.43L534,76s.32-.88.32-.89l0-.09a.09.09,0,0,0,0-.05l0,0h.06l0,0,0,.07.08.26.18.51.63,1.93.55,1.7.86,2.6.66,1.84Z"/><path class="cls-1" d="M545,75a10.47,10.47,0,0,1-3.23,7.52h0l-1.29-1.94-.85-1.44-.85-1.68-.71-1.47-.56-1.34L537,73.26,536.59,72l-.47-1.48L535.66,69l-.41-1.54-.45-1.7-.26-.86-.5,1.62-.69,2.27-.55,1.73-.66,1.92L531.6,74,531,75.47l-.66,1.44-.78,1.54-2.31,3.94h0a.12.12,0,0,0-.05,0A10.48,10.48,0,1,1,545,75Z"/><polygon class="cls-1" points="527.21 82.39 529.53 78.45 527.22 82.39 527.21 82.39 527.21 82.39"/><polygon class="cls-1" points="541.76 82.47 541.76 82.47 541.76 82.47 540.47 80.53 541.76 82.47"/><circle class="cls-1" cx="478.28" cy="97.74" r="17.37"/><circle class="cls-2" cx="478.28" cy="97.74" r="13.67"/><path class="cls-1" d="M481.24,106.65a9.15,9.15,0,0,1-3,.48,8.87,8.87,0,0,1-3.23-.6l1.19-3.23.8-2.18.83-2.39.28-.79,0-.09s0,0,0,0l0,0h.05l0,0,0,.06.08.24.16.45.56,1.72.5,1.53.76,2.32.59,1.64Z"/><path class="cls-1" d="M487.63,97.8a9.41,9.41,0,0,1-2.88,6.72h0l-1.15-1.73-.76-1.29-.76-1.5-.63-1.32-.51-1.2-.42-1.19-.39-1.16-.42-1.31-.41-1.39-.37-1.37-.4-1.52-.24-.77-.44,1.45-.62,2-.49,1.54-.59,1.72-.48,1.4-.56,1.36-.6,1.29-.69,1.37-2.07,3.52h0l0,0a9.37,9.37,0,1,1,15.94-6.6Z"/><polygon class="cls-1" points="471.73 104.45 473.81 100.93 471.74 104.45 471.73 104.45 471.73 104.45"/><polygon class="cls-1" points="484.75 104.52 484.75 104.53 484.74 104.53 483.59 102.79 484.75 104.52"/><circle class="cls-1" cx="497.15" cy="345.25" r="16.57"/><circle class="cls-2" cx="497.15" cy="345.25" r="13.04"/><path class="cls-1" d="M500,353.74a8.9,8.9,0,0,1-6-.11l1.14-3.08.76-2.08.79-2.28s.26-.75.27-.76l0-.08,0,0,0,0h.06l0,.07.08.22.15.43.54,1.64.46,1.46.74,2.21.56,1.57Z"/><path class="cls-1" d="M506.07,345.3a9,9,0,0,1-2.75,6.41h0l-1.1-1.66-.72-1.23-.72-1.43-.61-1.25-.48-1.15-.4-1.13-.38-1.11-.4-1.26-.39-1.32-.35-1.31-.39-1.45-.22-.73-.42,1.39-.59,1.93-.47,1.47-.56,1.64-.46,1.34-.54,1.29-.57,1.23-.65,1.31-2,3.36h0l-.05,0a8.94,8.94,0,1,1,15.21-6.3Z"/><polygon class="cls-1" points="490.91 351.64 492.89 348.29 490.91 351.65 490.91 351.65 490.91 351.64"/><polygon class="cls-1" points="503.32 351.71 503.32 351.72 503.31 351.72 502.21 350.06 503.32 351.71"/><circle class="cls-1" cx="728.72" cy="302.66" r="13.6"/><circle class="cls-2" cx="728.72" cy="302.66" r="10.71"/><path class="cls-1" d="M731,309.64a7.18,7.18,0,0,1-2.37.38,7.1,7.1,0,0,1-2.53-.47l.93-2.53.63-1.71.64-1.87.23-.62,0-.07,0,0,0,0h.05l0,.05.06.19.12.35.44,1.35.39,1.19.6,1.82.46,1.29Z"/><path class="cls-1" d="M736,302.71a7.36,7.36,0,0,1-2.26,5.26h0l-.91-1.36-.59-1-.6-1.18-.49-1-.4-.94-.33-.93-.3-.91-.33-1-.32-1.08-.29-1.08-.32-1.19-.18-.6-.35,1.14-.49,1.59-.38,1.2-.46,1.35-.38,1.1-.44,1.06-.46,1-.54,1.07-1.63,2.76h0l0,0A7.34,7.34,0,1,1,736,302.71Z"/><polygon class="cls-1" points="723.59 307.92 725.22 305.16 723.59 307.92 723.59 307.92 723.59 307.92"/><polygon class="cls-1" points="733.78 307.97 733.78 307.98 733.77 307.98 732.87 306.62 733.78 307.97"/><circle class="cls-1" cx="641.58" cy="306.35" r="16.53"/><circle class="cls-2" cx="641.58" cy="306.35" r="13.01"/><path class="cls-1" d="M644.4,314.83a8.65,8.65,0,0,1-2.88.46,8.55,8.55,0,0,1-3.08-.57l1.14-3.08.76-2.07.78-2.28s.27-.74.28-.75l0-.08,0,0,0,0h.07l0,.06.07.22.15.44.54,1.64.47,1.45.73,2.21.56,1.56Z"/><path class="cls-1" d="M650.48,306.41a9,9,0,0,1-2.75,6.4h0l-1.09-1.65-.72-1.23-.73-1.43-.6-1.25-.48-1.14-.4-1.13-.37-1.11-.4-1.25-.39-1.32-.35-1.3-.39-1.45-.22-.73-.43,1.38-.58,1.93-.47,1.47-.56,1.63-.46,1.34-.53,1.29-.57,1.22-.66,1.31-2,3.35h0l-.05,0a8.92,8.92,0,1,1,15.18-6.29Z"/><polygon class="cls-1" points="635.35 312.74 637.32 309.39 635.35 312.74 635.35 312.74 635.35 312.74"/><polygon class="cls-1" points="647.73 312.81 647.73 312.81 647.73 312.81 646.63 311.16 647.73 312.81"/><circle class="cls-1" cx="682.56" cy="273.24" r="13.8"/><circle class="cls-2" cx="682.56" cy="273.24" r="10.87"/><path class="cls-1" d="M684.91,280.32a7.36,7.36,0,0,1-2.4.38,7.28,7.28,0,0,1-2.57-.47l.95-2.58.63-1.72.66-1.91.22-.63,0-.07s0,0,0,0l0,0h0l0,.06.06.18.13.37.44,1.36.39,1.21.61,1.85.47,1.31Z"/><path class="cls-1" d="M690,273.28a7.46,7.46,0,0,1-2.3,5.35h0l-.92-1.38-.6-1-.6-1.19-.51-1-.4-1-.33-.94-.31-.93-.34-1-.32-1.1-.29-1.09-.33-1.21-.18-.61-.36,1.15-.49,1.61-.39,1.23-.46,1.36-.39,1.12-.44,1.08-.48,1-.55,1.09-1.64,2.8h0a.08.08,0,0,0,0,0A7.45,7.45,0,1,1,690,273.28Z"/><polygon class="cls-1" points="677.35 278.57 679 275.77 677.36 278.57 677.35 278.57 677.35 278.57"/><polygon class="cls-1" points="687.69 278.63 687.69 278.63 687.69 278.63 686.77 277.25 687.69 278.63"/><circle class="cls-1" cx="731.6" cy="240.93" r="11.08"/><circle class="cls-2" cx="731.6" cy="240.93" r="8.72"/><path class="cls-1" d="M733.49,246.61a6.08,6.08,0,0,1-1.92.31,6.18,6.18,0,0,1-2.07-.38l.76-2.07.52-1.39.52-1.52.18-.51,0-.05v0l0,0h0l0,0,0,.15.11.29.36,1.1.31,1,.49,1.48.38,1Z"/><path class="cls-1" d="M737.57,241a6,6,0,0,1-1.84,4.29h0l-.73-1.11-.48-.83-.49-.95-.4-.84-.32-.77L733,240l-.25-.74-.27-.84-.26-.88-.24-.87-.26-1-.14-.49-.29.92-.39,1.3-.32,1-.37,1.09-.31.9-.36.87-.38.82-.44.87-1.32,2.25h0s0,0,0,0A6,6,0,1,1,737.57,241Z"/><polygon class="cls-1" points="727.43 245.21 728.75 242.96 727.43 245.21 727.43 245.21 727.43 245.21"/><polygon class="cls-1" points="735.73 245.25 735.73 245.25 735.72 245.25 734.99 244.15 735.73 245.25"/><circle class="cls-1" cx="757.2" cy="183.1" r="13.66"/><circle class="cls-2" cx="757.2" cy="183.1" r="10.75"/><path class="cls-1" d="M759.53,190.11a7.35,7.35,0,0,1-4.92-.09l.94-2.55.63-1.71.65-1.88.22-.63,0-.06,0,0,0,0h0l0,.05.07.18.12.36.44,1.36.39,1.19.6,1.83.47,1.29Z"/><path class="cls-1" d="M764.56,183.14a7.38,7.38,0,0,1-2.27,5.29h0l-.9-1.37-.6-1-.6-1.18-.5-1-.39-.94L759,182l-.31-.91-.33-1-.32-1.08-.29-1.08-.32-1.2-.19-.6-.35,1.14-.48,1.59L756,180l-.46,1.35-.38,1.11-.44,1.07-.47,1-.54,1.08-1.63,2.77h0l0,0a7.37,7.37,0,1,1,12.54-5.2Z"/><polygon class="cls-1" points="752.05 188.38 753.69 185.61 752.06 188.38 752.05 188.38 752.05 188.38"/><polygon class="cls-1" points="762.29 188.43 762.29 188.44 762.28 188.44 761.38 187.07 762.29 188.43"/><circle class="cls-1" cx="682.49" cy="199.45" r="15.61"/><circle class="cls-2" cx="682.49" cy="199.45" r="12.29"/><path class="cls-1" d="M685.15,207.46a8.36,8.36,0,0,1-2.71.43,8.54,8.54,0,0,1-2.91-.54l1.08-2.91.72-1.95.74-2.15.25-.71,0-.08s0,0,0,0l0,0h.06l0,.06.07.21.15.41.5,1.55.45,1.37.68,2.08.54,1.48Z"/><path class="cls-1" d="M690.9,199.5a8.42,8.42,0,0,1-2.6,6h0l-1-1.56-.68-1.16-.68-1.35-.57-1.18-.45-1.08-.38-1.07-.36-1.05-.37-1.18-.37-1.24-.33-1.23-.37-1.37-.21-.69-.4,1.3-.55,1.83-.44,1.38-.53,1.54-.44,1.27-.5,1.21-.53,1.16-.62,1.23-1.87,3.17h0l0,0a8.42,8.42,0,1,1,14.33-5.94Z"/><polygon class="cls-1" points="676.61 205.48 678.48 202.31 676.61 205.48 676.61 205.48 676.61 205.48"/><polygon class="cls-1" points="688.3 205.54 688.3 205.54 688.3 205.54 687.26 203.99 688.3 205.54"/><circle class="cls-1" cx="625.72" cy="254.9" r="13.77"/><circle class="cls-2" cx="625.72" cy="254.9" r="10.84"/><path class="cls-1" d="M628.07,262a7.47,7.47,0,0,1-5-.09l.95-2.57.63-1.72.66-1.9.22-.63,0-.07s0,0,0,0l0,0h.06l0,.06.07.18.12.36.45,1.37.39,1.2.61,1.84.47,1.31Z"/><path class="cls-1" d="M633.13,255a7.44,7.44,0,0,1-2.28,5.33h0l-.91-1.37-.6-1-.6-1.18-.51-1-.39-1-.34-.94-.31-.92-.33-1-.33-1.1-.29-1.09-.32-1.21-.19-.6-.35,1.15-.49,1.6-.39,1.23-.46,1.36-.39,1.11-.44,1.08-.47,1-.55,1.08-1.64,2.8h0l0,0A7.43,7.43,0,1,1,633.13,255Z"/><polygon class="cls-1" points="620.53 260.22 622.18 257.43 620.54 260.23 620.53 260.23 620.53 260.22"/><polygon class="cls-1" points="630.85 260.28 630.85 260.28 630.84 260.28 629.93 258.91 630.85 260.28"/><circle class="cls-1" cx="678.29" cy="151.34" r="13.77"/><circle class="cls-2" cx="678.29" cy="151.34" r="10.84"/><path class="cls-1" d="M680.63,158.4a7.47,7.47,0,0,1-5-.09l1-2.57.64-1.72.65-1.9.22-.63,0-.07a.1.1,0,0,0,0,0l0,0h0l0,.06.06.18.12.36.45,1.37.39,1.2.61,1.85.47,1.3Z"/><path class="cls-1" d="M685.7,151.38a7.45,7.45,0,0,1-2.29,5.33h0l-.92-1.37-.6-1-.6-1.19-.5-1-.4-1-.34-.94-.31-.92-.33-1-.32-1.1L678.8,146l-.33-1.21-.18-.6-.36,1.15-.49,1.6-.39,1.23-.46,1.36-.38,1.11-.45,1.08-.47,1-.55,1.08-1.64,2.8h0l0,0a7.43,7.43,0,1,1,12.64-5.24Z"/><polygon class="cls-1" points="673.1 156.65 674.74 153.87 673.1 156.66 673.1 156.66 673.1 156.65"/><polygon class="cls-1" points="683.41 156.71 683.41 156.71 683.41 156.71 682.49 155.34 683.41 156.71"/><circle class="cls-1" cx="677" cy="100.11" r="9.84"/><circle class="cls-2" cx="677" cy="100.11" r="7.75"/><path class="cls-1" d="M678.67,105.16a5.3,5.3,0,0,1-3.54-.07l.68-1.83.45-1.23.47-1.36.16-.45,0,0v0H677l0,0,0,.13.09.26.32,1,.28.86.43,1.32.34.93Z"/><path class="cls-1" d="M682.3,100.14a5.36,5.36,0,0,1-1.64,3.81h0l-.66-1-.42-.73-.44-.85-.36-.74-.28-.68-.24-.68-.22-.66-.24-.74-.23-.79-.21-.77-.23-.87L677,95l-.26.82L676.39,97l-.27.87-.33,1-.28.79-.32.77-.34.73-.39.78-1.17,2h0l0,0a5.31,5.31,0,1,1,9-3.75Z"/><polygon class="cls-1" points="673.29 103.91 674.46 101.92 673.29 103.92 673.29 103.92 673.29 103.91"/><polygon class="cls-1" points="680.66 103.95 680.66 103.96 680.66 103.96 680 102.97 680.66 103.95"/><circle class="cls-1" cx="637.56" cy="59.45" r="8.79"/><circle class="cls-2" cx="637.56" cy="59.45" r="6.92"/><path class="cls-1" d="M639.06,64a4.54,4.54,0,0,1-1.53.24,4.67,4.67,0,0,1-1.63-.3l.6-1.64.41-1.1.41-1.21.15-.4,0,0a0,0,0,0,0,0,0h0l0,0,0,.12.08.23.28.87.25.78.39,1.17.3.83Z"/><path class="cls-1" d="M642.3,59.47a4.78,4.78,0,0,1-1.46,3.41h0l-.59-.88-.38-.65-.39-.76-.32-.67-.25-.6-.22-.61-.19-.58-.22-.67-.2-.7-.19-.7-.21-.77-.11-.39-.23.74-.31,1-.25.78-.3.87-.24.71-.29.68-.3.66-.35.69-1,1.78h0l0,0a4.75,4.75,0,1,1,8.07-3.35Z"/><polygon class="cls-1" points="634.25 62.84 635.3 61.06 634.25 62.84 634.25 62.84 634.25 62.84"/><polygon class="cls-1" points="640.84 62.88 640.84 62.88 640.84 62.88 640.25 62 640.84 62.88"/><circle class="cls-1" cx="565.14" cy="34.59" r="8.79"/><circle class="cls-2" cx="565.14" cy="34.59" r="6.92"/><path class="cls-1" d="M566.64,39.1a4.54,4.54,0,0,1-1.53.24,4.67,4.67,0,0,1-1.63-.3l.6-1.64.41-1.1.41-1.21.15-.4,0,0a0,0,0,0,0,0,0h0l0,0,0,.12.09.23.28.87.25.78.39,1.17.3.83Z"/><path class="cls-1" d="M569.88,34.62a4.76,4.76,0,0,1-1.46,3.4h0l-.59-.88-.38-.65-.39-.76-.32-.67-.25-.6-.22-.61-.19-.58-.22-.67-.2-.7-.19-.7-.21-.77-.11-.38-.23.73-.31,1-.25.78-.3.87-.24.71-.29.68-.3.66-.35.69-1,1.79h0l0,0a4.75,4.75,0,1,1,8.07-3.34Z"/><polygon class="cls-1" points="561.83 37.98 562.88 36.2 561.83 37.98 561.83 37.98 561.83 37.98"/><polygon class="cls-1" points="568.42 38.02 568.42 38.02 568.41 38.02 567.83 37.14 568.42 38.02"/><circle class="cls-1" cx="491.34" cy="8.79" r="8.79"/><circle class="cls-2" cx="491.34" cy="8.79" r="6.92"/><path class="cls-1" d="M492.84,13.31a4.81,4.81,0,0,1-1.53.24,4.67,4.67,0,0,1-1.63-.3l.6-1.64.41-1.1.41-1.22.15-.4,0,0v0h.05v0l0,.12.08.23.29.87.25.77.39,1.18.3.83Z"/><path class="cls-1" d="M496.08,8.82a4.78,4.78,0,0,1-1.46,3.41h0l-.58-.88-.38-.65-.39-.76-.32-.67-.25-.61-.22-.6-.2-.59-.21-.66-.21-.7-.18-.7-.21-.77-.12-.39-.22.74-.31,1-.25.79-.3.86-.24.72-.29.68-.3.65-.35.7L488,12.19h0l0,0a4.8,4.8,0,0,1-1.39-3.41,4.74,4.74,0,1,1,9.47.06Z"/><polygon class="cls-1" points="488.03 12.19 489.08 10.41 488.03 12.19 488.03 12.19 488.03 12.19"/><polygon class="cls-1" points="494.62 12.23 494.62 12.23 494.62 12.23 494.03 11.35 494.62 12.23"/><circle class="cls-1" cx="516.52" cy="36.25" r="6.75"/><circle class="cls-2" cx="516.52" cy="36.25" r="5.31"/><path class="cls-1" d="M517.67,39.71a3.84,3.84,0,0,1-1.18.19,3.47,3.47,0,0,1-1.25-.24l.46-1.25.31-.85.32-.93.11-.31,0,0v0h0l0,0,0,.09.06.18.22.67.19.59.3.9.23.64Z"/><path class="cls-1" d="M520.15,36.27A3.67,3.67,0,0,1,519,38.88h0l-.45-.67-.29-.5-.3-.59-.25-.51-.19-.46-.17-.47-.15-.45-.16-.51-.16-.54-.14-.53-.16-.59-.09-.3-.18.56-.24.79-.19.6-.22.67-.19.55-.22.52-.23.5-.27.54L514,38.86h0a3.69,3.69,0,0,1-1.07-2.62,3.64,3.64,0,1,1,7.27.05Z"/><polygon class="cls-1" points="513.97 38.85 514.78 37.49 513.97 38.86 513.97 38.86 513.97 38.85"/><polygon class="cls-1" points="519.03 38.88 519.03 38.88 519.03 38.88 518.58 38.21 519.03 38.88"/><circle class="cls-1" cx="353.97" cy="15.73" r="9.37"/><circle class="cls-2" cx="353.97" cy="15.73" r="7.37"/><path class="cls-1" d="M355.57,20.53a4.89,4.89,0,0,1-1.63.26,5,5,0,0,1-1.74-.32l.64-1.75.43-1.17.45-1.29.15-.43,0,0s0,0,0,0v0h0l0,0,0,.12.08.25.31.93.26.82.42,1.25.32.89Z"/><path class="cls-1" d="M359,15.76a5.06,5.06,0,0,1-1.56,3.62h0l-.62-.93-.41-.7-.41-.81-.34-.7-.27-.65-.23-.64-.21-.63-.23-.71-.22-.74-.2-.75-.22-.82-.12-.41-.25.78-.33,1.1-.26.83-.32.92-.26.76-.3.73-.32.7-.38.74-1.11,1.9h0l0,0a5.06,5.06,0,1,1,8.6-3.56Z"/><polygon class="cls-1" points="350.44 19.34 351.56 17.45 350.45 19.35 350.44 19.35 350.44 19.34"/><polygon class="cls-1" points="357.46 19.38 357.46 19.39 357.46 19.39 356.84 18.45 357.46 19.38"/><circle class="cls-1" cx="717.11" cy="140.13" r="9.71"/><circle class="cls-2" cx="717.11" cy="140.13" r="7.64"/><path class="cls-1" d="M718.76,145.11a5.25,5.25,0,0,1-1.69.27,4.92,4.92,0,0,1-1.8-.34l.66-1.81.45-1.21.46-1.34.16-.44,0-.05,0,0v0h0l0,0,0,.13.09.26.32,1,.27.85.43,1.3.33.92Z"/><path class="cls-1" d="M722.33,140.16a5.23,5.23,0,0,1-1.61,3.76h0l-.65-1-.42-.72-.42-.84-.36-.73-.28-.67-.24-.67-.22-.65-.23-.73-.23-.78-.2-.76-.23-.86-.13-.42-.25.81-.35,1.13-.27.86-.33,1-.27.79-.31.76-.34.71-.38.77-1.16,2h0l0,0a5.24,5.24,0,1,1,8.91-3.69Z"/><polygon class="cls-1" points="713.45 143.88 714.61 141.91 713.45 143.88 713.45 143.88 713.45 143.88"/><polygon class="cls-1" points="720.72 143.92 720.72 143.92 720.72 143.92 720.07 142.95 720.72 143.92"/><circle class="cls-1" cx="751.18" cy="125.87" r="9.71"/><circle class="cls-2" cx="751.18" cy="125.87" r="7.64"/><path class="cls-1" d="M752.84,130.85a5.54,5.54,0,0,1-1.69.27,5.44,5.44,0,0,1-1.81-.34L750,129l.45-1.21.46-1.34.16-.44,0,0v0l0,0h0l0,0,0,.13.09.26.31,1,.28.85.43,1.3.33.92Z"/><path class="cls-1" d="M756.41,125.9a5.27,5.27,0,0,1-1.61,3.76h0l-.64-1-.42-.72-.43-.84-.35-.74-.28-.67-.24-.66-.22-.65-.23-.74-.23-.77-.21-.77-.23-.85-.12-.43-.25.81-.35,1.14-.27.86-.33,1-.27.79-.31.75-.34.72-.38.77-1.16,2h0l0,0a5.24,5.24,0,1,1,8.91-3.69Z"/><polygon class="cls-1" points="747.52 129.62 748.69 127.65 747.53 129.62 747.52 129.62 747.52 129.62"/><polygon class="cls-1" points="754.8 129.66 754.8 129.66 754.79 129.66 754.15 128.69 754.8 129.66"/><circle class="cls-1" cx="42.15" cy="116.62" r="13.6"/><circle class="cls-2" cx="42.15" cy="116.62" r="10.71"/><path class="cls-1" d="M39.83,109.64a7.12,7.12,0,0,1,2.36-.38,7.34,7.34,0,0,1,2.54.47l-.94,2.54-.63,1.7-.64,1.87-.22.62,0,.07s0,0,0,0l0,0h-.06l0,0-.06-.18L42,116l-.44-1.35-.39-1.19-.6-1.82-.46-1.29Z"/><path class="cls-1" d="M34.82,116.57a7.37,7.37,0,0,1,2.26-5.26h0l.9,1.36.59,1,.6,1.18.5,1,.39.94.33.93.31.91.33,1,.32,1.08.28,1.08L42,123l.19.6.35-1.13.48-1.59.38-1.21.46-1.34.38-1.11.44-1.06.47-1,.54-1.08,1.62-2.76h0l0,0a7.34,7.34,0,1,1-12.49,5.17Z"/><polygon class="cls-1" points="47.27 111.36 45.65 114.12 47.27 111.36 47.27 111.36 47.27 111.36"/><polygon class="cls-1" points="37.09 111.31 37.09 111.3 37.09 111.3 37.99 112.66 37.09 111.31"/><circle class="cls-1" cx="129.29" cy="112.93" r="16.53"/><circle class="cls-2" cx="129.29" cy="112.93" r="13.01"/><path class="cls-1" d="M126.47,104.45a8.87,8.87,0,0,1,5.95.11l-1.14,3.08-.76,2.07-.78,2.28-.27.75,0,.08s0,0,0,0l0,0h0l0,0,0-.06-.08-.22-.15-.44-.54-1.63-.46-1.45-.73-2.21-.57-1.57Z"/><path class="cls-1" d="M120.39,112.87a9,9,0,0,1,2.74-6.39h0l1.1,1.65.72,1.23.72,1.43.61,1.25.47,1.14.41,1.13.37,1.11.4,1.25.39,1.32.34,1.31.39,1.45.23.72.42-1.38.59-1.93.47-1.46.55-1.64.46-1.34.54-1.29.57-1.22.65-1.31,2-3.35h0l0,0a8.92,8.92,0,1,1-15.17,6.28Z"/><polygon class="cls-1" points="135.52 106.54 133.54 109.89 135.51 106.54 135.52 106.54 135.52 106.54"/><polygon class="cls-1" points="123.13 106.47 123.13 106.47 123.14 106.47 124.23 108.12 123.13 106.47"/><circle class="cls-1" cx="88.31" cy="146.05" r="13.8"/><circle class="cls-2" cx="88.31" cy="146.05" r="10.87"/><path class="cls-1" d="M86,139a7.42,7.42,0,0,1,5,.1l-1,2.57-.64,1.73-.65,1.9-.23.63,0,.07s0,0,0,0l0,0h-.06l0-.06-.06-.18-.13-.36L87.67,144l-.39-1.21L86.67,141l-.47-1.3Z"/><path class="cls-1" d="M80.88,146a7.45,7.45,0,0,1,2.29-5.34h0l.92,1.38.6,1,.61,1.19.5,1.05.4.95.34.94.31.93.33,1,.33,1.1.29,1.09.32,1.21.19.61.35-1.15.49-1.61.39-1.23.47-1.36.38-1.12.45-1.08.47-1,.55-1.09,1.65-2.8h0l0,0A7.45,7.45,0,1,1,80.88,146Z"/><polygon class="cls-1" points="93.51 140.72 91.86 143.51 93.51 140.71 93.51 140.71 93.51 140.72"/><polygon class="cls-1" points="83.17 140.66 83.17 140.65 83.17 140.65 84.09 142.03 83.17 140.66"/><circle class="cls-1" cx="39.26" cy="178.36" r="11.08"/><circle class="cls-2" cx="39.26" cy="178.36" r="8.72"/><path class="cls-1" d="M37.37,172.67a6.19,6.19,0,0,1,1.93-.31,5.89,5.89,0,0,1,2.06.39l-.76,2.06-.51,1.39-.53,1.53-.18.5,0,.05,0,0,0,0h0l0,0,0-.15-.1-.29-.36-1.1-.32-1L38,174.29l-.38-1Z"/><path class="cls-1" d="M33.3,178.32A6,6,0,0,1,35.14,174h0l.73,1.1.49.83.48.95.41.84.32.77.27.76.25.74.27.84.26.88.23.88.26,1,.15.49.28-.93.4-1.29.31-1,.37-1.09.31-.9.36-.86.38-.82.44-.88,1.32-2.25h0s0,0,0,0a6,6,0,0,1-4.24,10.25A6,6,0,0,1,33.3,178.32Z"/><polygon class="cls-1" points="43.44 174.08 42.11 176.32 43.43 174.07 43.44 174.07 43.44 174.08"/><polygon class="cls-1" points="35.14 174.03 35.14 174.03 35.14 174.03 35.87 175.13 35.14 174.03"/><circle class="cls-1" cx="13.66" cy="236.18" r="13.66"/><circle class="cls-2" cx="13.66" cy="236.18" r="10.75"/><path class="cls-1" d="M11.33,229.17a7.23,7.23,0,0,1,2.38-.37,7.16,7.16,0,0,1,2.54.47l-.94,2.54-.63,1.71L14,235.41l-.22.62,0,.07,0,0,0,0h-.05l0-.06-.06-.18-.13-.36L13,234.2l-.39-1.2-.6-1.83-.47-1.29Z"/><path class="cls-1" d="M6.31,236.14a7.35,7.35,0,0,1,2.27-5.29h0l.91,1.36.59,1,.6,1.18.5,1,.39.94.34.94.3.91.33,1,.33,1.09.28,1.08.33,1.19.18.61L14,242.1l.49-1.6.38-1.21.46-1.35.38-1.11.44-1.06.47-1,.55-1.08,1.63-2.77h0l0,0a7.37,7.37,0,1,1-12.54,5.2Z"/><polygon class="cls-1" points="18.81 230.91 17.18 233.67 18.81 230.9 18.81 230.9 18.81 230.91"/><polygon class="cls-1" points="8.58 230.85 8.58 230.85 8.58 230.85 9.49 232.21 8.58 230.85"/><circle class="cls-1" cx="88.37" cy="219.83" r="15.61"/><circle class="cls-2" cx="88.37" cy="219.83" r="12.29"/><path class="cls-1" d="M85.71,211.83a8.32,8.32,0,0,1,5.62.1l-1.07,2.91-.72,1.95L88.8,219s-.25.7-.26.71l0,.08s0,0,0,0l0,0H88.4l0-.06-.07-.21-.14-.41-.51-1.54-.44-1.37-.69-2.09L86,212.63Z"/><path class="cls-1" d="M80,219.78a8.49,8.49,0,0,1,2.59-6h0l1,1.56.68,1.16L85,217.8l.57,1.19.45,1.07.38,1.07.35,1.05.38,1.18.36,1.24.33,1.24.37,1.37.21.68.4-1.3.56-1.82.44-1.39.52-1.54.44-1.26.5-1.22.54-1.16.62-1.23,1.86-3.17h0l0,0A8.42,8.42,0,1,1,80,219.78Z"/><polygon class="cls-1" points="94.25 213.81 92.39 216.97 94.25 213.8 94.25 213.8 94.25 213.81"/><polygon class="cls-1" points="82.56 213.74 82.56 213.74 82.57 213.74 83.6 215.3 82.56 213.74"/><circle class="cls-1" cx="92.58" cy="267.95" r="13.77"/><circle class="cls-2" cx="92.58" cy="267.95" r="10.84"/><path class="cls-1" d="M90.23,260.88a7.39,7.39,0,0,1,5,.1l-1,2.56-.63,1.73L93,267.16l-.22.63,0,.07,0,0,0,0H92.6l0-.05-.06-.19-.13-.36L91.94,266l-.39-1.21L91,262.9l-.47-1.31Z"/><path class="cls-1" d="M85.17,267.9a7.45,7.45,0,0,1,2.28-5.33h0l.91,1.37.6,1,.6,1.19.51,1,.4.95.33.94.31.92.33,1.05.33,1.09.29,1.09.32,1.21.19.61.35-1.15.49-1.61.39-1.22.46-1.36.39-1.12.44-1.07.48-1,.54-1.09,1.64-2.79h0l0,0a7.43,7.43,0,1,1-12.64,5.24Z"/><polygon class="cls-1" points="97.77 262.63 96.12 265.42 97.76 262.63 97.77 262.63 97.77 262.63"/><polygon class="cls-1" points="87.45 262.57 87.45 262.57 87.46 262.57 88.37 263.94 87.45 262.57"/><circle class="cls-1" cx="93.87" cy="319.17" r="9.84"/><circle class="cls-2" cx="93.87" cy="319.17" r="7.75"/><path class="cls-1" d="M92.19,314.12a5.11,5.11,0,0,1,1.71-.27,5,5,0,0,1,1.83.34L95.06,316l-.46,1.23-.46,1.36-.16.45,0,.05v0l0,0h0l0,0-.05-.14-.09-.25-.32-1-.28-.86-.43-1.32-.34-.93Z"/><path class="cls-1" d="M88.57,319.14a5.35,5.35,0,0,1,1.63-3.81h0l.65,1,.43.73.43.85.36.75.28.68.24.67.23.66.23.74.24.79.2.78.24.86.13.43.25-.82.35-1.15.28-.87.33-1,.27-.8.32-.77.34-.73.39-.78,1.17-2h0l0,0a5.31,5.31,0,1,1-9,3.75Z"/><polygon class="cls-1" points="97.58 315.37 96.4 317.36 97.58 315.37 97.58 315.37 97.58 315.37"/><polygon class="cls-1" points="90.2 315.33 90.2 315.33 90.21 315.33 90.86 316.31 90.2 315.33"/><circle class="cls-1" cx="53.76" cy="279.15" r="9.71"/><circle class="cls-2" cx="53.76" cy="279.15" r="7.64"/><path class="cls-1" d="M52.1,274.17a5.54,5.54,0,0,1,1.69-.27,5.44,5.44,0,0,1,1.81.34l-.67,1.81-.45,1.21L54,278.6l-.16.44,0,0v0l0,0h0v0l0-.13-.09-.26-.31-1-.28-.85-.42-1.3-.34-.92Z"/><path class="cls-1" d="M48.53,279.12a5.27,5.27,0,0,1,1.61-3.76h0l.64,1,.42.72.43.84.35.74.28.67.24.66.22.65.23.74.23.77.21.77.23.85.13.43.25-.81.34-1.14.28-.86.32-1,.27-.79.32-.75.33-.72.38-.77,1.16-2h0l0,0a5.24,5.24,0,1,1-8.91,3.69Z"/><polygon class="cls-1" points="57.42 275.4 56.26 277.37 57.41 275.4 57.42 275.4 57.42 275.4"/><polygon class="cls-1" points="50.14 275.36 50.14 275.36 50.15 275.36 50.79 276.33 50.14 275.36"/><circle class="cls-1" cx="19.68" cy="293.42" r="9.71"/><circle class="cls-2" cx="19.68" cy="293.42" r="7.64"/><path class="cls-1" d="M18,288.44a5,5,0,0,1,1.69-.27,5.15,5.15,0,0,1,1.81.33l-.67,1.81-.44,1.22L20,292.86l-.16.45,0,0v0H19.7l0,0,0-.13-.09-.25-.32-1-.27-.85-.43-1.29-.33-.92Z"/><path class="cls-1" d="M14.45,293.38a5.22,5.22,0,0,1,1.62-3.75h0l.64,1,.43.73.42.83.36.74.28.67.23.66.22.65.24.74.23.77.2.77.23.85.13.43.25-.81.34-1.14.28-.86.32-1,.28-.78.31-.76.33-.72.39-.77,1.16-2h0l0,0a5.24,5.24,0,1,1-8.92,3.69Z"/><polygon class="cls-1" points="23.34 289.67 22.18 291.63 23.34 289.66 23.34 289.66 23.34 289.67"/><polygon class="cls-1" points="16.07 289.63 16.07 289.62 16.07 289.62 16.71 290.59 16.07 289.63"/><circle class="cls-1" cx="456.75" cy="26.05" r="12.25"/><circle class="cls-2" cx="456.75" cy="26.05" r="9.64"/><path class="cls-1" d="M458.84,32.34a6.63,6.63,0,0,1-4.42-.08l.85-2.29.56-1.53.58-1.69.2-.56,0-.06,0,0,0,0h0l0,0,.05.17.12.32.39,1.21.35,1.08.54,1.64.42,1.16Z"/><path class="cls-1" d="M463.34,26.09a6.64,6.64,0,0,1-2,4.75h0l-.81-1.23L460,28.7l-.54-1.05-.45-.93-.35-.85-.3-.84-.28-.82-.29-.92-.29-1-.26-1-.29-1.07-.16-.54-.32,1L456,22.18l-.35,1.09-.41,1.21-.34,1-.4,1-.42.9-.49,1-1.46,2.49h0l0,0a6.61,6.61,0,1,1,11.24-4.66Z"/><polygon class="cls-1" points="452.13 30.78 453.59 28.3 452.13 30.79 452.13 30.79 452.13 30.78"/><polygon class="cls-1" points="461.31 30.84 461.31 30.84 461.3 30.84 460.49 29.61 461.31 30.84"/><circle class="cls-1" cx="393.65" cy="35.48" r="15.06"/><circle class="cls-2" cx="393.65" cy="35.48" r="11.86"/><path class="cls-1" d="M396.22,43.21a8.41,8.41,0,0,1-2.62.42,8.2,8.2,0,0,1-2.81-.52l1-2.81.69-1.88.72-2.08s.24-.68.25-.69l0-.07s0,0,0,0l0,0h.06l0,.06.07.2.14.4.49,1.49.42,1.32.67,2,.51,1.42Z"/><path class="cls-1" d="M401.76,35.53a8.14,8.14,0,0,1-2.5,5.83h0l-1-1.51-.65-1.12-.66-1.3-.55-1.14-.44-1-.37-1-.34-1-.36-1.14-.35-1.2-.32-1.19-.36-1.32-.2-.67L393.26,29l-.53,1.76-.43,1.34-.5,1.49-.43,1.22-.48,1.17-.52,1.12-.6,1.19-1.79,3h0l0,0a8.13,8.13,0,1,1,13.83-5.73Z"/><polygon class="cls-1" points="387.97 41.3 389.77 38.25 387.98 41.3 387.97 41.3 387.97 41.3"/><polygon class="cls-1" points="399.26 41.36 399.26 41.37 399.25 41.37 398.25 39.86 399.26 41.36"/><circle class="cls-1" cx="334.42" cy="51.16" r="13.46"/><circle class="cls-2" cx="334.42" cy="51.16" r="10.59"/><path class="cls-1" d="M336.71,58.06a7.15,7.15,0,0,1-4.85-.09l.93-2.51.62-1.68.64-1.86.22-.61,0-.07,0,0,0,0h.05l0,0,.06.18.12.35.44,1.34.38,1.18.59,1.8.46,1.27Z"/><path class="cls-1" d="M341.66,51.2a7.24,7.24,0,0,1-2.24,5.21h0l-.89-1.35-.59-1-.59-1.16-.49-1-.39-.93-.33-.92-.3-.9-.33-1-.31-1.07L334.91,46l-.31-1.18-.18-.59-.35,1.12-.48,1.58-.38,1.19-.45,1.33-.38,1.09-.43,1-.46,1L331,53.63l-1.6,2.73h0a.08.08,0,0,0,0,0,7.26,7.26,0,1,1,12.36-5.12Z"/><polygon class="cls-1" points="329.34 56.36 330.95 53.63 329.35 56.36 329.34 56.36 329.34 56.36"/><polygon class="cls-1" points="339.43 56.41 339.43 56.42 339.42 56.42 338.53 55.07 339.43 56.41"/><circle class="cls-1" cx="269.06" cy="32.32" r="13.46"/><circle class="cls-2" cx="269.06" cy="32.32" r="10.59"/><path class="cls-1" d="M271.35,39.22a7.28,7.28,0,0,1-4.84-.09l.92-2.51.62-1.68.64-1.86.22-.61,0-.07,0,0,0,0h0l0,.06.06.18.12.35.44,1.33.38,1.18.59,1.8.46,1.28Z"/><path class="cls-1" d="M276.3,32.36a7.27,7.27,0,0,1-2.23,5.21h0l-.89-1.34-.59-1L272,34.07l-.49-1-.39-.93-.33-.92-.3-.9-.32-1-.32-1.07-.28-1.07L269.24,26l-.18-.59-.35,1.12-.48,1.57-.38,1.2-.45,1.33L267,31.68l-.43,1-.46,1-.54,1.07L264,37.52h0l0,0a7.26,7.26,0,1,1,12.35-5.12Z"/><polygon class="cls-1" points="263.99 37.52 265.59 34.79 263.99 37.52 263.99 37.52 263.99 37.52"/><polygon class="cls-1" points="274.07 37.57 274.07 37.58 274.06 37.58 273.17 36.23 274.07 37.57"/><circle class="cls-1" cx="427.45" cy="253.79" r="35.62"/><circle class="cls-2" cx="427.45" cy="253.79" r="28.04"/><path class="cls-1" d="M433.52,272.06a19.14,19.14,0,0,1-12.83-.24l2.46-6.64,1.64-4.45,1.69-4.92s.57-1.61.58-1.62l.08-.17a.28.28,0,0,0,.05-.08l.06-.06.06,0h0l0,0,.06.14.16.47.33.94,1.15,3.53,1,3.12,1.57,4.76,1.22,3.37Z"/><path class="cls-1" d="M446.63,253.91a19.28,19.28,0,0,1-5.92,13.78h0l-2.36-3.55-1.56-2.65-1.56-3.08-1.3-2.69-1-2.47-.87-2.44-.8-2.38-.86-2.7-.84-2.83-.75-2.82-.84-3.12-.48-1.57-.92,3-1.26,4.16-1,3.16-1.19,3.52-1,2.89-1.15,2.78-1.22,2.63-1.42,2.82L414,267.55h0l-.1-.09a19.23,19.23,0,1,1,32.71-13.55Z"/><polygon class="cls-1" points="414.02 267.55 418.28 260.33 414.03 267.56 414.02 267.56 414.02 267.55"/><polygon class="cls-1" points="440.71 267.69 440.71 267.7 440.7 267.7 438.33 264.14 440.71 267.69"/><circle class="cls-1" cx="323.03" cy="338.68" r="16.74"/><circle class="cls-2" cx="323.03" cy="338.68" r="13.18"/><path class="cls-1" d="M325.88,347.27a8.75,8.75,0,0,1-2.91.47,9,9,0,0,1-3.12-.58L321,344l.77-2.1.8-2.3.27-.77,0-.08a.07.07,0,0,0,0,0l0,0H323l0,.07.07.22.16.44.54,1.66.47,1.47.74,2.23.57,1.59Z"/><path class="cls-1" d="M332,338.74a9.06,9.06,0,0,1-2.78,6.48h0l-1.11-1.67-.73-1.24-.73-1.45-.61-1.27-.49-1.15-.41-1.15-.37-1.12-.41-1.27-.39-1.33-.35-1.32-.4-1.47L323,330l-.43,1.4-.6,1.95-.47,1.49-.56,1.65-.47,1.36L320,339.2l-.58,1.24-.66,1.32-2,3.39h0l-.05,0A9,9,0,1,1,332,338.74Z"/><polygon class="cls-1" points="316.72 345.15 318.72 341.76 316.72 345.15 316.72 345.15 316.72 345.15"/><polygon class="cls-1" points="329.26 345.22 329.26 345.22 329.25 345.22 328.14 343.55 329.26 345.22"/><circle class="cls-1" cx="328.87" cy="257.8" r="31.84"/><circle class="cls-2" cx="328.87" cy="257.8" r="25.06"/><path class="cls-1" d="M334.29,274.13a16.92,16.92,0,0,1-5.54.88,16.64,16.64,0,0,1-5.92-1.09L325,268l1.46-4,1.52-4.39s.51-1.44.52-1.45l.07-.16,0-.07.05-.05.06,0h0l0,0,.06.13.14.42.29.84,1,3.16.9,2.79,1.4,4.25,1.09,3Z"/><path class="cls-1" d="M346,257.9a17.26,17.26,0,0,1-5.29,12.33h0l-2.11-3.18-1.39-2.36-1.4-2.75-1.16-2.41-.92-2.2-.78-2.18-.71-2.13-.77-2.42-.75-2.53-.68-2.52-.75-2.79-.42-1.41-.82,2.66-1.13,3.72-.9,2.83L325,253.71l-.9,2.57-1,2.49-1.1,2.36-1.26,2.51-3.8,6.46h0l-.08-.08A17.18,17.18,0,1,1,346,257.9Z"/><polygon class="cls-1" points="316.86 270.09 320.67 263.64 316.87 270.1 316.86 270.1 316.86 270.09"/><polygon class="cls-1" points="340.72 270.23 340.72 270.24 340.71 270.24 338.6 267.05 340.72 270.23"/><circle class="cls-1" cx="239.72" cy="221.01" r="28.92"/><circle class="cls-2" cx="239.72" cy="221.01" r="22.77"/><path class="cls-1" d="M244.65,235.85a15.54,15.54,0,0,1-10.41-.2l2-5.39,1.33-3.62,1.37-4s.47-1.3.48-1.31l.06-.15s0,0,0-.06l.05,0h.08l0,0,.06.11.12.39.27.76.94,2.86.82,2.54,1.27,3.87,1,2.73Z"/><path class="cls-1" d="M255.29,221.11a15.64,15.64,0,0,1-4.8,11.19h0l-1.92-2.89-1.26-2.15-1.27-2.5L245,222.58l-.83-2-.71-2-.65-1.93-.69-2.19-.69-2.31-.61-2.28-.68-2.54-.38-1.27-.75,2.41-1,3.38-.82,2.57-1,2.85-.81,2.35-.93,2.25-1,2.14-1.15,2.29-3.45,5.87h0l-.08-.07a15.61,15.61,0,1,1,26.55-11Z"/><polygon class="cls-1" points="228.82 232.18 232.28 226.32 228.83 232.19 228.82 232.19 228.82 232.18"/><polygon class="cls-1" points="250.49 232.3 250.49 232.31 250.48 232.31 248.56 229.42 250.49 232.3"/><circle class="cls-1" cx="157.97" cy="192.98" r="32.04"/><circle class="cls-2" cx="157.97" cy="192.98" r="25.22"/><path class="cls-1" d="M163.44,209.42a17.44,17.44,0,0,1-5.58.89,16.91,16.91,0,0,1-6-1.11l2.2-6,1.48-4,1.52-4.42s.52-1.44.52-1.45l.08-.16,0-.07,0-.06.06,0h0l0,0,.06.13.14.42.3.85,1,3.17.9,2.81,1.42,4.28,1.09,3Z"/><path class="cls-1" d="M175.22,193.09a17.31,17.31,0,0,1-5.32,12.4h0l-2.12-3.2-1.4-2.39-1.4-2.76-1.18-2.43-.92-2.21-.78-2.19-.72-2.15-.78-2.42-.75-2.55-.68-2.54-.75-2.81-.43-1.41-.83,2.68L156,182.86l-.91,2.84L154,188.87l-.89,2.59-1,2.5-1.1,2.37-1.27,2.54-3.82,6.49h0l-.09-.08a17.29,17.29,0,1,1,29.41-12.18Z"/><polygon class="cls-1" points="145.9 205.35 149.73 198.87 145.91 205.36 145.9 205.36 145.9 205.35"/><polygon class="cls-1" points="169.9 205.49 169.9 205.5 169.89 205.5 167.77 202.3 169.9 205.49"/><circle class="cls-1" cx="263.86" cy="136.81" r="29.58"/><circle class="cls-2" cx="263.86" cy="136.81" r="23.29"/><path class="cls-1" d="M268.9,152a15.91,15.91,0,0,1-10.65-.2l2-5.51,1.36-3.71,1.41-4.08s.47-1.33.48-1.34l.07-.15,0-.06.05-.05.05,0h0l0,0,.06.12.13.39.27.78,1,2.93.84,2.6,1.31,3.95,1,2.8Z"/><path class="cls-1" d="M279.79,136.91a16,16,0,0,1-4.92,11.45h0l-2-3-1.29-2.2-1.3-2.55-1.08-2.24-.85-2-.73-2-.66-2-.72-2.24-.69-2.36-.63-2.33-.69-2.6-.4-1.3L263.1,124l-1.05,3.45-.84,2.63-1,2.92-.83,2.4-.95,2.31-1,2.19-1.18,2.34-3.53,6h0l-.09-.08a16,16,0,1,1,27.17-11.25Z"/><polygon class="cls-1" points="252.71 148.24 256.24 142.25 252.71 148.25 252.71 148.25 252.71 148.24"/><polygon class="cls-1" points="274.87 148.36 274.87 148.37 274.86 148.37 272.9 145.41 274.87 148.36"/><circle class="cls-1" cx="337.16" cy="106.45" r="24.13"/><circle class="cls-2" cx="337.16" cy="106.45" r="19"/><path class="cls-1" d="M341.27,118.83a13,13,0,0,1-8.69-.16l1.66-4.5,1.11-3,1.15-3.33s.38-1.09.39-1.1l.05-.12s0,0,0,0l0,0h.07l0,0,.05.09.11.32.22.64.78,2.39.68,2.11L340,115.3l.82,2.29Z"/><path class="cls-1" d="M350.15,106.53a13.06,13.06,0,0,1-4,9.34h0l-1.6-2.41-1-1.8-1.06-2.08-.88-1.83-.7-1.67-.59-1.65-.54-1.61-.58-1.83-.57-1.92-.51-1.91-.57-2.12L337.16,94l-.62,2-.86,2.82L335,101l-.81,2.39-.68,2-.78,1.89L331.9,109l-1,1.91-2.87,4.9h0l-.07-.06a13,13,0,1,1,22.16-9.18Z"/><polygon class="cls-1" points="328.06 115.77 330.94 110.88 328.06 115.78 328.06 115.78 328.06 115.77"/><polygon class="cls-1" points="346.14 115.87 346.14 115.88 346.13 115.88 344.53 113.47 346.14 115.87"/><circle class="cls-1" cx="218.43" cy="83.68" r="20.83"/><circle class="cls-2" cx="218.43" cy="83.68" r="16.39"/><path class="cls-1" d="M222,94.36a11.17,11.17,0,0,1-7.5-.14l1.43-3.88,1-2.61,1-2.87s.33-.94.34-1l.05-.1s0,0,0,0l0,0h.08l0,.09.09.27.19.55.68,2.06.59,1.83.92,2.79.71,2Z"/><path class="cls-1" d="M229.64,83.75a11.28,11.28,0,0,1-3.46,8.06h0l-1.38-2.08-.9-1.55L223,86.39l-.76-1.58-.6-1.44-.51-1.43-.47-1.39-.5-1.58-.49-1.66-.44-1.64-.49-1.83-.28-.92-.54,1.74-.74,2.44-.59,1.84L215.87,81l-.59,1.69-.67,1.62-.72,1.55-.82,1.64-2.49,4.23h0l-.06,0a11.24,11.24,0,1,1,19.12-7.92Z"/><polygon class="cls-1" points="210.58 91.72 213.07 87.5 210.58 91.73 210.58 91.73 210.58 91.72"/><polygon class="cls-1" points="226.18 91.81 226.18 91.81 226.17 91.81 224.79 89.73 226.18 91.81"/><circle class="cls-1" cx="368.14" cy="183.31" r="27.46"/><circle class="cls-2" cx="368.14" cy="183.31" r="21.62"/><path class="cls-1" d="M372.82,197.4a14.85,14.85,0,0,1-9.89-.18l1.89-5.12,1.27-3.44,1.3-3.79s.44-1.24.45-1.24l.06-.14,0-.06.05-.05h.07l0,0,.06.11.12.36.25.73.89,2.72.78,2.4,1.21,3.68.94,2.59Z"/><path class="cls-1" d="M382.93,183.4A14.83,14.83,0,0,1,378.36,194h0l-1.82-2.74-1.2-2-1.2-2.37-1-2.08-.79-1.9-.67-1.88-.62-1.84-.66-2.08-.65-2.19-.58-2.17-.65-2.41-.36-1.21-.71,2.3-1,3.2-.77,2.44-.93,2.72L364,182l-.88,2.14-.94,2-1.09,2.17-3.28,5.57h0l-.07-.07a14.82,14.82,0,1,1,25.21-10.45Z"/><polygon class="cls-1" points="357.79 193.92 361.08 188.36 357.8 193.93 357.79 193.93 357.79 193.92"/><polygon class="cls-1" points="378.36 194.03 378.36 194.04 378.36 194.04 376.54 191.3 378.36 194.03"/><circle class="cls-1" cx="412.6" cy="125.77" r="21.66"/><circle class="cls-2" cx="412.6" cy="125.77" r="17.05"/><path class="cls-1" d="M416.29,136.89a11.71,11.71,0,0,1-3.76.6,11.55,11.55,0,0,1-4-.75l1.49-4,1-2.71,1-3s.35-1,.35-1l.05-.11s0,0,0,0l0,0h.08l0,.09.1.29.2.57.7,2.14.62,1.9.95,2.9.74,2.05Z"/><path class="cls-1" d="M424.26,125.85a11.69,11.69,0,0,1-3.6,8.38h0l-1.44-2.17-.94-1.61-.95-1.87-.79-1.64-.63-1.49-.53-1.49-.49-1.45-.52-1.64-.51-1.72-.46-1.72-.51-1.89-.29-1-.55,1.81-.77,2.53-.62,1.92-.72,2.14-.61,1.76-.7,1.69-.74,1.6-.86,1.71-2.59,4.4h0l-.06,0a11.69,11.69,0,1,1,19.88-8.24Z"/><polygon class="cls-1" points="404.44 134.14 407.03 129.75 404.44 134.15 404.44 134.15 404.44 134.14"/><polygon class="cls-1" points="420.66 134.23 420.66 134.24 420.66 134.24 419.22 132.07 420.66 134.23"/><circle class="cls-1" cx="242" cy="321.27" r="41.21"/><circle class="cls-2" cx="242" cy="321.27" r="32.44"/><path class="cls-1" d="M249,342.41a21.59,21.59,0,0,1-7.17,1.14,21.94,21.94,0,0,1-7.67-1.41l2.83-7.69,1.9-5.15,2-5.69s.66-1.86.67-1.87l.09-.21a.23.23,0,0,0,.06-.09l.07-.07.07,0h0l.05,0,.08.16.18.54.38,1.09,1.34,4.08,1.16,3.61,1.82,5.52,1.41,3.89Z"/><path class="cls-1" d="M264.19,321.41a22.34,22.34,0,0,1-6.85,15.95h0l-2.73-4.12-1.8-3.06L251,326.63l-1.51-3.12-1.18-2.85-1-2.82-.93-2.75-1-3.13-1-3.28-.87-3.26-1-3.61L242,300l-1.07,3.44-1.46,4.82-1.17,3.66L236.93,316l-1.15,3.34-1.33,3.21L233,325.58l-1.63,3.26-4.92,8.36h0l-.11-.11a22.24,22.24,0,1,1,37.83-15.67Z"/><polygon class="cls-1" points="226.47 337.19 231.4 328.84 226.48 337.2 226.47 337.2 226.47 337.19"/><polygon class="cls-1" points="257.34 337.36 257.34 337.37 257.33 337.37 254.6 333.25 257.34 337.36"/><circle class="cls-1" cx="564.47" cy="317.05" r="44.38"/><circle class="cls-2" cx="564.47" cy="317.05" r="34.93"/><path class="cls-1" d="M572,339.81a24,24,0,0,1-16-.29l3.05-8.28,2-5.55,2.11-6.12s.71-2,.73-2l.1-.22.06-.1.07-.07.07,0h.05l0,0,.09.17.2.59.4,1.17,1.44,4.4,1.26,3.89,2,5.93,1.51,4.2Z"/><path class="cls-1" d="M588.37,317.19A24,24,0,0,1,581,334.37h0L578,330l-1.94-3.3-1.94-3.83-1.63-3.36-1.28-3.07-1.08-3-1-3L568.1,307l-1.05-3.53-.93-3.51-1-3.89-.59-2-1.15,3.71L561.76,303,560.5,307,559,311.34l-1.24,3.6-1.43,3.46-1.53,3.29-1.76,3.51-5.29,9h0v0l-.13-.11a24,24,0,1,1,40.75-16.88Z"/><polygon class="cls-1" points="547.75 334.19 553.05 325.2 547.76 334.2 547.75 334.2 547.75 334.19"/><polygon class="cls-1" points="580.99 334.37 580.99 334.38 580.98 334.38 578.04 329.95 580.99 334.37"/></g></g></svg>