<svg xmlns="http://www.w3.org/2000/svg" viewBox="0 0 101.34 101.32"><defs><style>.cls-1{fill:#faf9f6;}</style></defs><title>Asset 44b</title><g id="Layer_2" data-name="Layer 2"><g id="layout"><path class="cls-1" d="M0,50.5C.31,21.94,23-.37,51.29,0s50.38,23.18,50,51.76C101,79.44,78,101.63,49.84,101.32A50.48,50.48,0,0,1,0,50.5ZM50.83,5.93a44.75,44.75,0,1,0,44.59,45A44.62,44.62,0,0,0,50.83,5.93Z"/><path class="cls-1" d="M55.55,59.08A31.65,31.65,0,0,1,81.14,71.7c3,3.92,3,4.09-.58,7.66a42.25,42.25,0,0,1-60.21-.54c-2.27-2.33-2.36-4-.41-6.61C28.39,61,40.2,58.5,55.55,59.08Z"/><path class="cls-1" d="M50.76,19.58a18,18,0,1,1-18,18.05A17.85,17.85,0,0,1,50.76,19.58Z"/></g></g></svg>