<svg xmlns="http://www.w3.org/2000/svg" viewBox="0 0 757.89 870.52"><defs><style>.cls-1,.cls-3,.cls-4,.cls-5,.cls-6,.cls-7{fill:none;stroke-miterlimit:10;}.cls-1,.cls-3,.cls-4,.cls-5{stroke:#3f3f3f;}.cls-1{stroke-width:6.36px;}.cls-2{fill:#5cb5dd;}.cls-3{stroke-width:9.35px;}.cls-4{stroke-width:6.31px;}.cls-5{stroke-width:7.74px;}.cls-6,.cls-7{stroke:#5cb5dd;}.cls-6{stroke-width:22.77px;}.cls-7{stroke-width:18.7px;}</style></defs><title>Asset 32b</title><g id="Layer_2" data-name="Layer 2"><g id="layout"><line class="cls-1" x1="154.16" y1="714.07" x2="71.51" y2="831.98"/><polygon class="cls-2" points="63.87 753.41 64.64 716.54 33.09 697.43 0.77 715.2 0 752.08 31.55 771.18 63.87 753.41"/><polygon class="cls-3" points="48.27 743.97 48.66 725.32 32.71 715.66 16.37 724.65 15.98 743.29 31.93 752.95 48.27 743.97"/><line class="cls-1" x1="79.32" y1="823.99" x2="40.42" y2="746.5"/><polygon class="cls-2" points="100.55 835.58 101.07 810.5 79.62 797.51 57.65 809.6 57.12 834.67 78.58 847.66 100.55 835.58"/><polygon class="cls-2" points="131.72 773.54 132.04 758.23 118.95 750.3 105.53 757.68 105.22 772.99 118.31 780.91 131.72 773.54"/><line class="cls-4" x1="536.23" y1="681.28" x2="598.56" y2="594.01"/><line class="cls-5" x1="156.61" y1="692.45" x2="123.42" y2="640.41"/><line class="cls-5" x1="292.11" y1="684.15" x2="236.6" y2="604.14"/><line class="cls-5" x1="437.96" y1="598.78" x2="388.57" y2="679.94"/><line class="cls-5" x1="512.22" y1="698.7" x2="448.29" y2="601.85"/><polygon class="cls-6" points="424.11 806.75 424.11 705.49 336.42 654.85 248.72 705.49 248.72 806.75 336.42 857.38 424.11 806.75"/><polygon class="cls-2" points="577.95 750.67 577.95 682.01 518.49 647.68 459.03 682.01 459.03 750.67 518.49 785 577.95 750.67"/><polygon class="cls-2" points="476.73 608.29 476.73 568.52 442.29 548.64 407.85 568.52 407.85 608.29 442.29 628.17 476.73 608.29"/><line class="cls-5" x1="215.22" y1="605.97" x2="168.26" y2="689.06"/><polygon class="cls-2" points="131.54 681.68 131.54 716.57 162.43 734.02 193.31 716.57 193.31 681.68 162.43 664.23 131.54 681.68"/><polygon class="cls-2" points="110.66 632.66 110.66 645.67 122.17 652.17 133.69 645.67 133.69 632.66 122.17 626.16 110.66 632.66"/><polygon class="cls-2" points="264.8 611.09 264.8 566.18 225.9 543.72 187.01 566.18 187.01 611.09 225.9 633.54 264.8 611.09"/><line class="cls-1" x1="532.52" y1="337.34" x2="583.9" y2="295.93"/><line class="cls-1" x1="610.95" y1="323.61" x2="593.55" y2="302"/><line class="cls-1" x1="618.49" y1="320.02" x2="668.23" y2="268.29"/><line class="cls-4" x1="532.74" y1="382.78" x2="578.36" y2="428.66"/><line class="cls-1" x1="612.02" y1="148.18" x2="655.08" y2="207.71"/><line class="cls-1" x1="502.89" y1="199.28" x2="533.5" y2="152.85"/><line class="cls-1" x1="405.56" y1="187.07" x2="452.02" y2="118.83"/><polygon class="cls-7" points="499.58 52.38 499.58 135.54 571.61 177.12 643.63 135.54 643.63 52.38 571.61 10.79 499.58 52.38"/><polygon class="cls-2" points="461.3 197.22 461.3 234.11 493.24 252.55 525.18 234.11 525.18 197.22 493.24 178.78 461.3 197.22"/><polygon class="cls-3" points="477.09 206.34 477.09 224.99 493.24 234.31 509.39 224.99 509.39 206.34 493.24 197.02 477.09 206.34"/><line class="cls-1" x1="444.38" y1="126.99" x2="484.89" y2="203.64"/><polygon class="cls-2" points="422.91 115.84 422.91 140.92 444.63 153.46 466.35 140.92 466.35 115.84 444.63 103.31 422.91 115.84"/><polygon class="cls-2" points="393.04 178.52 393.04 193.83 406.3 201.48 419.55 193.83 419.55 178.52 406.3 170.86 393.04 178.52"/><polygon class="cls-2" points="626.92 213.99 626.92 270.38 675.76 298.57 724.59 270.38 724.59 213.99 675.76 185.79 626.92 213.99"/><polygon class="cls-2" points="489.05 336.37 489.05 379.02 525.79 400.35 562.53 379.02 562.53 336.37 525.79 315.04 489.05 336.37"/><polygon class="cls-2" points="626.41 335.91 626.41 320.6 613.15 312.94 599.89 320.6 599.89 335.91 613.15 343.56 626.41 335.91"/><polygon class="cls-2" points="604.07 301.39 604.07 278.06 583.42 266.39 562.77 278.06 562.77 301.39 583.42 313.05 604.07 301.39"/><polygon class="cls-2" points="757.89 447.45 757.89 591.48 635.05 663.5 512.22 591.48 512.22 447.45 635.05 375.43 757.89 447.45"/></g></g></svg>