<svg xmlns="http://www.w3.org/2000/svg" xmlns:xlink="http://www.w3.org/1999/xlink" viewBox="0 0 142.66 142.66"><defs><style>.cls-1{fill:url(#linear-gradient);}.cls-2{fill:#faf9f6;}</style><linearGradient id="linear-gradient" x1="71.33" y1="142.66" x2="71.33" gradientUnits="userSpaceOnUse"><stop offset="0" stop-color="#f15b23"/><stop offset="1" stop-color="#f6911d"/></linearGradient></defs><title>Asset 31b</title><g id="Layer_2" data-name="Layer 2"><g id="layout"><rect class="cls-1" width="142.66" height="142.66" rx="20.36" ry="20.36"/><path class="cls-2" d="M22.93,74.4c0-7.29,0-14.59,0-21.88,0-5,3.12-8.41,7.55-8.44s7.67,3.42,7.69,8.36c0,14.29,0,28.58,0,42.88,0,7.29,6.13,12.51,12.81,11.17a11.11,11.11,0,0,0,9-9.1A10.86,10.86,0,0,0,54.8,86.3c-2.38-1.45-4.31-3.13-4.68-6a7.22,7.22,0,0,1,3.25-7.42,7.44,7.44,0,0,1,8.36-.11c8.84,5.13,13.58,12.86,13.52,23-.06,10.42-5,18.36-14.23,23.19C44,127.84,23.36,115.53,23,96.29c-.16-7.3,0-14.59,0-21.89Z"/><path class="cls-2" d="M129.42,93.44c0,.49,0,1,0,1.48,0,4.82-3,8.18-7.33,8.3-4.54.14-7.84-3-7.9-8.06a61.76,61.76,0,0,0-4.66-23.63C99.67,48.45,82.22,35,57.46,31.09c-5.16-.82-8-4.14-7.35-8.83.57-4.33,4.34-6.79,9.44-6.16,36.57,4.48,65.75,34.41,69.38,71.15q.3,3.09.58,6.18Z"/><path class="cls-2" d="M102.48,93.45a27,27,0,0,1-.63,4.82A7.54,7.54,0,0,1,87.3,96.74c-.48-3.51-.47-7.14-1.42-10.51C81.7,71.24,71.82,62,56.72,58.36c-3.89-.94-6.12-3.06-6.6-6.26-.78-5.19,3.16-9.61,8.41-8.65A51.53,51.53,0,0,1,72,47.67C90.93,57,100.66,72.7,102.48,93.45Z"/></g></g></svg>