<?xml version="1.0" encoding="utf-8"?>
<!-- Generator: Adobe Illustrator 22.1.0, SVG Export Plug-In . SVG Version: 6.00 Build 0)  -->
<svg version="1.1" id="Layer_1" xmlns="http://www.w3.org/2000/svg" xmlns:xlink="http://www.w3.org/1999/xlink" x="0px" y="0px"
	 viewBox="0 0 324.1 277.5" style="enable-background:new 0 0 324.1 277.5;" xml:space="preserve">
<style type="text/css">
	.st0{fill:#5CB5DD;}
</style>
<title>Asset 37b</title>
<path class="st0" d="M150.1,215.2c-0.9-1.1-3.2-1.9-4.6-1.6c-4.3,0.6-8.5,2-12.7,2.8c-6,1.1-9.3-1-10.7-6.9
	c-1.9-7.6-3.7-15.2-5.5-22.8c-1.6-6.9,0.3-10.1,7.2-11.9c4.9-1.3,9.8-2.4,14.5-3.5c1.1-6.3,2.3-12.2,3.2-18.2
	c0.2-1.1-0.9-2.9-1.9-3.6c-3.6-2.5-7.4-4.5-11.1-6.9c-5.5-3.7-6.4-7.2-3.1-12.8c4.1-6.9,8.3-13.7,12.6-20.5c3.3-5.1,7.5-6.1,12.9-3
	c3.6,2.1,7,4.5,10.7,6.4c1.2,0.6,3.4,0.8,4.5,0.1c5-3.4,9.8-7.1,14.8-10.8c-1.2-5-2.4-10.1-3.5-15.2c-1.3-6,0.5-9.4,6.5-11
	c8.1-2.2,16.2-4.2,24.3-6c5.4-1.2,9,1.3,10.5,6.8c1.1,4.2,1.9,8.5,3.2,12.6c0.4,1.3,1.9,3,3.1,3.3c5.9,1.1,11.9,1.8,18.1,2.6
	c2.7-4.4,5.4-8.9,8.2-13.3c3.1-4.8,7.3-6,12.1-3.2c7.2,4.2,14.4,8.6,21.4,13.1c5.1,3.3,5.9,7.3,2.9,12.5c-2.7,4.6-5.6,9.2-8.2,13.4
	c4.3,5.9,8.3,11.3,12.3,16.8c2.5-0.6,4.8-1.2,7.2-1.8c2.5-0.6,5.1-1.2,7.6-1.8c5.6-1.3,9.9,0.7,11.2,5.7c2.2,8.4,4.2,16.9,6,25.4
	c1.1,5.3-1.1,8.8-6.3,10.2c-4.2,1.2-8.5,1.8-12.6,3.2c-1.5,0.5-3.2,2.4-3.6,3.9c-1.1,4.5-1.8,9.2-2.2,13.9c-0.1,1.6,0.8,3.9,2.1,4.9
	c3.3,2.5,7.1,4.4,10.6,6.7c5.5,3.6,6.4,7.2,3.1,12.8c-4.1,6.9-8.3,13.7-12.5,20.5c-3.3,5.3-7.5,6.2-12.9,3.1
	c-4.5-2.6-8.9-5.4-13.2-8c-4.8,3.4-9.2,6.8-13.9,9.7c-2.6,1.6-3.1,3.2-2.3,6c1.1,4,2.1,8.1,2.9,12.2c1.1,5.4-0.8,9.1-6,10.4
	c-8.4,2.2-16.9,4.2-25.4,6c-5.1,1.1-8.4-1.2-9.8-6.2c-1.2-4.4-2-8.8-3.4-13.1c-0.5-1.4-2.2-3.1-3.6-3.4c-5.7-1.1-11.6-1.7-17.6-2.5
	c-2.8,4.5-5.5,9.2-8.5,13.7c-2.9,4.4-7.2,5.4-11.8,2.8c-7.4-4.3-14.7-8.7-21.8-13.4c-4.6-3-5.4-7-2.7-11.7s5.6-9.2,8.3-13.8
	C156.8,224.4,153.7,219.6,150.1,215.2z M262.8,168.1c-3.4-23.7-25.1-40.4-48.5-37.2c-23.3,3.2-40.4,25.3-37.2,48.1
	c3.4,24,25.3,40.5,49,37C249.3,212.6,266,190.8,262.8,168.1z"/>
<path class="st0" d="M27.2,96.6c7.6-5.4,8.4-5.4,13.5,2.2c1.9,2.9,3.8,3.5,7.2,3c5.5-0.8,8.1-2.9,8.5-8.7c0.4-5.8,2.4-6.9,7.9-6.1
	c4,0.6,7.9,1.4,11.8,2.1c3.8,0.7,5.7,3,4.5,6.7c-2.2,6.4-0.3,10.5,6,12.9c0.9,0.4,1.7,1.1,2.8,1.8c2.2-1.5,4.3-2.9,6.4-4.5
	c3.7-2.7,6.6-2.3,9.2,1.6c2.2,3.3,4.5,6.6,7,9.8c2.5,3.2,1.7,5.8-1.2,8.1c-1.6,1.3-3.5,2.3-5,3.7c-0.9,0.8-1.8,2.2-1.7,3.3
	c0.7,8.1,2,9.5,9.7,10.9c4.6,0.9,6.9,3,5.6,7.9c-0.7,2.5-0.9,5.1-1.3,7.7c-1.6,9.3-2,9.5-11.6,8.2c-1.7-0.2-4.4,0.1-5.3,1.2
	c-5.7,7-5.7,7.2-0.6,14.5c2.5,3.6,2.2,6.4-1.4,8.8c-2.8,2-5.6,4.1-8.5,6.1c-5.5,3.8-7.5,3.8-10.9-1.9c-2.7-4.6-5.7-5-10.6-3.9
	c-4.9,1-5.4,3.8-6,7.5c-1.1,6.9-2.4,7.8-9.4,6.6c-3.6-0.6-7.2-1.2-10.8-1.9c-3.5-0.7-5-2.9-4.4-6.4c0.5-2.9,1-5.8,1.4-8.5
	c-2.8-1.8-5.2-3.6-7.8-4.8c-1.2-0.6-3.3-0.5-4.5,0.2c-9.8,5.9-9.8,6-16.4-3.4c-0.4-0.6-0.8-1.1-1.2-1.7c-5.8-8.2-5.8-8.4,2.2-14.3
	c1.3-0.9,2.9-2.4,3-3.7c0.4-7.1-2.2-10.3-9.5-11.5c-4.8-0.8-6.7-3.2-5.7-7.9c0.8-3.9,1.5-7.9,2.1-11.8c0.6-4,3.3-5.9,6.6-4.6
	c6.9,2.5,10.6-0.3,13.2-6.2c0.3-0.8,0.9-1.4,1.5-2.3C15.6,104.8,15.6,104.8,27.2,96.6z M63.3,171c13.3-2.1,22.7-14.6,20.9-27.8
	c-1.9-13.6-14.5-23-28.1-20.9c-13.6,2-22.7,14.2-20.8,27.7C37.2,163.6,49.8,173.1,63.3,171z"/>
<path class="st0" d="M166.1,81c3.2,4.1,0.5,6.2-2.5,8.4c-10.3,7.5-11.1,7.7-14.4,3.7c-0.9-1.1-1.4-2.9-2.5-3.3
	c-2.3-0.7-5-1.3-7.4-0.9c-1.6,0.2-3.8,1.9-4.2,3.3c-2.7,9.3-2.6,9.3-12.2,7.7c-1.4-0.2-2.7-0.6-4.1-0.7c-4.6-0.4-6.2-3-4.8-7.1
	c1.5-4.4,0.2-7.2-4.1-8.9c-1.2-0.5-2.3-1.4-3.4-2.1c-10.6,6.7-8.9,8.6-17.5-3.7c-0.1-0.1-0.2-0.3-0.3-0.4c-3.8-5.4-3.9-6.7,1.7-9.9
	c4.7-2.7,3-6,2.6-9.7c-0.4-4.2-3.7-3.2-6.1-4.2c-2.1-0.9-5.6-2.4-5.5-3.4c0.3-5.3,0.8-10.9,3-15.6c0.7-1.5,6.8-0.5,10.5-0.6
	c0.3,0,0.7-0.2,0.9-0.2c3.5-4.5,6.4-8.5,1.3-14.3c-4.2-4.7,1.4-7.1,4.5-8.8c3.6-2.1,6.7-8.6,12.2-2.9c1.1,1.1,1.6,2.8,2.8,3.7
	c1.2,0.9,3.2,2,4.2,1.6c2.6-1.2,6.5,0.5,7.6-4c2.3-9.4,2.4-9.4,11.8-7.8c1.4,0.2,2.7,0.5,4.1,0.6c4.5,0.4,6.2,3.1,4.9,7.2
	c-1.4,4.4-0.3,7.2,4,8.9c1.3,0.5,2.3,1.4,3.6,2.2c1.3-0.9,2.4-1.7,3.5-2.5c6-4.1,6.7-4,10.8,1.8c0.6,0.8,1.2,1.7,1.8,2.6
	c5.4,7.7,5.6,7.9-1.8,13.3c-3.9,2.9-0.9,5.7-0.6,8.4c0.1,1.3,1.9,3.2,3.2,3.6c9.1,2.4,9.1,2.3,7.5,11.8c-0.2,1.4-0.6,2.7-0.7,4.1
	c-0.4,4.8-3.1,6.5-7.4,5.1c-4.2-1.3-6.9-0.2-8.5,3.9c-0.5,1.3-1.5,2.3-2.4,3.6C163.5,77.4,164.7,79.3,166.1,81z M128.6,29.9
	c-11.3,1.7-19.1,11.9-17.7,23.2s12.1,19.5,23.5,18s19.4-12.1,17.8-23.5C150.6,35.9,140.2,28.2,128.6,29.9z"/>
</svg>
