<svg xmlns="http://www.w3.org/2000/svg" viewBox="0 0 302.74 193.38"><defs><style>.cls-1{fill:#e6b63b;}.cls-2{fill:#da9034;}</style></defs><title>Asset 34b</title><g id="Layer_2" data-name="Layer 2"><g id="layout"><circle class="cls-1" cx="76.69" cy="116.69" r="76.69"/><circle class="cls-2" cx="76.69" cy="116.69" r="60.37"/><path class="cls-1" d="M89.77,156a41.28,41.28,0,0,1-27.62-.51l5.27-14.3L71,131.63l3.64-10.58s1.24-3.47,1.26-3.49l.17-.38a1,1,0,0,0,.11-.17l.12-.13a.38.38,0,0,1,.13,0h.09l.08.06.15.3.34,1,.7,2,2.49,7.6,2.17,6.72,3.39,10.26,2.61,7.25Z"/><path class="cls-1" d="M118,116.94a41.44,41.44,0,0,1-12.75,29.69l0,0L100.13,139l-3.34-5.7-3.36-6.62-2.81-5.81-2.22-5.3-1.87-5.25-1.72-5.13L83,99.37l-1.81-6.11L79.53,87.2l-1.81-6.73-1-3.38-2,6.4-2.72,9-2.17,6.81-2.58,7.58-2.15,6.21-2.46,6L60,124.71l-3,6.07L47.8,146.33h0v0a.93.93,0,0,0-.21-.19A41.39,41.39,0,1,1,118,116.94Z"/><polygon class="cls-1" points="47.78 146.31 56.95 130.78 47.8 146.33 47.78 146.33 47.78 146.31"/><polygon class="cls-1" points="105.23 146.63 105.23 146.65 105.21 146.65 100.13 138.99 105.23 146.63"/><circle class="cls-1" cx="226.05" cy="116.69" r="76.69"/><circle class="cls-2" cx="226.05" cy="116.69" r="60.37"/><path class="cls-1" d="M239.13,156a41.28,41.28,0,0,1-27.62-.51l5.27-14.3,3.54-9.59L224,121.05s1.23-3.47,1.25-3.49l.17-.38a.62.62,0,0,0,.11-.17l.13-.13a.28.28,0,0,1,.12,0h.09l.08.06.15.3.34,1,.7,2,2.49,7.6,2.17,6.72,3.39,10.26,2.62,7.25Z"/><path class="cls-1" d="M267.34,116.94a41.47,41.47,0,0,1-12.74,29.69l0,0L249.49,139l-3.34-5.7-3.36-6.62L240,120.86l-2.21-5.3-1.88-5.25-1.72-5.13-1.85-5.81-1.81-6.11-1.62-6.06-1.81-6.73-1-3.38-2,6.4-2.72,9-2.17,6.81-2.58,7.58-2.14,6.21L212,119l-2.64,5.68-3,6.07-9.15,15.55h0v0a.93.93,0,0,0-.21-.19,41.39,41.39,0,1,1,70.41-29.18Z"/><polygon class="cls-1" points="197.15 146.31 206.32 130.78 197.17 146.33 197.15 146.33 197.15 146.31"/><polygon class="cls-1" points="254.6 146.63 254.6 146.65 254.57 146.65 249.49 138.99 254.6 146.63"/><circle class="cls-1" cx="150.69" cy="76.69" r="76.69"/><circle class="cls-2" cx="150.69" cy="76.69" r="60.37"/><path class="cls-1" d="M163.77,116a41.28,41.28,0,0,1-27.62-.51l5.27-14.3L145,91.63l3.64-10.58s1.24-3.47,1.26-3.49l.17-.38a1,1,0,0,0,.11-.17l.12-.13a.38.38,0,0,1,.13,0h.09l.08.06.15.3.34,1,.7,2,2.49,7.6,2.17,6.72,3.39,10.26,2.61,7.25Z"/><path class="cls-1" d="M192,76.94a41.44,41.44,0,0,1-12.75,29.69l0,0L174.13,99l-3.34-5.7-3.36-6.62-2.81-5.81-2.22-5.3-1.87-5.25-1.72-5.13L157,59.37l-1.81-6.11-1.62-6.06-1.81-6.73-1-3.38-2,6.4-2.72,9-2.17,6.81-2.58,7.58-2.15,6.21-2.46,6L134,84.71,131,90.78l-9.15,15.55h0v0a.93.93,0,0,0-.21-.19A41.39,41.39,0,1,1,192,76.94Z"/><polygon class="cls-1" points="121.78 106.31 130.95 90.78 121.8 106.33 121.78 106.33 121.78 106.31"/><polygon class="cls-1" points="179.24 106.63 179.24 106.65 179.21 106.65 174.13 98.99 179.24 106.63"/></g></g></svg>