<svg xmlns="http://www.w3.org/2000/svg" xmlns:xlink="http://www.w3.org/1999/xlink" viewBox="0 0 142.66 142.66"><defs><style>.cls-1{fill:url(#linear-gradient);}.cls-2{fill:#fff;}</style><linearGradient id="linear-gradient" x1="71.33" y1="142.66" x2="71.33" gradientUnits="userSpaceOnUse"><stop offset="0" stop-color="#3490d9"/><stop offset="1" stop-color="#64b797"/></linearGradient></defs><title>Asset 16b</title><g id="Layer_2" data-name="Layer 2"><g id="layout"><rect class="cls-1" width="142.66" height="142.66" rx="20.36" ry="20.36"/><path class="cls-2" d="M105.38,38.52l-16.17,10,0-19.2a15.82,15.82,0,0,1,0-2.39,12,12,0,1,1,23.92,0C113.13,32.19,109.65,36.23,105.38,38.52ZM101,18.27a8.54,8.54,0,1,0,8.54,8.54A8.54,8.54,0,0,0,101,18.27Z"/><path class="cls-2" d="M105.38,38.52l-16.17,10,0-19.2a15.82,15.82,0,0,1,0-2.39,12,12,0,1,1,23.92,0C113.13,32.19,109.65,36.23,105.38,38.52ZM101,18.27a8.54,8.54,0,1,0,8.54,8.54A8.54,8.54,0,0,0,101,18.27Z"/><path class="cls-2" d="M97.35,27.69l-2.06,1.54a4.65,4.65,0,0,0,1.39,2l1.48-1.59,1-1.07,1.06-1.19.35-.39,0,0,0,0h.06v.2l0,.3-.09,1.14-.08,1-.12,1.54-.06,1.1,0,.59a5.55,5.55,0,0,0,2.55-.38l-.25-1.29-.12-.93-.08-1.06,0-.92v-.82l0-.79.06-.77.07-.87.1-.9.12-.89.13-1,.05-.5-.61.73-.85,1-.66.78-.76.85-.62.7-.65.65-.66.61Z"/><path class="cls-2" d="M103.34,42.14,99,44.86a40.83,40.83,0,0,1,8,49.27,4.92,4.92,0,0,1-2-.2c-.94-.53-1.18-1.8-2-2.48-1-.81-2.51-.5-3.61.17s-2,1.64-3.17,2.19a5.15,5.15,0,0,1-4.53-.06c-2-1-3.05-3.16-4.3-5S84.16,85.12,82,85.5c-1.62.28-2.79,1.65-4,2.72s-3.11,1.91-4.49,1a6.37,6.37,0,0,1-1.75-2.61,7.82,7.82,0,0,0-5.6-4,2,2,0,0,0-1.33.14c-.39.23-.61.67-.92,1-1.4,1.48-4,.36-5.84,1.28-1.66.85-2.05,3.11-1.58,4.91a8,8,0,0,0,5.83,5.63,10.81,10.81,0,0,1,2.83.73,4.78,4.78,0,0,1,1.69,6.32c-1,1.27-3.26,1.4-4,0-.55-1-.19-2.57-1.13-3.28a1.82,1.82,0,0,0-2.54.92,4.66,4.66,0,0,0,0,3,12.07,12.07,0,0,1,.57,3.13,3.15,3.15,0,0,1-1.38,2.73c-1.81,1.05-4.67-.57-6,1.06a1.89,1.89,0,0,0-.32.57A40.85,40.85,0,0,1,36,53.62c.74,1.4,2.9,1.64,3.07,3.34,0,.34-.08.69,0,1a1.7,1.7,0,0,0,1.51,1.32,6,6,0,0,0,2.14-.26,18.72,18.72,0,0,1,4.09-.46,3.88,3.88,0,0,1,3,.93c1.2,1.33.44,3.68,1.62,5,.91,1,2.59,1,3.83.36a32.92,32.92,0,0,0,3.36-2.43,13.51,13.51,0,0,1,5.51-1.9,8,8,0,0,1,2.89,0c2.24.47,3.79,2.44,5.47,4A11.77,11.77,0,0,0,78,67.6a7,7,0,0,0,6-1.55,5,5,0,0,0,1.07-5.92,1.54,1.54,0,0,0-.78-.73,2.16,2.16,0,0,0-1.12.1,3,3,0,0,1-2.32-.28,1.65,1.65,0,0,1-.64-2.07,4.88,4.88,0,0,1,5.24-1.46c-.11-1,1.2-1.63,2.2-1.42s1.83.89,2.82,1.15c2.53.67,5-1.86,5.25-4.47a1.75,1.75,0,0,0-.07-.79,1.41,1.41,0,0,0-1.13-.78c-1.26-.19-2.4.71-3.43,1.46s-2.24,1.34-3.31.9a1.07,1.07,0,0,1-.22-.1,1.94,1.94,0,0,1-.45-.35c-.87-.89-.75-2.54-.52-3.86.26-1.52.22-3.51-1.21-4.08-.94-.37-2,.12-3-.1a2.26,2.26,0,0,1-1.16-3.5c.84-1,2.41-1,3.19-2.06a2.1,2.1,0,0,0,.41-1.47c.78.28,1.56.59,2.32.93v-5.4a46,46,0,1,0,16.1,10.39Z"/><path class="cls-2" d="M39,87a2.66,2.66,0,0,1-1.74-2.37,1.4,1.4,0,0,1,.78-1.28,3.49,3.49,0,0,0,.57-.2c.8-.47.1-1.75.44-2.61.24-.62,1-.87,1.62-1,1.35-.37,2.84-.72,4.08-.08.5.26.91.66,1.4.94.68.39,1.47.53,2.12,1a6.51,6.51,0,0,1,2,3.16c.49,1.17,1.21,2.42,2.44,2.74a.94.94,0,0,1,.57.26.74.74,0,0,1,.11.39,6.34,6.34,0,0,1-3.19,6,2.76,2.76,0,0,0-1.28,1,7,7,0,0,0-.27.81,2.06,2.06,0,0,1-2,1.2A4,4,0,0,1,44.47,96c-1-.71-1.94-2-1.5-3.13a9.61,9.61,0,0,1,.57-1,3.11,3.11,0,0,0-.68-3.62C41.77,87.16,40.39,87.63,39,87Z"/><path class="cls-2" d="M19.92,75.66h-3a54.41,54.41,0,0,0,50,52.59v-3A51.38,51.38,0,0,1,19.92,75.66Z"/><path class="cls-2" d="M17.31,67.49a3.06,3.06,0,0,1,1-.19,2.85,2.85,0,0,1,1.91.67A51.42,51.42,0,0,1,67,22.93v-3A54.41,54.41,0,0,0,17.31,67.49Z"/><path class="cls-2" d="M88,22.4a13.09,13.09,0,0,0-.67,2.94A51.26,51.26,0,0,0,75,22.91a2.81,2.81,0,0,0,.58-1.77,3.37,3.37,0,0,0-.3-1.23A54,54,0,0,1,88,22.4Z"/><path class="cls-2" d="M125.32,68.93h-3a51.19,51.19,0,0,0-13.75-30.05,17.93,17.93,0,0,0,2.28-1.94A54.09,54.09,0,0,1,125.32,68.93Z"/><path class="cls-2" d="M122.51,76.35a51.36,51.36,0,0,1-49,49v3a54.41,54.41,0,0,0,52-52Z"/><polygon class="cls-2" points="14.57 64.99 22.57 64.99 18.39 70.9 14.57 64.99"/><polygon class="cls-2" points="64.59 122.89 64.43 132.14 70.18 127.81 64.59 122.89"/><polygon class="cls-2" points="119.68 79.72 128.43 79.72 124.09 73.39 119.68 79.72"/><polygon class="cls-2" points="78.09 17.89 78.09 25.39 72.01 20.89 78.09 17.89"/></g></g></svg>