<svg xmlns="http://www.w3.org/2000/svg" xmlns:xlink="http://www.w3.org/1999/xlink" viewBox="0 0 142.66 142.66"><defs><style>.cls-1{fill:url(#linear-gradient);}.cls-2{fill:#faf9f6;}</style><linearGradient id="linear-gradient" x1="71.33" y1="142.66" x2="71.33" gradientUnits="userSpaceOnUse"><stop offset="0" stop-color="#186906"/><stop offset="1" stop-color="#87c53f"/></linearGradient></defs><title>Asset 13b</title><g id="Layer_2" data-name="Layer 2"><g id="layout"><rect class="cls-1" width="142.66" height="142.66" rx="20.36" ry="20.36"/><polygon class="cls-2" points="74.46 19.99 74.46 32.98 96.84 45.91 106.51 38.61 74.46 19.99"/><polygon class="cls-2" points="67.89 19.99 67.89 32.98 39.15 49.95 27.6 43.23 67.89 19.99"/><polygon class="cls-2" points="24.35 48.94 35.47 55.51 35.47 88.36 24.35 94.93 24.35 48.94"/><polygon class="cls-2" points="26.88 100.77 38 94.42 67.81 111.46 67.81 124.74 26.88 100.77"/><polygon class="cls-2" points="74.53 124.74 74.53 111.68 104.35 94.28 115.75 100.92 74.53 124.74"/><polygon class="cls-2" points="117.99 54.21 117.99 94.71 106.8 88.14 106.8 66.55 117.99 54.21"/><polygon class="cls-2" points="61.39 63.74 50.99 74.21 71.71 95.5 134.31 25.69 72 74.42 61.39 63.74"/></g></g></svg>