<svg xmlns="http://www.w3.org/2000/svg" xmlns:xlink="http://www.w3.org/1999/xlink" viewBox="0 0 142.66 142.66"><defs><style>.cls-1{fill:url(#linear-gradient);}.cls-2{fill:#fff;}</style><linearGradient id="linear-gradient" x1="71.33" y1="142.66" x2="71.33" gradientUnits="userSpaceOnUse"><stop offset="0" stop-color="#007a63"/><stop offset="1" stop-color="#00a699"/></linearGradient></defs><title>Asset 17b</title><g id="Layer_2" data-name="Layer 2"><g id="layout"><rect class="cls-1" width="142.66" height="142.66" rx="20.36" ry="20.36"/><path class="cls-2" d="M125.07,107.14a19.56,19.56,0,0,1-.3,4c-1.7,8.26-8.29,13.5-17,13.51q-35.37,0-70.73,0a21.23,21.23,0,0,1-3.29-.21c-8.38-1.37-14.08-8.18-14.09-16.87q0-35.53,0-71.07c0-10.29,6.43-17.1,16.71-17.15q36-.18,71.94,0c10.3.05,16.77,6.82,16.78,17.09q0,17.6,0,35.18Q125.08,89.38,125.07,107.14ZM111,51.92a39.3,39.3,0,0,1-4.34.22q-34.23,0-68.45,0a24.23,24.23,0,0,0-5.18.45c-4.61,1-7.78,4.83-8.4,10.17-.68,5.95-.83,5.33,4.54,5.38,9.29.1,18.58,0,27.87.06a18.9,18.9,0,0,1,9.57,2.11C73.1,74,76.26,81.81,74.36,89.58c-1.79,7.3-7.59,12.22-15.13,12.33-10.39.17-20.78,0-31.17,0a35.52,35.52,0,0,1-3.85-.44c.21,3.34,0,6.59.69,9.62,1.35,5.66,6.06,8.76,12.46,8.76q35,0,70,0c.69,0,1.39,0,2.08-.1,5.83-.45,10.83-5.42,10.86-11.22.07-20,0-39.94,0-59.91a7.79,7.79,0,0,0-.12-.84A18.3,18.3,0,0,1,111,51.92Zm9.27-17.36a11.21,11.21,0,0,0-10.77-10.39c-1.27-.07-2.55-.12-3.83-.12q-33.7,0-67.41,0a27.23,27.23,0,0,0-4.52.24,11.19,11.19,0,0,0-9.36,10.62c-.16,5.57,0,11.15,0,16.76L32,47.54a14.87,14.87,0,0,1,2.15-9.4,9.46,9.46,0,0,1,8.34-4.84q30,0,59.92,0c6.83,0,10,6.45,10.41,11.27,0,.61,0,1.22,0,1.88C117.51,45.24,120.84,39.86,120.31,34.56Zm-62.44,43a7.5,7.5,0,0,0-7.46,7.36,7.33,7.33,0,0,0,7.45,7.32A7.25,7.25,0,0,0,65.11,85,7.43,7.43,0,0,0,57.87,77.57Z"/><circle class="cls-2" cx="57.7" cy="84.87" r="3.18"/></g></g></svg>