<?xml version="1.0" encoding="utf-8"?>
<!-- Generator: Adobe Illustrator 22.1.0, SVG Export Plug-In . SVG Version: 6.00 Build 0)  -->
<svg version="1.1" id="Layer_1" xmlns="http://www.w3.org/2000/svg" xmlns:xlink="http://www.w3.org/1999/xlink" x="0px" y="0px"
	 viewBox="0 0 755 779.3" style="enable-background:new 0 0 755 779.3;" xml:space="preserve">
<style type="text/css">
	.st0{fill:none;stroke:#3F3F3F;stroke-width:4;stroke-miterlimit:10;}
	.st1{fill:#5CB5DD;}
	.st2{fill:none;stroke:#3F3F3F;stroke-width:8;stroke-miterlimit:10;}
	.st3{fill:none;stroke:#5CB5DD;stroke-width:22.77;stroke-miterlimit:10;}
	.st4{fill:none;stroke:#5CB5DD;stroke-width:10;stroke-miterlimit:10;}
</style>
<title>Asset 33b</title>
<line class="st0" x1="478.6" y1="85" x2="439.3" y2="153"/>
<line class="st0" x1="154.2" y1="622.9" x2="71.5" y2="740.8"/>
<polygon class="st1" points="63.9,662.2 64.6,625.3 33.1,606.2 0.8,624 0,660.9 31.5,680 "/>
<polygon class="st2" points="48.3,652.8 48.7,634.1 32.7,624.5 16.4,633.5 16,652.1 31.9,661.8 "/>
<line class="st0" x1="79.3" y1="732.8" x2="40.4" y2="655.3"/>
<polygon class="st1" points="100.6,744.4 101.1,719.3 79.6,706.3 57.7,718.4 57.1,743.5 78.6,756.5 "/>
<polygon class="st1" points="131.7,682.3 132,667 118.9,659.1 105.5,666.5 105.2,681.8 118.3,689.7 "/>
<line class="st0" x1="536.2" y1="590.1" x2="598.6" y2="502.8"/>
<line class="st0" x1="156.6" y1="601.3" x2="123.4" y2="549.2"/>
<line class="st0" x1="292.1" y1="593" x2="236.6" y2="513"/>
<line class="st0" x1="438" y1="507.6" x2="388.6" y2="588.8"/>
<line class="st0" x1="512.2" y1="607.5" x2="448.3" y2="510.7"/>
<polygon class="st3" points="424.1,715.6 424.1,614.3 336.4,563.7 248.7,614.3 248.7,715.6 336.4,766.2 "/>
<polygon class="st1" points="578,659.5 578,590.8 518.5,556.5 459,590.8 459,659.5 518.5,693.8 "/>
<polygon class="st1" points="695.8,483.6 695.8,410.6 632.6,374.1 569.4,410.6 569.4,483.6 632.6,520.2 "/>
<polygon class="st1" points="476.7,517.1 476.7,477.3 442.3,457.5 407.9,477.3 407.9,517.1 442.3,537 "/>
<line class="st0" x1="215.2" y1="514.8" x2="168.3" y2="597.9"/>
<polygon class="st1" points="131.5,590.5 131.5,625.4 162.4,642.8 193.3,625.4 193.3,590.5 162.4,573 "/>
<polygon class="st1" points="110.7,541.5 110.7,554.5 122.2,561 133.7,554.5 133.7,541.5 122.2,535 "/>
<polygon class="st1" points="264.8,519.9 264.8,475 225.9,452.5 187,475 187,519.9 225.9,542.4 "/>
<polygon class="st1" points="499.8,164.4 499.8,200.4 531,218.4 562.2,200.4 562.2,164.4 531,146.4 "/>
<polygon class="st2" points="515.2,173.2 515.2,191.5 531,200.6 546.8,191.5 546.8,173.2 531,164.1 "/>
<polygon class="st1" points="427.2,146 427.2,160 439.3,167 451.4,160 451.4,146 439.3,139 "/>
<line class="st0" x1="476.8" y1="89.3" x2="523" y2="168.8"/>
<line class="st0" x1="596.4" y1="253.8" x2="642.7" y2="333.3"/>
<line class="st0" x1="627.7" y1="83.4" x2="711.3" y2="226.9"/>
<polygon class="st1" points="455.7,77.2 455.7,101.2 476.5,113.2 497.3,101.2 497.3,77.2 476.5,65.2 "/>
<line class="st0" x1="587.8" y1="85.1" x2="538.2" y2="169.8"/>
<line class="st0" x1="707.3" y1="219.5" x2="637.8" y2="339.2"/>
<line class="st0" x1="614.8" y1="258.4" x2="565.1" y2="343.1"/>
<polygon class="st4" points="569.2,28.3 569.2,73.3 608.2,95.8 647.2,73.3 647.2,28.3 608.2,5.8 "/>
<polygon class="st1" points="652.4,338.1 652.4,326.1 642,320.1 631.6,326.1 631.6,338.1 642,344.1 "/>
<polygon class="st1" points="628.3,283.6 628.3,259.6 607,247.6 585.8,259.6 585.8,283.6 607,295.6 "/>
<polygon class="st1" points="544.3,435.6 544.3,411.6 523,399.6 501.8,411.6 501.8,435.6 523,447.6 "/>
<polygon class="st1" points="534.4,324.6 534.4,360.6 565.4,378.6 596.4,360.6 596.4,324.6 565.4,306.6 "/>
<polygon class="st1" points="659.7,192.2 659.7,247.2 707.3,274.7 755,247.2 755,192.2 707.3,164.7 "/>
</svg>
