<svg xmlns="http://www.w3.org/2000/svg" xmlns:xlink="http://www.w3.org/1999/xlink" viewBox="0 0 142.66 142.66"><defs><style>.cls-1{fill:url(#linear-gradient);}.cls-2{fill:#fff;}</style><linearGradient id="linear-gradient" x1="71.33" y1="142.66" x2="71.33" gradientUnits="userSpaceOnUse"><stop offset="0" stop-color="#ad2320"/><stop offset="1" stop-color="#d66a45"/></linearGradient></defs><title>Asset 18b</title><g id="Layer_2" data-name="Layer 2"><g id="layout"><rect class="cls-1" width="142.66" height="142.66" rx="20.36" ry="20.36"/><rect class="cls-2" x="92.81" y="50.48" width="16.48" height="11.96" rx="1.57" ry="1.57" transform="translate(-14.59 61.5) rotate(-31.69)"/><path class="cls-2" d="M31.91,127.72a4.75,4.75,0,0,1-6.23-2.06L15.12,105.73a7.21,7.21,0,0,1,2.08-9.16l2.71-2a7.75,7.75,0,0,0,3-4.92C24.1,83,27.61,67,35.73,58.34,35.73,58.26,56.81,87,56.81,87s.08,1.08,2,1.08S61.23,87,61.23,87L76.65,69.15a7.92,7.92,0,0,1,11.15-.83h0a7.93,7.93,0,0,1,.9,11.09L59.2,114.54,55.79,118a17.22,17.22,0,0,1-7,4.32Z"/><path class="cls-2" d="M123.07,52.78,103.83,21.63a9.34,9.34,0,0,0-12.85-3L39.49,50.37a9.35,9.35,0,0,0-3,12.85L55.69,94.38a9.3,9.3,0,0,0,12.12,3.43L77.49,86,65.91,93.17a4.35,4.35,0,0,1-6-1.42L48.57,73.33,108,37.91l10.8,17.5a4.34,4.34,0,0,1-1.41,6L95.52,74.89a12.94,12.94,0,0,1-3,7.75L88,88.08l.11.24-.24-.08-7.52,9a6.27,6.27,0,0,0,11.06-5.92,6.11,6.11,0,0,0,2.27.43,6.25,6.25,0,0,0,5.86-8.48,6,6,0,0,0,1.12.11,6.28,6.28,0,0,0,6.27-6.28,6.18,6.18,0,0,0-.7-2.87L120,65.64A9.36,9.36,0,0,0,123.07,52.78ZM42.55,63.59l-1.84-3a4.35,4.35,0,0,1,1.41-6L93.6,22.84a4.31,4.31,0,0,1,2.28-.64,4.36,4.36,0,0,1,3.7,2.05l2.54,4.13Z"/></g></g></svg>