<svg xmlns="http://www.w3.org/2000/svg" viewBox="0 0 302.74 306.08"><defs><style>.cls-1{fill:#5cb5dd;}.cls-2{fill:#e6b63b;}.cls-3{fill:#da9034;}</style></defs><title>Asset 35b</title><g id="Layer_2" data-name="Layer 2"><g id="layout"><path class="cls-1" d="M-.18,105H51.05a102.64,102.64,0,0,1-21.29,58.84A138.16,138.16,0,0,0-5.79,150.63,225.71,225.71,0,0,0-.18,105Z" transform="translate(205)"/><path class="cls-1" d="M-104.2,105.12A226.59,226.59,0,0,0-98.74,150c-12.51,3-24.61,6.57-35.79,12.64-10.27-9.24-21.68-40.82-20.67-57.51Z" transform="translate(205)"/><path class="cls-1" d="M-155.47,96.85c1.14-21.52,7.91-40.83,21-58.12,5.25,3.7,11.12,6.06,17,8.44S-105.4,51.11-99,53a228.07,228.07,0,0,0-5.17,43.82Z" transform="translate(205)"/><path class="cls-1" d="M-5.21,54.2c13-3,25.35-6.71,36.84-12.88,10.3,11.35,20.31,40.44,19.16,55.74H-.14A227.91,227.91,0,0,0-5.21,54.2Z" transform="translate(205)"/><path class="cls-1" d="M-8,104.84c0,15.11-2.08,29.44-5.39,44.06a263.59,263.59,0,0,0-35-3.49V133.8q0-13,0-25.94c0-1.62-.1-3.06,2.28-3C-33.61,104.88-21.07,104.84-8,104.84Z" transform="translate(205)"/><path class="cls-1" d="M-56,145.38a259.69,259.69,0,0,0-35,3.15,194.42,194.42,0,0,1-5.38-43.21,6.27,6.27,0,0,1,1.5-.44q18.12,0,36.25,0c1.34,0,2.68-.08,2.68,1.89C-56,119.5-56,132.26-56,145.38Z" transform="translate(205)"/><path class="cls-1" d="M-96.37,97.28a192.49,192.49,0,0,1,5.08-42.59A244,244,0,0,0-56,58.52V69q0,12.62,0,25.23c0,1.58.19,3.1-2.23,3.09C-70.73,97.25-83.27,97.28-96.37,97.28Z" transform="translate(205)"/><path class="cls-1" d="M-47.64,58.51a227.08,227.08,0,0,0,34.71-2.95A189.59,189.59,0,0,1-8,96.49c-1,1.06-2,.78-2.89.78-11.38,0-22.77-.06-34.15.07-2.63,0-3.48-.69-3.44-3.39.14-10.79,0-21.58.07-32.37A3.86,3.86,0,0,1-47.64,58.51Z" transform="translate(205)"/><path class="cls-1" d="M26.86,35.16A128.31,128.31,0,0,1-6.86,46.59C-12.38,29.37-18.71,12.7-32.85.34-18.78-1.24,16.74,19.47,26.86,35.16Z" transform="translate(205)"/><path class="cls-1" d="M-14.74,48.2c-4.69.58-8.79,1.06-12.89,1.6-6.71.89-13.46.76-20.5,1.06V1.64c1.59-.69,2.92.33,4.27.9a30.5,30.5,0,0,1,11.12,8.69C-23.69,21.82-18.8,34.44-14.74,48.2Z" transform="translate(205)"/><path class="cls-1" d="M-89.59,47.17C-82.78,28.41-77,9.74-56.31.43V50.62C-67.3,50.67-78.12,49.24-89.59,47.17Z" transform="translate(205)"/><path class="cls-1" d="M-129.52,33.09C-119.18,18.29-88.26.62-71.2,0c-14,12.29-20.5,28.45-25.95,45.42A120.8,120.8,0,0,1-129.52,33.09Z" transform="translate(205)"/><path class="cls-1" d="M-88.89,156.11c10.79-2.17,21.53-2.57,32.6-3v47.7c-4.33-.54-7.61-2.79-10.71-5.35-6.26-5.16-10.51-11.85-14.1-19A101.25,101.25,0,0,1-88.89,156.11Z" transform="translate(205)"/><path class="cls-1" d="M-48.08,153.14c10.88.41,21.58,1.09,32.14,3.29-4.47,20.13-18.63,42.59-32.14,44.28Z" transform="translate(205)"/><path class="cls-1" d="M-129.87,168.82a130.3,130.3,0,0,1,32.94-11.27C-91.47,174.1-85.1,190-71.45,201.84-87.36,201.17-115,187.24-129.87,168.82Z" transform="translate(205)"/><path class="cls-1" d="M-7.64,158.11A124.78,124.78,0,0,1,24.78,170C8.92,187.17-9.95,198-32.67,202.14-19.52,190.16-13,174.5-7.64,158.11Z" transform="translate(205)"/><circle class="cls-2" cx="76.69" cy="186.97" r="76.69"/><circle class="cls-3" cx="76.69" cy="186.97" r="60.37"/><path class="cls-2" d="M-115.23,226.31a40.77,40.77,0,0,1-13.35,2.13,40.71,40.71,0,0,1-14.27-2.64l5.27-14.3,3.53-9.59,3.64-10.58s1.24-3.47,1.26-3.49l.17-.38a1,1,0,0,0,.11-.17l.12-.13a.38.38,0,0,1,.13,0h.09l.08.06.15.3.34,1,.7,2,2.49,7.6,2.17,6.72,3.39,10.26,2.61,7.25Z" transform="translate(205)"/><path class="cls-2" d="M-87,187.22a41.44,41.44,0,0,1-12.75,29.69l0,0-5.08-7.66-3.34-5.7-3.36-6.62-2.81-5.81-2.22-5.3-1.87-5.25-1.72-5.13-1.85-5.81-1.81-6.11-1.62-6.06-1.81-6.73-1-3.38-2,6.4-2.72,9-2.17,6.81-2.58,7.58-2.15,6.21-2.46,6L-145,195l-3.05,6.07-9.15,15.55h0v0a.93.93,0,0,0-.21-.19,41.45,41.45,0,0,1-12.17-29.69,41.4,41.4,0,0,1,41.53-41.21A41.4,41.4,0,0,1-87,187.22Z" transform="translate(205)"/><polygon class="cls-2" points="47.78 216.59 56.95 201.06 47.8 216.61 47.78 216.61 47.78 216.59"/><polygon class="cls-2" points="105.23 216.91 105.23 216.93 105.21 216.93 100.13 209.27 105.23 216.91"/><circle class="cls-2" cx="226.05" cy="186.97" r="76.69"/><circle class="cls-3" cx="226.05" cy="186.97" r="60.37"/><path class="cls-2" d="M34.13,226.31a41.28,41.28,0,0,1-27.62-.51l5.27-14.3,3.54-9.59L19,191.33s1.23-3.47,1.25-3.49l.17-.38a.62.62,0,0,0,.11-.17l.13-.13a.28.28,0,0,1,.12,0h.09l.08.06.15.3.34,1,.7,2,2.49,7.6,2.17,6.72,3.39,10.26,2.62,7.25Z" transform="translate(205)"/><path class="cls-2" d="M62.34,187.22A41.47,41.47,0,0,1,49.6,216.91l0,0-5.08-7.66-3.34-5.7L37.79,197,35,191.14l-2.21-5.3-1.88-5.25-1.72-5.13-1.85-5.81-1.81-6.11-1.62-6.06-1.81-6.73-1-3.38-2,6.4-2.72,9-2.17,6.81-2.58,7.58-2.14,6.21-2.47,6L4.36,195l-3,6.07-9.15,15.55h0v0a.93.93,0,0,0-.21-.19A41.53,41.53,0,0,1,21.3,145.5,41.4,41.4,0,0,1,62.34,187.22Z" transform="translate(205)"/><polygon class="cls-2" points="197.15 216.59 206.32 201.06 197.17 216.61 197.15 216.61 197.15 216.59"/><polygon class="cls-2" points="254.6 216.91 254.6 216.93 254.57 216.93 249.49 209.27 254.6 216.91"/><circle class="cls-2" cx="150.69" cy="229.39" r="76.69"/><circle class="cls-3" cx="150.69" cy="229.39" r="60.37"/><path class="cls-2" d="M-41.23,268.73a40.77,40.77,0,0,1-13.35,2.13,40.71,40.71,0,0,1-14.27-2.64l5.27-14.3,3.53-9.59,3.64-10.58s1.24-3.47,1.26-3.49l.17-.38a1,1,0,0,0,.11-.17l.12-.13a.38.38,0,0,1,.13,0h.09l.08.06.15.3.34,1,.7,2,2.49,7.6,2.17,6.72,3.39,10.26,2.61,7.25Z" transform="translate(205)"/><path class="cls-2" d="M-13,229.64a41.44,41.44,0,0,1-12.75,29.69l0,0-5.08-7.66-3.34-5.7-3.36-6.62-2.81-5.81-2.22-5.3L-44.47,223l-1.72-5.12L-48,212.07-49.85,206l-1.62-6.06-1.81-6.73-1-3.38-2,6.4-2.72,9L-61.17,212l-2.58,7.58-2.15,6.21-2.46,6L-71,237.41l-3,6.06L-83.2,259h0v0a.93.93,0,0,0-.21-.19A41.45,41.45,0,0,1-95.6,229.13a41.4,41.4,0,0,1,41.53-41.21A41.4,41.4,0,0,1-13,229.64Z" transform="translate(205)"/><polygon class="cls-2" points="121.78 259.01 130.95 243.47 121.8 259.03 121.78 259.03 121.78 259.01"/><polygon class="cls-2" points="179.24 259.33 179.24 259.35 179.21 259.35 174.13 251.69 179.24 259.33"/></g></g></svg>