<svg xmlns="http://www.w3.org/2000/svg" viewBox="0 0 301.27 301.27"><defs><style>.cls-1{fill:#fcfcfc;}</style></defs><title>Asset 41b</title><g id="Layer_2" data-name="Layer 2"><g id="layout"><rect class="cls-1" width="301.27" height="301.27" rx="42.99" ry="42.99"/><path d="M184.82,253.36A107.66,107.66,0,0,1,150,259,109.3,109.3,0,0,1,112.66,252l13.78-37.37,9.21-25L145.22,162s3.19-9,3.19-9.09l.48-1a2.54,2.54,0,0,0,.3-.42l.24-.3.12-.12a.36.36,0,0,1,.24-.06H150l.24.18.43.78.84,2.65,1.86,5.23,6.5,19.92,5.66,17.52,8.85,26.78L181.27,243Z"/><path d="M258.48,151.3a108.21,108.21,0,0,1-33.28,77.57l-13.3-20L203.17,194l-8.84-17.28L187,161.53l-5.83-13.9-4.88-13.72-4.45-13.42L167,105.38l-4.69-16L158,73.54,153.34,56l-2.64-8.78-5.18,16.73-7.1,23.41-5.72,17.75L126,124.88l-5.6,16.25L114,156.71l-6.92,14.87-7.94,15.83L75.17,228l-.54-.54a108.2,108.2,0,0,1-31.84-77.52c.36-59.82,49-108,108.51-107.6S258.84,91.48,258.48,151.3Z"/></g></g></svg>