<svg xmlns="http://www.w3.org/2000/svg" xmlns:xlink="http://www.w3.org/1999/xlink" viewBox="0 0 142.66 142.66"><defs><style>.cls-1{fill:url(#linear-gradient);}.cls-2{fill:#fff;}</style><linearGradient id="linear-gradient" x1="71.33" y1="142.66" x2="71.33" gradientUnits="userSpaceOnUse"><stop offset="0" stop-color="#6c208c"/><stop offset="1" stop-color="#f8297f"/></linearGradient></defs><title>Asset 15b</title><g id="Layer_2" data-name="Layer 2"><g id="layout"><rect class="cls-1" width="142.66" height="142.66" rx="20.36" ry="20.36"/><path class="cls-2" d="M87.4,107c-.24-3,.16-7.26-.41-10.2-.63-3.26-3-5.54-3.77-8.71a17.34,17.34,0,0,1-.36-7.34L81.31,79a31.05,31.05,0,0,0,7.93-12.32c.23-.63.49-1.45,1-1.75,4.82-2.93,4.57-7.6,4.07-12.2a5.36,5.36,0,0,0-2.13-3.19c-1.29-1-1.27-2-1.05-3.31a26.09,26.09,0,0,0,.43-3.75c.06-2.92,0-5.84,0-8.76h-.06a42.33,42.33,0,0,1,0-4.78,3.32,3.32,0,0,0-1.73-3.44,38.32,38.32,0,0,0-22-6.92,40.41,40.41,0,0,0-23.51,6.61,3.07,3.07,0,0,0-1.54,3c.08,5-.06,9.92,0,14.88a14.55,14.55,0,0,0,.42,3c.34,1.46.35,2.61-1.15,3.62A4.46,4.46,0,0,0,40,52.51a24,24,0,0,0,.4,7.72c.44,1.67,2.16,3,3.29,4.47a8.41,8.41,0,0,1,1.36,1.94,32,32,0,0,0,8.11,12.48l-3.49,5c-2,.83-9,3-11.62,3.78a17.33,17.33,0,0,0-2,.72,29.13,29.13,0,0,0-10,7.32,14.38,14.38,0,0,0-3.48,9.49v9.84a9.92,9.92,0,0,0,9.92,9.93h3.76c-.3-.3,56.24,0,56.24,0l.54-1.29c-.24-.27-.49-.55-.75-.88C88.5,118.29,87.89,113.37,87.4,107ZM59.57,26.32h5.56v-5.7h3.93v5.56h5.73v3.88h-5.6v5.69H65.28V30.21H59.57ZM47.3,64.2c-.24-.71-1-1.23-1.6-1.8-.17-.17-.47-.19-.68-.33C42.5,60.51,41.63,54.49,43.68,52c.69,1.74,1.13,3.71,3.74,3.6.12-2.17.23-4.36.39-6.54.09-1.2.21-2.4.39-3.6.59-4.15,2-5.46,6.22-5.62a3.77,3.77,0,0,1,1.82.47c1.8,1,3.58,1.94,5.29,3,3.63,2.33,7.12,2.39,10.71,0,.8-.53,1.55-1.11,2.32-1.68,3.12-2.35,6.33-1.71,8.34,1.69,1.82,3.05,2.24,6.45,2.45,9.9,0,.75,0,1.51,0,2.4,3.05.3,3.93-1.79,5.3-4.42a8.86,8.86,0,0,1,.68,1.53c.48,2.85.7,5.68-1,8.28-.21.31-.48.72-.79.8-2.33.57-2.57,2.61-3.27,4.39C84.16,71.67,81,76.39,75.85,79.44a17.14,17.14,0,0,1-20.93-2.63A30.38,30.38,0,0,1,47.3,64.2ZM68.66,95.77v26.34h-3V95.7L53.15,85.35s1.85-2.8,2.78-4A19.86,19.86,0,0,0,76.4,82.43a24.59,24.59,0,0,0,2.18-1.3l2.86,4.37Z"/><path class="cls-2" d="M124.34,88.11c-.76,3.17-3,5.29-3.66,8.55-.56,2.93-.34,6.82-.57,9.83-.49,6.35-1,11.8-4.84,16.51-1.33,1.65-2.12,2.89-2.85,1.74-1.29-2-.58-6.9-1-9.4-.26-1.59-.38-11.65-5.57-11.86h0a1.09,1.09,0,0,0-.18,0,1,1,0,0,0-.17,0h0c-5.79-.11-6,10.45-6.22,12-.41,2.51-.06,6.85-1,9.06-.45,1.1-1.56.07-2.89-1.58-3.79-4.71-4.4-9.63-4.89-16-.23-3,.16-7.26-.41-10.19-.63-3.26-3-5.55-3.77-8.72C83.74,77,90.35,73.94,92.76,73a9.73,9.73,0,0,1,7.63.39c1.55.73,3.08,2.19,4.78,2.29h0v0h.34v0h0c1.7-.1,3.23-1.56,4.78-2.29A9.72,9.72,0,0,1,118,73C120.37,73.94,127,77,124.34,88.11Z"/></g></g></svg>