<svg xmlns="http://www.w3.org/2000/svg" xmlns:xlink="http://www.w3.org/1999/xlink" viewBox="0 0 142.66 142.66"><defs><style>.cls-1{fill:url(#linear-gradient);}.cls-2{fill:#faf9f6;}</style><linearGradient id="linear-gradient" x1="71.33" y1="142.66" x2="71.33" gradientUnits="userSpaceOnUse"><stop offset="0" stop-color="#3a2a6f"/><stop offset="1" stop-color="#8a1f8d"/></linearGradient></defs><title>Asset 14b</title><g id="Layer_2" data-name="Layer 2"><g id="layout"><rect class="cls-1" width="142.66" height="142.66" rx="20.36" ry="20.36"/><path class="cls-2" d="M112.56,77.46a.3.3,0,0,0,0,.18c-.29.63-.62,1.26-1,1.89a.2.2,0,0,1-.22.15H60.52c-14.45,0-28.9,0-43.35,0h-.48a.17.17,0,0,1-.15-.15s0-.07,0-.11V77.57c0-.07.11-.15.15-.15H64.41a.2.2,0,0,1,.22.22,6.44,6.44,0,0,1,0,.78,0,0,0,0,0,0,0s.07,0,.11,0,0-.07.08-.11a5.23,5.23,0,0,1,.55-.81,3,3,0,0,1,1,0h45.86C112.45,77.42,112.49,77.42,112.56,77.46Z"/><path class="cls-2" d="M59.67,53.18H94.3a.2.2,0,0,1,.19.11s0,.07.07.11c.34.63.67,1.22,1,1.85,0,.11,0,.18-.15.18H72.72a2.76,2.76,0,0,0-.81,0c-.11,0-.19,0-.3,0H25.67a3,3,0,0,1-.62,0c-.08,0-.15-.11-.15-.15v-2a.15.15,0,0,1,.15-.15h.66Q42.74,53.2,59.67,53.18Z"/><path class="cls-2" d="M92.86,50.44s-.11,0-.14,0h-22c-5.22,0-10.39,0-15.6,0-.22,0-.44,0-.63,0s-.44,0-.63,0c-7.13,0-14.3,0-21.43,0H25.6a2.28,2.28,0,0,1-.52,0,.16.16,0,0,1-.15-.15v-2a.14.14,0,0,1,0-.11s0-.07.11-.07a.21.21,0,0,1,.15,0H91.68a.2.2,0,0,1,.22.15l1,1.92S92.86,50.37,92.86,50.44Z"/><path class="cls-2" d="M57.64,45.64H25.78c-1,0-.81.15-.85-.82V43.46c0-.11.08-.15.19-.15H89a.2.2,0,0,1,.18.11l.45.89.55,1.14c0,.08,0,.15-.11.15H89.5c-4.21,0-8.39,0-12.6,0-3.22,0-6.47,0-9.72,0S60.86,45.64,57.64,45.64Z"/><path class="cls-2" d="M56.35,40.61H25.19c-.18,0-.26-.07-.26-.22V38.62a.15.15,0,0,1,0-.12s0-.07.08-.07a.12.12,0,0,1,.11,0H86.32a.38.38,0,0,1,.33.19,6.36,6.36,0,0,0,.37.59c.23.44.48.85.74,1.26,0,0,0,.11-.11.11H70.91C66,40.61,61.19,40.61,56.35,40.61Z"/><path class="cls-2" d="M45.56,92H69.8a4.11,4.11,0,0,0,.7,0A2.42,2.42,0,0,1,71,92h8.1c.15,0,.26,0,.4,0s.12.11.08.15-.15.26-.3.37l-1.14,1.33a.35.35,0,0,0-.08.11c-.48.56-.33.48-1,.48-4.22,0-8.47,0-12.72,0a5.23,5.23,0,0,1-.77,0,2.78,2.78,0,0,0-.59,0c-5.25,0-10.5,0-15.75,0-4.21,0-8.42,0-12.67,0a7.23,7.23,0,0,1-.93,0,2.17,2.17,0,0,0-.51,0c-3.89,0-7.8,0-11.72,0a4.09,4.09,0,0,1-.59,0,.16.16,0,0,1-.15-.15V92.24a.19.19,0,0,1,.22-.22H45.52S45.56,92.06,45.56,92Z"/><path class="cls-2" d="M54,87.29h28.9c.08,0,.11.07.08.11s0,.11-.08.18c-.37.56-.77,1.11-1.14,1.7,0,0,0,.08-.08.12a.68.68,0,0,1-.22.14H25.23a.24.24,0,0,1-.22-.22v-1.7a.21.21,0,0,1,0-.15s0-.07.11-.07.11,0,.14,0h.6C35.21,87.29,44.63,87.29,54,87.29Z"/><path class="cls-2" d="M92.35,67.7h24.54a3,3,0,0,1,.62,0s.11.11.08.15c-.15.29-.3.55-.45.81s-.44.81-.7,1.22a.23.23,0,0,1-.22.15H67.84c-.55,0-.44,0-.55-.48v0c0-.52-.15-1-.22-1.55v-.11s0-.08.07-.11a.21.21,0,0,1,.15,0h.59q12.2-.06,24.47,0Z"/><path class="cls-2" d="M92.6,62.86h26.84a3,3,0,0,1,.62,0s.08,0,0,.07,0,0,0,0c-.33.63-.7,1.22-1,1.81a.38.38,0,0,1-.3.18H66.33c-.3,0-.34,0-.48-.29a10.9,10.9,0,0,0-.78-1.52L65,63s0-.07,0-.11.11,0,.14,0H85.66c2.4,0,4.65,0,6.94,0Z"/><path class="cls-2" d="M49.81,96.9H74.49a.09.09,0,0,1,.08.07s0,0,0,0a.87.87,0,0,1-.22.18c-.81.6-1.66,1.19-2.48,1.78a.62.62,0,0,1-.33.11H25.67c-.88,0-.77.11-.77-.78V97.08a.19.19,0,0,1,.18-.18H49.81Z"/><path class="cls-2" d="M90.28,74.83H66.7c-.11,0-.15-.07-.11-.14a.9.9,0,0,1,.11-.34,4.18,4.18,0,0,0,.22-1.14c0-.11,0-.19,0-.3s.11-.29.37-.29H86.58c.3,0,.63,0,.92,0a3,3,0,0,0,.6,0h26.35a1.3,1.3,0,0,1,.37,0s0,0,.07.07,0,.08,0,.12c-.26.59-.55,1.14-.81,1.77-.07.15-.15.18-.33.18H90.28Z"/><path class="cls-2" d="M31.14,62.79H52.36a.24.24,0,0,1,.22.22v1.7c0,.07,0,.18,0,.22a.28.28,0,0,1-.15.15l-.14,0H10.78c-.89,0-.89,0-.89-.07a2.21,2.21,0,0,1,0-.85,8.34,8.34,0,0,1,0-1,.56.56,0,0,1,0-.22.17.17,0,0,1,.15-.15h7.43C22,62.79,26.56,62.79,31.14,62.79Z"/><path class="cls-2" d="M34.54,84.59H14.7c-.89,0-.78.11-.78-.77v-1.3s0-.11,0-.15,0-.07.07-.07a.14.14,0,0,1,.11,0H54.46a3.08,3.08,0,0,1,.63,0c.08,0,.15.11.15.15s0,0,0,0v1.93c0,.07-.08.18-.15.18a.21.21,0,0,0-.15,0h-.52C47.81,84.59,41.16,84.59,34.54,84.59Z"/><path class="cls-2" d="M43.56,70.07H25.64a3.08,3.08,0,0,1-.59,0c-.08,0-.15-.07-.15-.19v-2a.2.2,0,0,1,.18-.19h37a.16.16,0,0,1,.14.15s0,.08,0,.11v1.89a.14.14,0,0,1,0,.11s0,.07-.11.07a2.74,2.74,0,0,1-.59,0C55.61,70.07,49.59,70.07,43.56,70.07Z"/><path class="cls-2" d="M38.83,72.62H57.12a.15.15,0,0,1,.15.14v1.93a.19.19,0,0,1-.18.18s-.11,0-.15,0H21.2a3.18,3.18,0,0,1-.63,0,.19.19,0,0,1-.18-.18V72.76a.15.15,0,0,1,.15-.14H38.83Z"/><path class="cls-2" d="M78.71,57.94H96.93a.33.33,0,0,1,.29.15c.34.67.67,1.33,1,2a.13.13,0,0,1,0,.11.08.08,0,0,1-.07.07,1.05,1.05,0,0,1-.37,0H63.11a.42.42,0,0,1-.29-.11c-.3-.26-.6-.48-.89-.78l-1.55-1.33a.12.12,0,0,1,0-.11.13.13,0,0,1,.11,0H78.71Z"/><path class="cls-2" d="M65.92,102a3.39,3.39,0,0,1-.48.19c-1.07.29-2.14.55-3.22.85s-2.36.62-3.54,1a2.34,2.34,0,0,1-.45.07H25.12a.18.18,0,0,1-.19-.18v-1.78c0-.11.12-.15.19-.18H65.26A4.65,4.65,0,0,1,65.92,102Z"/><path class="cls-2" d="M40.53,57.94H55.39A3.13,3.13,0,0,1,56,58c.07,0,.15.11.15.15v2a.16.16,0,0,1-.15.15H25.08a.16.16,0,0,1-.15-.15V58.09S25,58,25,58a.13.13,0,0,1,.11,0H40.53Z"/><path class="cls-2" d="M57,84.55s0-.07.11-.07c.45-.18.89-.37,1.37-.55s1.15-.52,1.7-.78a4.14,4.14,0,0,0,1.11-.74.48.48,0,0,1,.37-.15H83.92a8.53,8.53,0,0,1,1,0s.11,0,.15,0,.11.11.08.14a.28.28,0,0,0,0,.19l-.78,1.77a.17.17,0,0,0,0,.11.22.22,0,0,1-.19.12H57.24C57.12,84.59,57.09,84.55,57,84.55Z"/><path class="cls-2" d="M112.56,55.54H101.77a4.16,4.16,0,0,1-.59,0s-.11-.12-.11-.12a3.21,3.21,0,0,0,.18-.37c.34-.59.67-1.18,1-1.77a.37.37,0,0,1,.33-.22h22.06a1.15,1.15,0,0,1,.52,0s.08,0,0,.11a.14.14,0,0,1,0,.11c-.37.7-.7,1.4-1,2.1a0,0,0,0,1,0,0,.2.2,0,0,1-.19.11H112.56Z"/><path class="cls-2" d="M98.55,82.23h10.83a1.51,1.51,0,0,1,.56,0s.07,0,0,.11v0c-.37.74-.7,1.48-1.07,2.22a.38.38,0,0,1-.18.15.58.58,0,0,1-.22,0h-20a.4.4,0,0,1-.37-.22c-.37-.7-.7-1.44-1.07-2.14,0-.11,0-.15.15-.19h.62C91.42,82.23,95,82.23,98.55,82.23Z"/><path class="cls-2" d="M110,60.35H99.22a3.08,3.08,0,0,1-.59,0s-.08,0,0-.07,0,0,0,0c.33-.63.66-1.29,1-1.92a.79.79,0,0,1,.11-.19.34.34,0,0,1,.15-.07,2.28,2.28,0,0,1,.52,0H122a1.29,1.29,0,0,1,.55,0s.07,0,0,.07,0,.11,0,.15c-.33.63-.66,1.29-1,1.92a.29.29,0,0,1-.29.19H110Z"/><path class="cls-2" d="M119,43.31h10.72a3.13,3.13,0,0,1,.59,0s.08,0,0,.07,0,.07,0,.11c-.33.59-.66,1.18-1,1.77,0,0,0,.08-.08.12a.49.49,0,0,1-.44.22H107.09a2.15,2.15,0,0,1-.52,0c-.11,0-.14-.11-.11-.22.34-.63.67-1.29,1-1.92a.33.33,0,0,1,.33-.19h.52C111.9,43.31,115.44,43.31,119,43.31Z"/><path class="cls-2" d="M115.22,50.48H104.47a3.08,3.08,0,0,1-.59,0s-.11-.07-.08-.11c.37-.63.74-1.29,1.11-1.92a.33.33,0,0,1,.33-.19h21.85a1.46,1.46,0,0,1,.55,0s.07,0,0,.11,0,.08,0,.11c-.3.63-.59,1.22-.89,1.81,0,0,0,.08-.07.12a.34.34,0,0,1-.15.07H115.22Z"/><path class="cls-2" d="M120.54,40.61H109.86a1.29,1.29,0,0,1-.55,0s-.11-.11-.07-.14,0-.11.07-.15l.78-1.55a.56.56,0,0,1,.11-.19.2.2,0,0,1,.18-.11h21.88c.7,0,.67,0,.37.56s-.44.88-.7,1.36a1.39,1.39,0,0,1-.11.19s-.11.11-.15.11a2.28,2.28,0,0,1-.52,0h-6.72C123.13,40.61,121.84,40.61,120.54,40.61Z"/><path class="cls-2" d="M98.52,87.14h8.65c.22,0,.29.08.18.26-.3.55-.59,1.15-.89,1.7-.07.11-.14.22-.22.37s-.11.07-.15.11-.07,0-.11,0H91.53c-.77,0-.66.07-1-.63l-.78-1.44a2.26,2.26,0,0,0-.11-.26s0-.07,0-.11.07,0,.11,0h.52C93.08,87.14,95.82,87.14,98.52,87.14Z"/><path class="cls-2" d="M98.55,92.06h6.18c.18,0,.18.11.11.22a1.51,1.51,0,0,0-.22.48c-.26.48-.52,1-.78,1.48a.7.7,0,0,1-.11.18.14.14,0,0,1-.11,0,1.05,1.05,0,0,1-.37,0h-9.5a.2.2,0,0,1-.18-.11s-.08-.12-.12-.15c-.37-.63-.73-1.3-1.1-1.92,0-.08,0-.15-.08-.23l0,0a.13.13,0,0,1,.11,0h.52C94.78,92.06,96.67,92.06,98.55,92.06Z"/><path class="cls-2" d="M98.67,96.86H102a1.23,1.23,0,0,1,.37,0s.08,0,0,.11,0,.11-.07.15c-.3.63-.63,1.25-.93,1.88a.56.56,0,0,1-.11.19s-.11.07-.15.11a.64.64,0,0,1-.22,0h-4.4a.58.58,0,0,1-.22,0s-.11,0-.14-.11-.23-.34-.3-.48c-.3-.52-.55-1-.81-1.56L94.9,97A.08.08,0,0,1,95,96.9c.15,0,.26,0,.41,0Z"/><path class="cls-2" d="M98.59,101.78l1.15,0s.11.11.07.15l-.11.22c-.11.19-.18.37-.3.56-.25.48-.48,1-.77,1.44,0,.11-.15.11-.19,0-.4-.78-.81-1.48-1.22-2.26,0,0,0-.11.11-.11s.19,0,.23,0c.37,0,.7,0,1,0Z"/></g></g></svg>