<svg xmlns="http://www.w3.org/2000/svg" xmlns:xlink="http://www.w3.org/1999/xlink" viewBox="0 0 142.66 142.66"><defs><style>.cls-1{fill:url(#linear-gradient);}.cls-2{fill:#fafcfd;}</style><linearGradient id="linear-gradient" x1="71.33" y1="142.66" x2="71.33" gradientUnits="userSpaceOnUse"><stop offset="0" stop-color="#1f2b75"/><stop offset="1" stop-color="#80c8ea"/></linearGradient></defs><title>Asset 12b</title><g id="Layer_2" data-name="Layer 2"><g id="layout"><rect class="cls-1" width="142.66" height="142.66" rx="20.36" ry="20.36"/><path class="cls-2" d="M71,65.9C65.9,58.77,54.26,55,48.72,63.82c-5.7,9.06,3.61,18.57,9.56,24.61,2,2,7.37,5.3,8.46,7.92.84,2.08-.49,6.54-.79,8.92-.84,7.18-3.76,19.9-13.47,18.76-7.57-.89-10.79-13.12-13.12-19.41C36.93,98.18,35,91.5,32.18,85.21c-2.57-5.74-6.49-10.84-8.52-16.83-3.71-10.7-3.22-24,2.33-34,4.75-8.52,14.56-13.08,24.12-12.78S67.49,27,77.19,24.9c7.28-1.59,14.51-4.51,22-2.92A27.68,27.68,0,0,1,120,42c2.88,10.7,1.24,23.13-3.71,33-2.87,5.69-5.89,10.65-8.17,16.59-2.38,6.09-4.56,12.33-7.08,18.37-2,4.75-4.85,13.32-10.85,14-10.69,1.14-11.78-11.83-13-19-.44-2.53-2.08-7-1.24-9.36C77,92.44,82.64,88.78,85,86.35c5.55-5.65,12.73-13,8.72-21.64-2.62-5.59-10.6-7.77-16.09-5C75,61,73.08,63.77,71,65.9Z"/></g></g></svg>