<?xml version="1.0" encoding="utf-8"?>
<!-- Generator: Adobe Illustrator 22.1.0, SVG Export Plug-In . SVG Version: 6.00 Build 0)  -->
<svg version="1.1" id="Layer_1" xmlns="http://www.w3.org/2000/svg" xmlns:xlink="http://www.w3.org/1999/xlink" x="0px" y="0px"
	 viewBox="0 0 101 16" style="enable-background:new 0 0 101 16;" xml:space="preserve">
<style type="text/css">
	.st0{fill:#FCFCFC;}
</style>
<g id="layout">
	<g>
		<g>
			<path class="st0" d="M2.6,13.5c-0.1,0-0.1-0.1-0.1-0.2v-1.5c0-0.2,0-0.2,0.1-0.3s0.2-0.1,0.3-0.1h1.4c0.7,0,1.3-0.2,1.9-0.5
				c0.6-0.3,1.1-0.8,1.4-1.4c0.3-0.6,0.5-1.2,0.5-1.9S7.9,6.3,7.6,5.7S6.8,4.6,6.2,4.3C5.6,4,5,3.8,4.3,3.8H2.9
				c-0.1,0-0.1,0-0.2,0.1S2.6,4,2.6,4.1v1.1c0,0.1,0,0.2-0.1,0.2S2.3,5.5,2.2,5.5H0.7c-0.1,0-0.2,0-0.2-0.1s0-0.2,0-0.3V2
				c0-0.1,0-0.2,0.1-0.3s0.2-0.1,0.2-0.1h3.5c1.1,0,2.1,0.3,3,0.8S9,3.7,9.5,4.6c0.5,0.9,0.8,1.9,0.8,3s-0.3,2.1-0.8,3
				s-1.3,1.7-2.2,2.2s-1.9,0.8-3,0.8H2.9C2.8,13.5,2.7,13.5,2.6,13.5z"/>
			<path class="st0" d="M12.8,13.5c-0.1-0.1-0.1-0.2-0.1-0.2V1.9c0-0.1,0-0.2,0.1-0.2S13,1.6,13,1.6h7.8c0.1,0,0.2,0,0.2,0.1
				s0.1,0.2,0.1,0.2v1.4c0,0.1,0,0.2-0.1,0.2c-0.1,0.1-0.2,0.1-0.2,0.1h-5.6c-0.1,0-0.2,0-0.2,0.1s-0.1,0.2-0.1,0.2v2.5v0.2
				c0,0.1,0,0.2,0.1,0.2s0.2,0.1,0.3,0.1h4.3c0.1,0,0.2,0,0.2,0.1s0.1,0.2,0.1,0.2v1.4c0,0.1,0,0.2-0.1,0.2s-0.2,0.1-0.2,0.1h-4.3
				c-0.2,0-0.2,0.1-0.3,0.2s-0.1,0.2-0.1,0.3v1.9c0,0.2,0,0.2,0.1,0.3s0.2,0.2,0.4,0.2H21c0.1,0,0.2,0,0.2,0.1s0.1,0.2,0.1,0.2v1.4
				c0,0.1,0,0.2-0.1,0.2S21,13.8,21,13.8h-7.8C13,13.5,12.9,13.5,12.8,13.5z"/>
			<path class="st0" d="M23.9,13.5c-0.1-0.1-0.1-0.1-0.1-0.2V1.8c0-0.1,0-0.2,0.1-0.2C24,1.4,24,1.4,24.1,1.4h1.8
				c0.1,0,0.2,0.1,0.2,0.2l4.1,6.9c0.2,0.2,0.2,0.4,0.3,0.4c0.1,0,0.2-0.2,0.2-0.4V1.7c0-0.1,0-0.2,0.1-0.2c0.1-0.1,0.1-0.1,0.2-0.1
				h1.8c0.1,0,0.2,0,0.2,0.1c0.1,0.1,0.1,0.1,0.1,0.2v11.6c0,0.1,0,0.2-0.1,0.2c-0.1,0.1-0.1,0.1-0.2,0.1h-1.2c-0.2,0-0.4,0-0.5-0.1
				c-0.1,0-0.2-0.2-0.2-0.3l-4.3-6.9c-0.1-0.1-0.2-0.2-0.2-0.2c-0.1,0-0.2,0.1-0.2,0.2v6.9c0,0.1,0,0.2-0.1,0.2
				c-0.1,0.1-0.1,0.1-0.2,0.1h-1.8C24,13.5,24,13.5,23.9,13.5z"/>
			<path class="st0" d="M39.1,13.5C39,13.4,39,13.4,39,13.3V3.9c0-0.1-0.1-0.2-0.2-0.3s-0.2-0.2-0.3-0.2h-2.9c-0.1,0-0.1,0-0.2-0.1
				c0.1,0.1,0.1,0.1,0.1,0V1.6c0-0.1,0-0.1,0.1-0.2c0.1,0,0.1-0.1,0.2-0.1h9.1c0.1,0,0.2,0,0.2,0.1s0.1,0.1,0.1,0.2v1.6
				c0,0.1,0,0.1-0.1,0.2S45,3.6,44.9,3.6H42c-0.2,0-0.2,0.1-0.3,0.2c-0.1,0.1-0.2,0.2-0.2,0.3v9.4c0,0.1,0,0.1-0.1,0.2
				s-0.1,0.1-0.2,0.1L39.1,13.5C39.2,13.6,39.1,13.5,39.1,13.5z"/>
			<path class="st0" d="M53.1,1.8c0-0.1-0.1-0.1-0.2-0.2c-0.1-0.1-0.1-0.1-0.2-0.1h-3.6c-0.1,0-0.1,0-0.2,0.1
				c-0.1,0-0.2,0.1-0.2,0.2l-3,11.6c-0.1,0.1,0,0.1,0,0.2c0,0,0.1,0.1,0.2,0.2h1.7c0.1,0,0.2,0,0.2-0.1c0.1-0.1,0.2-0.2,0.2-0.2
				l0.8-3.2c0-0.1,0.1-0.2,0.2-0.2c0.1-0.1,0.2-0.1,0.3-0.1h3.3c0.2,0,0.2,0,0.3,0.1c0.1,0.1,0.2,0.2,0.2,0.2l0.8,3.2
				c0,0.1,0.1,0.1,0.1,0.2c0.1,0.1,0.2,0.1,0.2,0.1h1.7c0.1,0,0.1,0,0.1-0.2v-0.1L53.1,1.8z M52.2,7.8c-0.1,0.1-0.1,0.1-0.3,0.1V7.8
				h-2.2c-0.1,0-0.2,0-0.2-0.1c-0.1-0.1-0.1-0.2-0.1-0.2V7.3l0.9-3.6c0-0.1,0.1-0.2,0.1-0.2c0.1-0.1,0.2-0.1,0.3-0.1h0.1
				c0.2,0,0.2,0,0.3,0.1c0.1,0.1,0.2,0.2,0.2,0.2l1,3.6C52.3,7.6,52.3,7.8,52.2,7.8z"/>
			<path class="st0" d="M60.4,13c-0.9-0.5-1.7-1.3-2.2-2.3c-0.5-0.9-0.8-2-0.8-3.1s0.3-2.1,0.8-3.1c0.5-0.9,1.3-1.7,2.2-2.3
				c0.9-0.5,2-0.8,3-0.8c0.8,0,1.7,0.2,2.4,0.5c0.8,0.4,1.4,0.8,2.1,1.5C68,3.5,68,3.6,68,3.6c0,0.1-0.1,0.2-0.2,0.2
				c-0.2,0.2-0.5,0.4-0.8,0.6c-0.2,0.2-0.4,0.4-0.5,0.5S66.3,5,66.3,5s-0.2,0-0.2-0.1c-0.4-0.4-0.8-0.7-1.3-0.9s-1-0.3-1.5-0.3
				c-0.7,0-1.4,0.2-1.9,0.5C60.9,4.6,60.3,5,60,5.6c-0.4,0.6-0.5,1.2-0.5,2c0,0.7,0.2,1.4,0.5,2c0.4,0.6,0.8,1.1,1.4,1.4
				c0.5,0.4,1.2,0.5,1.9,0.5c0.5,0,1-0.1,1.4-0.3s0.8-0.5,1.2-0.8c0.2-0.1,0.2-0.2,0.4-0.2s0.2,0,0.3,0.1c0.2,0.1,0.3,0.2,0.5,0.4
				c0.2,0.2,0.4,0.3,0.5,0.5c0.2,0.1,0.2,0.2,0.2,0.4c0,0.1,0,0.2-0.1,0.2c-0.6,0.6-1.2,1.1-2,1.4s-1.6,0.5-2.4,0.5
				C62.3,13.8,61.4,13.5,60.4,13z"/>
			<path class="st0" d="M81.3,4.6c-0.2-0.5-0.6-1-1.1-1.5s-1.1-0.9-1.7-1.1c-0.9-0.4-1.8-0.6-2.8-0.5h-0.1c-1,0-1.8,0.2-2.4,0.6
				c-0.6,0.4-1.3,0.9-1.9,1.6c-0.5,0.6-0.8,1.2-1.1,1.9c-0.2,0.7-0.4,1.4-0.4,2.1c0,0.6,0.1,1.3,0.3,1.9v0.1
				c0.2,0.8,0.7,1.5,1.2,2.1c0.6,0.6,1.3,1.1,2.1,1.5c0.8,0.4,1.6,0.5,2.5,0.5c1.1,0,2-0.2,2.9-0.7c0.5-0.2,0.9-0.5,1.2-0.8
				c0.3-0.3,0.6-0.7,0.9-1.1c0.4-0.5,0.6-1.1,0.8-1.8s0.3-1.3,0.3-1.9C82.1,6.5,81.8,5.5,81.3,4.6z M79.5,9.2
				c-0.1,0.3-0.4,0.6-0.7,1c-0.3,0.3-0.7,0.6-1,1.1c-0.5,0.2-1.1,0.4-1.8,0.4c-1,0-1.8-0.3-2.6-0.9c-0.5-0.4-0.8-0.8-1.1-1.4
				c-0.2-0.5-0.4-1.1-0.4-1.7c0-0.5,0.1-0.9,0.2-1.4c0.2-0.5,0.4-0.8,0.7-1.2l0.3-0.3c0.3-0.4,0.8-0.7,1.2-0.8
				c0.5-0.2,0.9-0.3,1.5-0.3s1.1,0.2,1.7,0.4c0.7,0.3,1.3,0.8,1.7,1.5c0.4,0.7,0.6,1.4,0.6,2.1C79.9,8.1,79.8,8.6,79.5,9.2z"/>
			<path class="st0" d="M85,13.5c-0.1-0.1-0.1-0.2-0.1-0.2V1.9c0-0.1,0-0.2,0.1-0.2s0.2-0.1,0.2-0.1H87c0.1,0,0.2,0,0.2,0.1
				s0.1,0.2,0.1,0.2v11.5c0,0.1,0,0.2-0.1,0.2S87,13.7,87,13.7h-1.8C85.2,13.6,85.1,13.5,85,13.5z"/>
			<path class="st0" d="M91,13.5c-0.1-0.1-0.1-0.1-0.1-0.2V1.8c0-0.1,0-0.2,0.1-0.2s0.1-0.1,0.2-0.1H93c0.1,0,0.2,0.1,0.2,0.2
				l4.1,6.9c0.2,0.2,0.2,0.4,0.3,0.4s0.2-0.2,0.2-0.4V1.7c0-0.1,0-0.2,0.1-0.2c0.1-0.1,0.1-0.1,0.2-0.1h1.8c0.1,0,0.2,0,0.2,0.1
				c0.1,0.1,0.1,0.1,0.1,0.2v11.6c0,0.1,0,0.2-0.1,0.2c-0.1,0.1-0.1,0.1-0.2,0.1h-1.4c-0.2,0-0.4,0-0.5-0.1c-0.1,0-0.2-0.2-0.2-0.3
				l-4.3-6.9c-0.1-0.1-0.2-0.2-0.2-0.2c-0.1,0-0.2,0.1-0.2,0.2v6.9c0,0.1,0,0.2-0.1,0.2c-0.1,0.1-0.1,0.1-0.2,0.1H91
				C91,13.5,91,13.5,91,13.5z"/>
		</g>
		<g>
			<g>
				<path class="st0" d="M-17.9,24.3c-1.8,0.6-3.8,0.9-5.8,0.9c-2.2,0-4.3-0.4-6.2-1.2l2.3-6.2l1.5-4.2l1.6-4.6c0,0,0.1-0.4,0.3-0.8
					l0.1-0.4V7.7l0.1-0.2l0.1-0.2V7.2l0,0l0,0l0,0l0,0l0,0l0,0l0.1,0.1l0.1,0.4l0.3,0.9l1.1,3.3l0.9,2.9l1.5,4.5l1.1,3.1L-17.9,24.3
					z"/>
				<path class="st0" d="M-5.7,7.4c0,5.1-2.2,9.6-5.5,12.9l-0.9-1.3l-1.3-2l-1.5-2.5l-1.5-2.9L-17.5,9l-1-2.3l-0.8-2.3L-20,2.2
					l-0.8-2.5l-0.8-2.6l-0.7-2.6l-0.8-2.9l-0.4-1.5l-0.9,2.8l-1.2,3.9l-1,3l-1.1,3.3l-0.9,2.7l-1.1,2.4l-1.2,2.5l-1.3,2.6l-4,6.8
					l-0.1-0.1c-3.2-3.3-5.2-7.9-5.2-12.9c0.1-9.9,8.1-18,18-17.9S-5.6-2.6-5.7,7.4z"/>
			</g>
			<path class="st0" d="M-24,7.6l0.1-0.2L-24,7.6c0,0,0,0.1-0.1,0.2L-24,7.6z"/>
			<path class="st0" d="M-23.8,7.4L-23.8,7.4L-23.8,7.4z"/>
			<path class="st0" d="M-23.6-9.9l0.5,1.5L-23.6-9.9z"/>
			<polygon class="st0" points="-21.6,-2.9 -20.9,-0.2 -21.7,-2.9 -22.3,-5.6 -23.1,-8.4 -22.3,-5.6 			"/>
			<polygon class="st0" points="-18.5,6.8 -17.5,9 -18.5,6.8 -19.3,4.4 -20,2.2 -19.3,4.4 			"/>
			<polygon class="st0" points="-12.1,19 -13.4,17 -14.9,14.5 -16.3,11.5 -17.5,9 -16.3,11.5 -14.8,14.5 -13.4,17 			"/>
		</g>
	</g>
</g>
<g id="Layer_2_1_">
</g>
<g id="Layer_3">
</g>
<g id="Layer_4">
</g>
<g id="Layer_5">
</g>
<g id="Layer_6">
</g>
<g id="Layer_7">
</g>
<g id="Layer_8">
</g>
<g id="Layer_9">
</g>
<g id="Layer_10">
</g>
</svg>
