<?xml version="1.0" encoding="utf-8"?>
<!-- Generator: Adobe Illustrator 22.1.0, SVG Export Plug-In . SVG Version: 6.00 Build 0)  -->
<svg version="1.1" xmlns="http://www.w3.org/2000/svg" xmlns:xlink="http://www.w3.org/1999/xlink" x="0px" y="0px"
	 viewBox="0 0 117.401 55.767" enable-background="new 0 0 117.401 55.767" xml:space="preserve">
<g id="layout">
	<g>
		<g>
			<path d="M2.515,55.408c-0.09-0.09-0.09-0.18-0.09-0.269v-1.797c0-0.18,0-0.269,0.09-0.359c0.09-0.09,0.18-0.09,0.359-0.09h1.617
				c0.808,0,1.527-0.18,2.246-0.629c0.719-0.359,1.258-0.898,1.617-1.617c0.359-0.719,0.629-1.437,0.629-2.246
				s-0.18-1.527-0.629-2.246c-0.359-0.719-0.898-1.258-1.617-1.617C6.018,44.18,5.3,43.91,4.491,43.91H2.874
				c-0.09,0-0.09,0-0.18,0.09c-0.09,0.09-0.09,0.09-0.09,0.18v1.258c0,0.09,0,0.18-0.09,0.269c-0.09,0.09-0.18,0.09-0.359,0.09
				H0.359c-0.09,0-0.18,0-0.269-0.09C0,45.617,0,45.527,0,45.437v-3.683c0-0.09,0-0.269,0.09-0.359s0.18-0.09,0.269-0.09h4.132
				c1.258,0,2.515,0.359,3.593,0.988c1.078,0.629,1.976,1.527,2.605,2.605c0.629,1.078,0.988,2.246,0.988,3.593
				c0,1.258-0.359,2.515-0.988,3.593c-0.629,1.078-1.527,1.976-2.605,2.605s-2.246,0.988-3.593,0.988H2.874
				C2.695,55.498,2.605,55.498,2.515,55.408z"/>
			<path d="M14.552,55.408c-0.09-0.09-0.09-0.18-0.09-0.269V41.665c0-0.09,0-0.18,0.09-0.269c0.09-0.09,0.18-0.09,0.269-0.09h9.162
				c0.09,0,0.18,0,0.269,0.09s0.09,0.18,0.09,0.269v1.707c0,0.09,0,0.18-0.09,0.269c-0.09,0.09-0.18,0.09-0.269,0.09h-6.557
				c-0.09,0-0.18,0-0.269,0.09s-0.09,0.18-0.09,0.269v2.964v0.18c0,0.09,0,0.18,0.09,0.269c0.09,0.09,0.18,0.09,0.359,0.09h5.12
				c0.09,0,0.18,0,0.269,0.09c0.09,0.09,0.09,0.18,0.09,0.269v1.707c0,0.09,0,0.18-0.09,0.269c-0.09,0.09-0.18,0.09-0.269,0.09
				h-5.12c-0.18,0-0.269,0.09-0.359,0.18c-0.09,0.09-0.09,0.18-0.09,0.359v2.156c0,0.18,0,0.269,0.09,0.359
				c0.09,0.09,0.269,0.18,0.449,0.18h6.557c0.09,0,0.18,0,0.269,0.09s0.09,0.18,0.09,0.269v1.707c0,0.09,0,0.18-0.09,0.269
				c-0.09,0.09-0.18,0.09-0.269,0.09h-9.252C14.731,55.498,14.641,55.408,14.552,55.408z"/>
			<path d="M27.666,55.408c-0.09-0.09-0.09-0.09-0.09-0.18V41.575c0-0.09,0-0.18,0.09-0.18c0.09-0.09,0.09-0.09,0.18-0.09h2.066
				c0.09,0,0.18,0.09,0.18,0.18l4.851,8.174c0.18,0.269,0.269,0.449,0.359,0.449c0.09,0,0.18-0.18,0.18-0.449v-7.994
				c0-0.09,0-0.18,0.09-0.18c0.09-0.09,0.09-0.09,0.18-0.09h2.156c0.09,0,0.18,0,0.18,0.09c0.09,0.09,0.09,0.09,0.09,0.18v13.653
				c0,0.09,0,0.18-0.09,0.18c-0.09,0.09-0.09,0.09-0.18,0.09h-1.437c-0.269,0-0.449,0-0.539-0.09c-0.09,0-0.18-0.18-0.269-0.359
				l-5.12-8.174c-0.09-0.09-0.18-0.18-0.18-0.18c-0.09,0-0.18,0.09-0.18,0.269v8.174c0,0.09,0,0.18-0.09,0.18
				c-0.09,0.09-0.09,0.09-0.18,0.09h-2.066C27.756,55.498,27.756,55.498,27.666,55.408z"/>
			<path d="M45.631,55.498c-0.09-0.09-0.09-0.09-0.09-0.18V44.27c0-0.09-0.09-0.269-0.18-0.359c-0.09-0.09-0.18-0.18-0.359-0.18
				h-3.413c-0.09,0-0.09,0-0.18-0.09c-0.09-0.09-0.09-0.09-0.09-0.18v-1.976c0-0.09,0-0.09,0.09-0.18c0.09,0,0.09-0.09,0.18-0.09
				h10.779c0.09,0,0.18,0,0.18,0.09s0.09,0.09,0.09,0.18v1.886c0,0.09,0,0.09-0.09,0.18c-0.09,0.09-0.09,0.09-0.18,0.09h-3.413
				c-0.18,0-0.269,0.09-0.359,0.18c-0.09,0.09-0.18,0.18-0.18,0.359v11.138c0,0.09,0,0.09-0.09,0.18c-0.09,0.09-0.09,0.09-0.18,0.09
				h-2.425L45.631,55.498z"/>
			<path d="M53.356,55.498c0-0.09-0.09-0.09,0-0.18l3.593-13.743c0-0.09,0.09-0.18,0.18-0.18c0.09-0.09,0.18-0.09,0.269-0.09h4.222
				c0.09,0,0.18,0,0.269,0.09c0.09,0.09,0.18,0.09,0.18,0.18l3.593,13.743v0.09c0,0.18-0.09,0.18-0.18,0.18h-1.976
				c-0.09,0-0.18,0-0.269-0.09c-0.09-0.09-0.18-0.09-0.18-0.18l-0.988-3.773c0-0.09-0.09-0.18-0.18-0.269
				c-0.09-0.09-0.18-0.09-0.359-0.09h-3.952c-0.09,0-0.269,0-0.359,0.09c-0.09,0.09-0.18,0.18-0.18,0.269l-0.988,3.773
				c0,0.09-0.09,0.18-0.18,0.269c-0.09,0.09-0.18,0.09-0.269,0.09h-1.976C53.446,55.588,53.356,55.498,53.356,55.498z
				 M60.722,48.851c0.18,0,0.269-0.09,0.359-0.18c0.09-0.09,0.09-0.18,0.09-0.359l-1.168-4.222c0-0.09-0.09-0.18-0.18-0.269
				c-0.09-0.09-0.18-0.09-0.359-0.09h-0.09c-0.09,0-0.269,0-0.359,0.09c-0.09,0.09-0.18,0.18-0.18,0.269l-1.078,4.222v0.09
				c0,0.09,0,0.18,0.09,0.269c0.09,0.09,0.18,0.09,0.269,0.09h2.605V48.851z"/>
			<path d="M70.692,54.779c-1.078-0.629-1.976-1.527-2.605-2.695c-0.629-1.078-0.988-2.335-0.988-3.683
				c0-1.347,0.359-2.515,0.988-3.683c0.629-1.078,1.527-1.976,2.605-2.695c1.078-0.629,2.335-0.988,3.593-0.988
				c0.988,0,1.976,0.18,2.874,0.629c0.898,0.449,1.707,0.988,2.425,1.796c0.09,0.09,0.09,0.18,0.09,0.269
				c0,0.09-0.09,0.18-0.18,0.269c-0.269,0.269-0.539,0.449-0.898,0.719c-0.269,0.269-0.449,0.449-0.629,0.539
				c-0.09,0.09-0.18,0.09-0.269,0.09c-0.09,0-0.18,0-0.269-0.09c-0.449-0.449-0.898-0.808-1.527-1.078
				c-0.539-0.269-1.168-0.359-1.797-0.359c-0.808,0-1.617,0.18-2.246,0.629c-0.629,0.449-1.258,0.988-1.617,1.707
				c-0.449,0.719-0.629,1.437-0.629,2.335c0,0.808,0.18,1.617,0.629,2.335c0.449,0.719,0.988,1.258,1.617,1.707
				c0.629,0.449,1.437,0.629,2.246,0.629c0.629,0,1.168-0.09,1.707-0.359c0.539-0.269,0.988-0.539,1.437-0.988
				c0.18-0.09,0.269-0.18,0.449-0.18c0.18,0,0.269,0,0.359,0.09c0.18,0.09,0.359,0.269,0.539,0.449
				c0.269,0.18,0.449,0.359,0.629,0.539c0.18,0.09,0.18,0.269,0.18,0.449c0,0.09,0,0.18-0.09,0.269
				c-0.719,0.719-1.437,1.258-2.335,1.707c-0.898,0.359-1.886,0.629-2.874,0.629C73.028,55.767,71.86,55.408,70.692,54.779z"/>
			<path d="M83.627,53.342c-0.629-0.719-1.168-1.617-1.437-2.515v-0.09c-0.269-0.719-0.359-1.527-0.359-2.246
				c0-0.808,0.18-1.707,0.449-2.515c0.269-0.808,0.719-1.527,1.258-2.246c0.719-0.808,1.527-1.437,2.246-1.886
				c0.808-0.449,1.707-0.719,2.874-0.719h0.09c1.168-0.09,2.246,0.18,3.324,0.629c0.719,0.269,1.347,0.719,1.976,1.347
				c0.629,0.539,1.078,1.168,1.347,1.707c0.629,1.078,0.988,2.335,0.988,3.593c0,0.719-0.09,1.527-0.359,2.246
				c-0.269,0.719-0.539,1.437-0.988,2.066c-0.359,0.449-0.719,0.898-1.078,1.258c-0.359,0.359-0.898,0.719-1.437,0.988
				c-1.078,0.539-2.156,0.808-3.413,0.808c-1.078,0-1.976-0.18-2.964-0.629C85.154,54.689,84.346,54.061,83.627,53.342z
				 M92.52,51.546c0.359-0.449,0.629-0.808,0.808-1.168c0.269-0.629,0.449-1.258,0.449-1.886c0-0.898-0.269-1.707-0.719-2.515
				c-0.449-0.808-1.168-1.347-1.976-1.707c-0.629-0.269-1.258-0.449-1.976-0.449c-0.629,0-1.168,0.09-1.707,0.359
				c-0.539,0.18-1.078,0.539-1.437,0.988l-0.359,0.359c-0.359,0.449-0.629,0.898-0.808,1.437c-0.18,0.539-0.269,1.078-0.269,1.617
				c0,0.719,0.18,1.347,0.449,1.976c0.269,0.629,0.719,1.168,1.258,1.617c0.898,0.719,1.886,1.078,3.054,1.078
				c0.719,0,1.437-0.18,2.066-0.449C91.711,52.264,92.16,51.905,92.52,51.546z"/>
			<path d="M99.796,55.408c-0.09-0.09-0.09-0.18-0.09-0.269V41.665c0-0.09,0-0.18,0.09-0.269c0.09-0.09,0.18-0.09,0.269-0.09h2.156
				c0.09,0,0.18,0,0.269,0.09c0.09,0.09,0.09,0.18,0.09,0.269v13.564c0,0.09,0,0.18-0.09,0.269c-0.09,0.09-0.18,0.09-0.269,0.09
				h-2.156C99.975,55.588,99.885,55.498,99.796,55.408z"/>
			<path d="M106.802,55.408c-0.09-0.09-0.09-0.09-0.09-0.18V41.575c0-0.09,0-0.18,0.09-0.18s0.09-0.09,0.18-0.09h2.066
				c0.09,0,0.18,0.09,0.269,0.18l4.851,8.174c0.18,0.269,0.269,0.449,0.359,0.449c0.09,0,0.18-0.18,0.18-0.449v-7.994
				c0-0.09,0-0.18,0.09-0.18c0.09-0.09,0.09-0.09,0.18-0.09h2.156c0.09,0,0.18,0,0.18,0.09c0.09,0.09,0.09,0.09,0.09,0.18v13.653
				c0,0.09,0,0.18-0.09,0.18c-0.09,0.09-0.09,0.09-0.18,0.09h-1.437c-0.269,0-0.449,0-0.539-0.09c-0.09,0-0.18-0.18-0.269-0.359
				l-5.12-8.174c-0.09-0.09-0.18-0.18-0.18-0.18c-0.09,0-0.18,0.09-0.18,0.269v8.174c0,0.09,0,0.18-0.09,0.18
				c-0.09,0.09-0.09,0.09-0.18,0.09h-2.066C106.892,55.498,106.892,55.498,106.802,55.408z"/>
		</g>
		<g>
			<g>
				<path d="M63.912,33.574l-1.143-3.167l-1.479-4.485l-0.946-2.931l-1.091-3.324l-0.309-0.879l-0.145-0.446l-0.071-0.131
					l-0.037-0.027l-0.039-0.005c-0.019,0-0.033,0.007-0.049,0.018l-0.018,0.018l-0.039,0.044c-0.014,0.021-0.042,0.062-0.048,0.074
					l-0.078,0.164c-0.002,0.004-0.541,1.522-0.541,1.522l-1.597,4.623l-1.538,4.19l-2.31,6.246c1.943,0.735,4.044,1.145,6.241,1.158
					c2.038,0.013,3.997-0.319,5.828-0.934L63.912,33.574z"/>
				<path d="M58.902,0C48.939-0.062,40.813,8,40.75,18.007c-0.032,5.064,2.008,9.656,5.322,12.965
					c0.031,0.031,0.063,0.059,0.094,0.09l4.004-6.792l1.331-2.646l1.153-2.488l1.074-2.606l0.936-2.715l1.124-3.315l0.956-2.97
					l1.188-3.915l0.866-2.8l0.44,1.475l0.789,2.938l0.71,2.649l0.789,2.675l0.815,2.531l0.749,2.243l0.815,2.295l0.973,2.321
					l1.222,2.538l1.472,2.892l1.459,2.492l2.227,3.343c3.403-3.272,5.537-7.868,5.569-12.974C76.889,8.225,68.864,0.063,58.902,0z"
					/>
			</g>
			<path fill="#FFFFFF" d="M50.171,24.269l-4.007,6.797c0.004,0.003,1.622,2.245,6.269,4.016l2.311-6.249l1.538-4.19l1.597-4.623
				c0,0,0.539-1.518,0.541-1.522l0.078-0.164c0.006-0.012,0.034-0.054,0.048-0.074l0.039-0.044l0.018-0.018
				c0.015-0.011,0.03-0.018,0.049-0.018l0.039,0.005l0.037,0.027l0.071,0.131l0.145,0.446l0.309,0.879l1.091,3.324l0.946,2.931
				l1.479,4.485l1.143,3.167l0.593,1.735c0,0,3.646-1.014,6.755-4.1l-2.229-3.346l-1.459-2.492L66.1,22.479l-1.222-2.538
				l-0.973-2.321l-0.815-2.295l-0.749-2.243l-0.815-2.531l-0.789-2.675l-0.71-2.649L59.239,2.29l-0.44-1.475l-0.866,2.8
				l-1.188,3.915l-0.956,2.97l-1.124,3.315l-0.936,2.715l-1.074,2.606l-1.153,2.488L50.171,24.269z"/>
		</g>
	</g>
</g>
<g id="Layer_2">
</g>
<g id="Layer_3">
</g>
<g id="Layer_4">
</g>
<g id="Layer_5">
</g>
<g id="Layer_6">
</g>
<g id="Layer_7">
</g>
<g id="Layer_8">
</g>
<g id="Layer_9">
</g>
<g id="Layer_10">
</g>
</svg>
