<?xml version="1.0" encoding="utf-8"?>
<!-- Generator: Adobe Illustrator 22.1.0, SVG Export Plug-In . SVG Version: 6.00 Build 0)  -->
<svg version="1.1" id="Layer_1" xmlns="http://www.w3.org/2000/svg" xmlns:xlink="http://www.w3.org/1999/xlink" x="0px" y="0px"
	 viewBox="0 0 141.4 36" style="enable-background:new 0 0 141.4 36;" xml:space="preserve">
<g id="layout">
	<g>
		<g>
			<path d="M44.1,24.2C44,24.2,44,24.1,44,24v-1.5c0-0.2,0-0.2,0.1-0.3s0.2-0.1,0.3-0.1h1.4c0.7,0,1.3-0.2,1.9-0.5
				c0.6-0.3,1.1-0.8,1.4-1.4c0.3-0.6,0.5-1.2,0.5-1.9s-0.2-1.3-0.5-1.9s-0.8-1.1-1.4-1.4c-0.6-0.3-1.2-0.5-1.9-0.5h-1.4
				c-0.1,0-0.1,0-0.2,0.1s-0.1,0.1-0.1,0.2v1.1c0,0.1,0,0.2-0.1,0.2s-0.2,0.1-0.3,0.1h-1.5c-0.1,0-0.2,0-0.2-0.1s0-0.2,0-0.3v-3.1
				c0-0.1,0-0.2,0.1-0.3s0.2-0.1,0.2-0.1h3.5c1.1,0,2.1,0.3,3,0.8s1.7,1.3,2.2,2.2c0.5,0.9,0.8,1.9,0.8,3c0,1.1-0.3,2.1-0.8,3
				s-1.3,1.7-2.2,2.2s-1.9,0.8-3,0.8h-1.4C44.3,24.3,44.2,24.3,44.1,24.2z"/>
			<path d="M54.3,24.2c-0.1-0.1-0.1-0.2-0.1-0.2V12.6c0-0.1,0-0.2,0.1-0.2s0.2-0.1,0.2-0.1h7.8c0.1,0,0.2,0,0.2,0.1s0.1,0.2,0.1,0.2
				V14c0,0.1,0,0.2-0.1,0.2c-0.1,0.1-0.2,0.1-0.2,0.1h-5.6c-0.1,0-0.2,0-0.2,0.1s-0.1,0.2-0.1,0.2v2.5v0.2c0,0.1,0,0.2,0.1,0.2
				s0.2,0.1,0.3,0.1h4.3c0.1,0,0.2,0,0.2,0.1s0.1,0.2,0.1,0.2v1.4c0,0.1,0,0.2-0.1,0.2s-0.2,0.1-0.2,0.1h-4.3
				c-0.2,0-0.2,0.1-0.3,0.2s-0.1,0.2-0.1,0.3V22c0,0.2,0,0.2,0.1,0.3s0.2,0.2,0.4,0.2h5.6c0.1,0,0.2,0,0.2,0.1s0.1,0.2,0.1,0.2v1.4
				c0,0.1,0,0.2-0.1,0.2s-0.2,0.1-0.2,0.1h-7.8C54.5,24.3,54.4,24.2,54.3,24.2z"/>
			<path d="M65.4,24.2c-0.1-0.1-0.1-0.1-0.1-0.2V12.5c0-0.1,0-0.2,0.1-0.2c0.1-0.1,0.1-0.1,0.2-0.1h1.8c0.1,0,0.2,0.1,0.2,0.2
				l4.1,6.9c0.2,0.2,0.2,0.4,0.3,0.4c0.1,0,0.2-0.2,0.2-0.4v-6.8c0-0.1,0-0.2,0.1-0.2c0.1-0.1,0.1-0.1,0.2-0.1h1.8
				c0.1,0,0.2,0,0.2,0.1c0.1,0.1,0.1,0.1,0.1,0.2v11.6c0,0.1,0,0.2-0.1,0.2c-0.1,0.1-0.1,0.1-0.2,0.1h-1.2c-0.2,0-0.4,0-0.5-0.1
				c-0.1,0-0.2-0.2-0.2-0.3l-4.3-6.9c-0.1-0.1-0.2-0.2-0.2-0.2c-0.1,0-0.2,0.1-0.2,0.2V24c0,0.1,0,0.2-0.1,0.2
				c-0.1,0.1-0.1,0.1-0.2,0.1h-1.8C65.5,24.3,65.5,24.3,65.4,24.2z"/>
			<path d="M80.6,24.3c-0.1-0.1-0.1-0.1-0.1-0.2v-9.4c0-0.1-0.1-0.2-0.2-0.3s-0.2-0.2-0.3-0.2h-2.9c-0.1,0-0.1,0-0.2-0.1
				c0.1,0.1,0.1,0.1,0.1,0v-1.7c0-0.1,0-0.1,0.1-0.2c0.1,0,0.1-0.1,0.2-0.1h9.1c0.1,0,0.2,0,0.2,0.1s0.1,0.1,0.1,0.2V14
				c0,0.1,0,0.1-0.1,0.2s-0.1,0.1-0.2,0.1h-2.9c-0.2,0-0.2,0.1-0.3,0.2c-0.1,0.1-0.2,0.2-0.2,0.3v9.4c0,0.1,0,0.1-0.1,0.2
				s-0.1,0.1-0.2,0.1L80.6,24.3C80.7,24.4,80.6,24.3,80.6,24.3z"/>
			<path d="M94.6,12.5c0-0.1-0.1-0.1-0.2-0.2c-0.1-0.1-0.1-0.1-0.2-0.1h-3.6c-0.1,0-0.1,0-0.2,0.1c-0.1,0-0.2,0.1-0.2,0.2l-3,11.6
				c-0.1,0.1,0,0.1,0,0.2c0,0,0.1,0.1,0.2,0.2h1.7c0.1,0,0.2,0,0.2-0.1c0.1-0.1,0.2-0.2,0.2-0.2l0.8-3.2c0-0.1,0.1-0.2,0.2-0.2
				c0.1-0.1,0.2-0.1,0.3-0.1h3.3c0.2,0,0.2,0,0.3,0.1c0.1,0.1,0.2,0.2,0.2,0.2l0.8,3.2c0,0.1,0.1,0.1,0.1,0.2
				c0.1,0.1,0.2,0.1,0.2,0.1h1.7c0.1,0,0.1,0,0.1-0.2v-0.1L94.6,12.5z M93.7,18.5c-0.1,0.1-0.1,0.1-0.3,0.1v-0.1h-2.2
				c-0.1,0-0.2,0-0.2-0.1c-0.1-0.1-0.1-0.2-0.1-0.2v-0.1l0.9-3.6c0-0.1,0.1-0.2,0.1-0.2c0.1-0.1,0.2-0.1,0.3-0.1h0.1
				c0.2,0,0.2,0,0.3,0.1c0.1,0.1,0.2,0.2,0.2,0.2l1,3.6C93.8,18.4,93.8,18.5,93.7,18.5z"/>
			<path d="M101.9,23.7c-0.9-0.5-1.7-1.3-2.2-2.3c-0.5-0.9-0.8-2-0.8-3.1s0.3-2.1,0.8-3.1c0.5-0.9,1.3-1.7,2.2-2.3
				c0.9-0.5,2-0.8,3-0.8c0.8,0,1.7,0.2,2.4,0.5c0.8,0.4,1.4,0.8,2.1,1.5c0.1,0.1,0.1,0.2,0.1,0.2c0,0.1-0.1,0.2-0.2,0.2
				c-0.2,0.2-0.5,0.4-0.8,0.6c-0.2,0.2-0.4,0.4-0.5,0.5s-0.2,0.1-0.2,0.1s-0.2,0-0.2-0.1c-0.4-0.4-0.8-0.7-1.3-0.9s-1-0.3-1.5-0.3
				c-0.7,0-1.4,0.2-1.9,0.5c-0.5,0.4-1.1,0.8-1.4,1.4c-0.4,0.6-0.5,1.2-0.5,2c0,0.7,0.2,1.4,0.5,2c0.4,0.6,0.8,1.1,1.4,1.4
				c0.5,0.4,1.2,0.5,1.9,0.5c0.5,0,1-0.1,1.4-0.3s0.8-0.5,1.2-0.8c0.2-0.1,0.2-0.2,0.4-0.2s0.2,0,0.3,0.1c0.2,0.1,0.3,0.2,0.5,0.4
				c0.2,0.2,0.4,0.3,0.5,0.5c0.2,0.1,0.2,0.2,0.2,0.4c0,0.1,0,0.2-0.1,0.2c-0.6,0.6-1.2,1.1-2,1.4s-1.6,0.5-2.4,0.5
				C103.8,24.5,102.9,24.2,101.9,23.7z"/>
			<path d="M122.8,15.3c-0.2-0.5-0.6-1-1.1-1.5s-1.1-0.9-1.7-1.1c-0.9-0.4-1.8-0.6-2.8-0.5h-0.1c-1,0-1.8,0.2-2.4,0.6
				c-0.6,0.4-1.3,0.9-1.9,1.6c-0.5,0.6-0.8,1.2-1.1,1.9c-0.2,0.7-0.4,1.4-0.4,2.1c0,0.6,0.1,1.3,0.3,1.9v0.1
				c0.2,0.8,0.7,1.5,1.2,2.1c0.6,0.6,1.3,1.1,2.1,1.5c0.8,0.4,1.6,0.5,2.5,0.5c1.1,0,2-0.2,2.9-0.7c0.5-0.2,0.9-0.5,1.2-0.8
				c0.3-0.3,0.6-0.7,0.9-1.1c0.4-0.5,0.6-1.1,0.8-1.8s0.3-1.3,0.3-1.9C123.6,17.2,123.3,16.2,122.8,15.3z M121,20
				c-0.1,0.3-0.4,0.6-0.7,1c-0.3,0.3-0.7,0.6-1,1.1c-0.5,0.2-1.1,0.4-1.8,0.4c-1,0-1.8-0.3-2.6-0.9c-0.5-0.4-0.8-0.8-1.1-1.4
				c-0.2-0.5-0.4-1.1-0.4-1.7c0-0.5,0.1-0.9,0.2-1.4c0.2-0.5,0.4-0.8,0.7-1.2l0.3-0.3c0.3-0.4,0.8-0.7,1.2-0.8
				c0.5-0.2,0.9-0.3,1.5-0.3s1.1,0.2,1.7,0.4c0.7,0.3,1.3,0.8,1.7,1.5c0.4,0.7,0.6,1.4,0.6,2.1C121.4,18.9,121.3,19.4,121,20z"/>
			<path d="M126.5,24.2c-0.1-0.1-0.1-0.2-0.1-0.2V12.6c0-0.1,0-0.2,0.1-0.2s0.2-0.1,0.2-0.1h1.8c0.1,0,0.2,0,0.2,0.1
				s0.1,0.2,0.1,0.2v11.5c0,0.1,0,0.2-0.1,0.2s-0.2,0.1-0.2,0.1h-1.8C126.7,24.4,126.6,24.3,126.5,24.2z"/>
			<path d="M132.5,24.2c-0.1-0.1-0.1-0.1-0.1-0.2V12.5c0-0.1,0-0.2,0.1-0.2s0.1-0.1,0.2-0.1h1.8c0.1,0,0.2,0.1,0.2,0.2l4.1,6.9
				c0.2,0.2,0.2,0.4,0.3,0.4s0.2-0.2,0.2-0.4v-6.8c0-0.1,0-0.2,0.1-0.2c0.1-0.1,0.1-0.1,0.2-0.1h1.8c0.1,0,0.2,0,0.2,0.1
				c0.1,0.1,0.1,0.1,0.1,0.2v11.6c0,0.1,0,0.2-0.1,0.2c-0.1,0.1-0.1,0.1-0.2,0.1H140c-0.2,0-0.4,0-0.5-0.1c-0.1,0-0.2-0.2-0.2-0.3
				l-4.3-6.9c-0.1-0.1-0.2-0.2-0.2-0.2c-0.1,0-0.2,0.1-0.2,0.2V24c0,0.1,0,0.2-0.1,0.2c-0.1,0.1-0.1,0.1-0.2,0.1h-1.8
				C132.5,24.3,132.5,24.3,132.5,24.2z"/>
		</g>
		<g>
			<g>
				<path d="M23.6,35.1c-1.8,0.6-3.8,0.9-5.8,0.9c-2.2,0-4.3-0.4-6.2-1.2l2.3-6.2l1.5-4.2l1.6-4.6c0,0,0.1-0.4,0.3-0.8l0.1-0.4v-0.1
					l0.1-0.2l0.1-0.2V18l0,0l0,0l0,0l0,0l0,0l0,0l0.1,0.1l0.1,0.4l0.3,0.9l1.1,3.3l0.9,2.9l1.5,4.5l1.1,3.1L23.6,35.1z"/>
				<path d="M35.8,18.1c0,5.1-2.2,9.6-5.5,12.9l-0.9-1.3l-1.3-2l-1.5-2.5l-1.5-2.9L24,19.8l-1-2.3l-0.8-2.3L21.5,13l-0.8-2.5
					l-0.8-2.6l-0.7-2.6l-0.8-2.9L18,0.9l-0.9,2.8l-1.2,3.9l-1,3l-1.1,3.3l-0.9,2.7L11.8,19l-1.2,2.5l-1.3,2.6l-4,6.8l-0.1-0.1
					C2,27.5,0,22.9,0,17.9C0.1,8,8.1-0.1,18,0S35.9,8.2,35.8,18.1z"/>
			</g>
			<path d="M17.5,18.4l0.1-0.2L17.5,18.4c0,0,0,0.1-0.1,0.2L17.5,18.4z"/>
			<path d="M17.7,18.1L17.7,18.1L17.7,18.1z"/>
			<path d="M17.9,0.8l0.5,1.5L17.9,0.8z"/>
			<polygon points="19.9,7.8 20.6,10.5 19.8,7.8 19.2,5.2 18.4,2.3 19.2,5.2 			"/>
			<polygon points="23,17.5 24,19.8 23,17.5 22.2,15.2 21.5,13 22.2,15.2 			"/>
			<polygon points="29.4,29.7 28.1,27.7 26.6,25.2 25.2,22.3 24,19.8 25.2,22.3 26.7,25.2 28.1,27.7 			"/>
		</g>
	</g>
</g>
<g id="Layer_2_1_">
</g>
<g id="Layer_3">
</g>
<g id="Layer_4">
</g>
<g id="Layer_5">
</g>
<g id="Layer_6">
</g>
<g id="Layer_7">
</g>
<g id="Layer_8">
</g>
<g id="Layer_9">
</g>
<g id="Layer_10">
</g>
</svg>
