<?xml version="1.0" encoding="utf-8"?>
<!-- Generator: Adobe Illustrator 22.1.0, SVG Export Plug-In . SVG Version: 6.00 Build 0)  -->
<svg version="1.1" id="Layer_1" xmlns="http://www.w3.org/2000/svg" xmlns:xlink="http://www.w3.org/1999/xlink" x="0px" y="0px"
	 viewBox="0 0 117.4 55.8" style="enable-background:new 0 0 117.4 55.8;" xml:space="preserve">
<style type="text/css">
	.st0{fill:#3F3F3F;}
</style>
<g id="layout">
	<g>
		<g>
			<path class="st0" d="M2.5,55.4c-0.1-0.1-0.1-0.2-0.1-0.3v-1.8c0-0.2,0-0.3,0.1-0.4s0.2-0.1,0.4-0.1h1.6c0.8,0,1.5-0.2,2.2-0.6
				c0.7-0.4,1.3-0.9,1.6-1.6C8.7,49.9,9,49.2,9,48.4s-0.2-1.5-0.6-2.2c-0.4-0.7-0.9-1.3-1.6-1.6c-0.7-0.4-1.4-0.6-2.2-0.6H2.9
				c-0.1,0-0.1,0-0.2,0.1c-0.1,0.1-0.1,0.1-0.1,0.2v1.3c0,0.1,0,0.2-0.1,0.3c-0.1,0.1-0.2,0.1-0.4,0.1H0.4c-0.1,0-0.2,0-0.3-0.1
				C0,45.6,0,45.5,0,45.4v-3.7c0-0.1,0-0.3,0.1-0.4s0.2-0.1,0.3-0.1h4.1c1.3,0,2.5,0.4,3.6,1c1.1,0.6,2,1.5,2.6,2.6s1,2.2,1,3.6
				c0,1.3-0.4,2.5-1,3.6s-1.5,2-2.6,2.6s-2.2,1-3.6,1H2.9C2.7,55.5,2.6,55.5,2.5,55.4z"/>
			<path class="st0" d="M14.6,55.4c-0.1-0.1-0.1-0.2-0.1-0.3V41.7c0-0.1,0-0.2,0.1-0.3c0.1-0.1,0.2-0.1,0.3-0.1H24
				c0.1,0,0.2,0,0.3,0.1s0.1,0.2,0.1,0.3v1.7c0,0.1,0,0.2-0.1,0.3c-0.1,0.1-0.2,0.1-0.3,0.1h-6.6c-0.1,0-0.2,0-0.3,0.1
				s-0.1,0.2-0.1,0.3v3v0.2c0,0.1,0,0.2,0.1,0.3c0.1,0.1,0.2,0.1,0.4,0.1h5.1c0.1,0,0.2,0,0.3,0.1C23,47.8,23,47.9,23,48v1.7
				c0,0.1,0,0.2-0.1,0.3C22.8,50,22.7,50,22.6,50h-5.1c-0.2,0-0.3,0.1-0.4,0.2s-0.1,0.2-0.1,0.4v2.2c0,0.2,0,0.3,0.1,0.4
				s0.3,0.2,0.4,0.2h6.6c0.1,0,0.2,0,0.3,0.1s0.1,0.2,0.1,0.3v1.7c0,0.1,0,0.2-0.1,0.3c-0.1,0.1-0.2,0.1-0.3,0.1h-9.3
				C14.7,55.5,14.6,55.4,14.6,55.4z"/>
			<path class="st0" d="M27.7,55.4c-0.1-0.1-0.1-0.1-0.1-0.2V41.6c0-0.1,0-0.2,0.1-0.2c0.1-0.1,0.1-0.1,0.2-0.1h2.1
				c0.1,0,0.2,0.1,0.2,0.2l4.9,8.2c0.2,0.3,0.3,0.4,0.4,0.4s0.2-0.2,0.2-0.4v-8c0-0.1,0-0.2,0.1-0.2c0.1-0.1,0.1-0.1,0.2-0.1h2.2
				c0.1,0,0.2,0,0.2,0.1c0.1,0.1,0.1,0.1,0.1,0.2v13.7c0,0.1,0,0.2-0.1,0.2c-0.1,0.1-0.1,0.1-0.2,0.1h-1.4c-0.3,0-0.4,0-0.5-0.1
				c-0.1,0-0.2-0.2-0.3-0.4L30.5,47c-0.1-0.1-0.2-0.2-0.2-0.2c-0.1,0-0.2,0.1-0.2,0.3v8.2c0,0.1,0,0.2-0.1,0.2
				c-0.1,0.1-0.1,0.1-0.2,0.1h-2.1C27.8,55.5,27.8,55.5,27.7,55.4z"/>
			<path class="st0" d="M45.6,55.5c-0.1-0.1-0.1-0.1-0.1-0.2v-11c0-0.1-0.1-0.3-0.2-0.4s-0.2-0.2-0.4-0.2h-3.4c-0.1,0-0.1,0-0.2-0.1
				s-0.1-0.1-0.1-0.2v-2c0-0.1,0-0.1,0.1-0.2c0.1,0,0.1-0.1,0.2-0.1h10.8c0.1,0,0.2,0,0.2,0.1s0.1,0.1,0.1,0.2v1.9
				c0,0.1,0,0.1-0.1,0.2s-0.1,0.1-0.2,0.1H49c-0.2,0-0.3,0.1-0.4,0.2s-0.2,0.2-0.2,0.4v11.1c0,0.1,0,0.1-0.1,0.2s-0.1,0.1-0.2,0.1
				L45.6,55.5L45.6,55.5z"/>
			<path class="st0" d="M62.1,41.6c0-0.1-0.1-0.1-0.2-0.2c-0.1-0.1-0.2-0.1-0.3-0.1h-4.2c-0.1,0-0.2,0-0.3,0.1
				c-0.1,0-0.2,0.1-0.2,0.2l-3.6,13.7c-0.1,0.1,0,0.1,0,0.2c0,0,0.1,0.1,0.3,0.2h2c0.1,0,0.2,0,0.3-0.1c0.1-0.1,0.2-0.2,0.2-0.3
				l1-3.8c0-0.1,0.1-0.2,0.2-0.3c0.1-0.1,0.3-0.1,0.4-0.1h4c0.2,0,0.3,0,0.4,0.1c0.1,0.1,0.2,0.2,0.2,0.3l1,3.8
				c0,0.1,0.1,0.1,0.2,0.2c0.1,0.1,0.2,0.1,0.3,0.1h2c0.1,0,0.2,0,0.2-0.2v-0.1L62.1,41.6z M61.1,48.7c-0.1,0.1-0.2,0.2-0.4,0.2
				v-0.1h-2.6c-0.1,0-0.2,0-0.3-0.1c-0.1-0.1-0.1-0.2-0.1-0.3v-0.1l1.1-4.2c0-0.1,0.1-0.2,0.2-0.3c0.1-0.1,0.3-0.1,0.4-0.1h0.1
				c0.2,0,0.3,0,0.4,0.1c0.1,0.1,0.2,0.2,0.2,0.3l1.2,4.2C61.2,48.5,61.2,48.6,61.1,48.7z"/>
			<path class="st0" d="M70.7,54.8c-1.1-0.6-2-1.5-2.6-2.7c-0.6-1.1-1-2.3-1-3.7c0-1.3,0.4-2.5,1-3.7c0.6-1.1,1.5-2,2.6-2.7
				c1.1-0.6,2.3-1,3.6-1c1,0,2,0.2,2.9,0.6s1.7,1,2.4,1.8c0.1,0.1,0.1,0.2,0.1,0.3c0,0.1-0.1,0.2-0.2,0.3c-0.3,0.3-0.5,0.4-0.9,0.7
				c-0.3,0.3-0.4,0.4-0.6,0.5c-0.1,0.1-0.2,0.1-0.3,0.1c-0.1,0-0.2,0-0.3-0.1c-0.4-0.4-0.9-0.8-1.5-1.1c-0.5-0.3-1.2-0.4-1.8-0.4
				c-0.8,0-1.6,0.2-2.2,0.6c-0.6,0.4-1.3,1-1.6,1.7c-0.4,0.7-0.6,1.4-0.6,2.3c0,0.8,0.2,1.6,0.6,2.3c0.4,0.7,1,1.3,1.6,1.7
				s1.4,0.6,2.2,0.6c0.6,0,1.2-0.1,1.7-0.4s1-0.5,1.4-1c0.2-0.1,0.3-0.2,0.4-0.2s0.3,0,0.4,0.1c0.2,0.1,0.4,0.3,0.5,0.4
				c0.3,0.2,0.4,0.4,0.6,0.5c0.2,0.1,0.2,0.3,0.2,0.4c0,0.1,0,0.2-0.1,0.3c-0.7,0.7-1.4,1.3-2.3,1.7c-0.9,0.4-1.9,0.6-2.9,0.6
				C73,55.8,71.9,55.4,70.7,54.8z"/>
			<path class="st0" d="M95.4,44.8c-0.3-0.5-0.7-1.2-1.3-1.7c-0.6-0.6-1.3-1.1-2-1.4c-1.1-0.4-2.2-0.7-3.3-0.6h-0.1
				c-1.2,0-2.1,0.3-2.9,0.7c-0.7,0.5-1.5,1.1-2.2,1.9c-0.5,0.7-1,1.4-1.3,2.2c-0.3,0.8-0.5,1.7-0.5,2.5c0,0.7,0.1,1.5,0.4,2.2v0.1
				c0.3,0.9,0.8,1.8,1.4,2.5c0.7,0.7,1.5,1.3,2.5,1.8s1.9,0.6,3,0.6c1.2,0,2.3-0.3,3.4-0.8c0.5-0.3,1.1-0.6,1.4-1
				c0.4-0.4,0.7-0.8,1.1-1.3c0.4-0.6,0.7-1.3,1-2.1c0.3-0.7,0.4-1.5,0.4-2.2C96.4,47.1,96,45.9,95.4,44.8z M93.3,50.4
				c-0.2,0.4-0.5,0.7-0.8,1.2c-0.4,0.3-0.8,0.7-1.2,1.2c-0.6,0.3-1.3,0.4-2.1,0.4c-1.2,0-2.2-0.4-3.1-1.1c-0.5-0.4-1-1-1.3-1.6
				c-0.3-0.6-0.4-1.3-0.4-2c0-0.5,0.1-1.1,0.3-1.6s0.5-1,0.8-1.4l0.4-0.4c0.4-0.5,0.9-0.8,1.4-1c0.5-0.3,1.1-0.4,1.7-0.4
				c0.7,0,1.3,0.2,2,0.5c0.8,0.4,1.5,0.9,2,1.7c0.5,0.8,0.7,1.6,0.7,2.5C93.8,49.1,93.6,49.7,93.3,50.4z"/>
			<path class="st0" d="M99.8,55.4c-0.1-0.1-0.1-0.2-0.1-0.3V41.7c0-0.1,0-0.2,0.1-0.3c0.1-0.1,0.2-0.1,0.3-0.1h2.2
				c0.1,0,0.2,0,0.3,0.1c0.1,0.1,0.1,0.2,0.1,0.3v13.6c0,0.1,0,0.2-0.1,0.3c-0.1,0.1-0.2,0.1-0.3,0.1h-2.2
				C100,55.6,99.9,55.5,99.8,55.4z"/>
			<path class="st0" d="M106.8,55.4c-0.1-0.1-0.1-0.1-0.1-0.2V41.6c0-0.1,0-0.2,0.1-0.2s0.1-0.1,0.2-0.1h2.1c0.1,0,0.2,0.1,0.3,0.2
				l4.9,8.2c0.2,0.3,0.3,0.4,0.4,0.4c0.1,0,0.2-0.2,0.2-0.4v-8c0-0.1,0-0.2,0.1-0.2c0.1-0.1,0.1-0.1,0.2-0.1h2.2
				c0.1,0,0.2,0,0.2,0.1c0.1,0.1,0.1,0.1,0.1,0.2v13.7c0,0.1,0,0.2-0.1,0.2c-0.1,0.1-0.1,0.1-0.2,0.1h-1.4c-0.3,0-0.4,0-0.5-0.1
				c-0.1,0-0.2-0.2-0.3-0.4l-5.1-8.2c-0.1-0.1-0.2-0.2-0.2-0.2c-0.1,0-0.2,0.1-0.2,0.3v8.2c0,0.1,0,0.2-0.1,0.2
				c-0.1,0.1-0.1,0.1-0.2,0.1h-2.1C106.9,55.5,106.9,55.5,106.8,55.4z"/>
		</g>
		<g>
			<g>
				<path class="st0" d="M64.5,35.3c-1.8,0.6-3.8,0.9-5.8,0.9c-2.2,0-4.3-0.4-6.2-1.2l2.3-6.2l1.5-4.2l1.6-4.6l0.5-1.5l0.1-0.2
					c0,0,0,0,0-0.1l0,0h0l0,0c0,0,0,0,0.1,0h0l0,0l0.1,0.1l0.1,0.5l0.3,0.9l1.1,3.3l0.9,2.9l1.5,4.5l1.1,3.2L64.5,35.3z"/>
				<path class="st0" d="M76.8,18.2c0,5.1-2.2,9.7-5.6,13L69,27.9l-1.5-2.5l-1.5-2.9l-1.2-2.5l-1-2.3l-0.6-1.7l-0.2-0.6l-0.8-2.2
					l-0.8-2.5l-0.8-2.7L60,5.2l-0.8-2.9l-0.4-1.5l-0.9,2.8l-1.2,3.9l-1,3l-1.1,3.3l-0.9,2.7l-1.1,2.6l-1.2,2.5l-1.3,2.6l-4,6.8
					c0,0-0.1-0.1-0.1-0.1c-3.3-3.3-5.4-7.9-5.3-13C40.8,8,48.9-0.1,58.9,0C68.9,0.1,76.9,8.2,76.8,18.2z"/>
			</g>
			<polygon class="st0" points="58.6,18.2 58.5,18.3 58.6,18.2 			"/>
		</g>
	</g>
</g>
<g id="Layer_2_1_">
</g>
<g id="Layer_3">
</g>
<g id="Layer_4">
</g>
<g id="Layer_5">
</g>
<g id="Layer_6">
</g>
<g id="Layer_7">
</g>
<g id="Layer_8">
</g>
<g id="Layer_9">
</g>
<g id="Layer_10">
</g>
</svg>
