<?xml version="1.0" encoding="utf-8"?>
<!-- Generator: Adobe Illustrator 22.1.0, SVG Export Plug-In . SVG Version: 6.00 Build 0)  -->
<svg version="1.1" xmlns="http://www.w3.org/2000/svg" xmlns:xlink="http://www.w3.org/1999/xlink" x="0px" y="0px"
	 viewBox="0 0 141.428 36" enable-background="new 0 0 141.428 36" xml:space="preserve">
<g id="layout">
	<g>
		<g>
			<path d="M44.118,24.234c-0.076-0.076-0.076-0.152-0.076-0.228v-1.522c0-0.152,0-0.228,0.076-0.304s0.152-0.076,0.304-0.076h1.369
				c0.685,0,1.293-0.152,1.902-0.533c0.609-0.304,1.065-0.761,1.37-1.37c0.304-0.609,0.533-1.217,0.533-1.902
				c0-0.685-0.152-1.293-0.533-1.902c-0.304-0.609-0.761-1.065-1.37-1.37c-0.609-0.304-1.217-0.533-1.902-0.533h-1.369
				c-0.076,0-0.076,0-0.152,0.076c-0.076,0.076-0.076,0.076-0.076,0.152v1.065c0,0.076,0,0.152-0.076,0.228
				c-0.076,0.076-0.152,0.076-0.304,0.076h-1.522c-0.076,0-0.152,0-0.228-0.076c-0.076-0.076-0.076-0.152-0.076-0.228V12.67
				c0-0.076,0-0.228,0.076-0.304c0.076-0.076,0.152-0.076,0.228-0.076h3.5c1.065,0,2.13,0.304,3.043,0.837
				c0.913,0.533,1.674,1.293,2.206,2.206c0.533,0.913,0.837,1.902,0.837,3.043c0,1.065-0.304,2.13-0.837,3.043
				c-0.533,0.913-1.293,1.674-2.206,2.206s-1.902,0.837-3.043,0.837h-1.369C44.27,24.311,44.194,24.311,44.118,24.234z"/>
			<path d="M54.313,24.234c-0.076-0.076-0.076-0.152-0.076-0.228V12.594c0-0.076,0-0.152,0.076-0.228s0.152-0.076,0.228-0.076h7.76
				c0.076,0,0.152,0,0.228,0.076c0.076,0.076,0.076,0.152,0.076,0.228v1.446c0,0.076,0,0.152-0.076,0.228
				c-0.076,0.076-0.152,0.076-0.228,0.076h-5.554c-0.076,0-0.152,0-0.228,0.076c-0.076,0.076-0.076,0.152-0.076,0.228v2.511v0.152
				c0,0.076,0,0.152,0.076,0.228c0.076,0.076,0.152,0.076,0.304,0.076h4.337c0.076,0,0.152,0,0.228,0.076s0.076,0.152,0.076,0.228
				v1.446c0,0.076,0,0.152-0.076,0.228c-0.076,0.076-0.152,0.076-0.228,0.076h-4.337c-0.152,0-0.228,0.076-0.304,0.152
				c-0.076,0.076-0.076,0.152-0.076,0.304v1.826c0,0.152,0,0.228,0.076,0.304s0.228,0.152,0.38,0.152h5.554
				c0.076,0,0.152,0,0.228,0.076s0.076,0.152,0.076,0.228v1.446c0,0.076,0,0.152-0.076,0.228c-0.076,0.076-0.152,0.076-0.228,0.076
				h-7.837C54.465,24.311,54.389,24.234,54.313,24.234z"/>
			<path d="M65.421,24.234c-0.076-0.076-0.076-0.076-0.076-0.152V12.518c0-0.076,0-0.152,0.076-0.152
				c0.076-0.076,0.076-0.076,0.152-0.076h1.75c0.076,0,0.152,0.076,0.152,0.152l4.108,6.924c0.152,0.228,0.228,0.38,0.304,0.38
				c0.076,0,0.152-0.152,0.152-0.38v-6.771c0-0.076,0-0.152,0.076-0.152c0.076-0.076,0.076-0.076,0.152-0.076h1.826
				c0.076,0,0.152,0,0.152,0.076c0.076,0.076,0.076,0.076,0.076,0.152v11.565c0,0.076,0,0.152-0.076,0.152
				c-0.076,0.076-0.076,0.076-0.152,0.076h-1.217c-0.228,0-0.38,0-0.456-0.076c-0.076,0-0.152-0.152-0.228-0.304l-4.337-6.924
				c-0.076-0.076-0.152-0.152-0.152-0.152c-0.076,0-0.152,0.076-0.152,0.228v6.924c0,0.076,0,0.152-0.076,0.152
				c-0.076,0.076-0.076,0.076-0.152,0.076h-1.75C65.497,24.311,65.497,24.311,65.421,24.234z"/>
			<path d="M80.638,24.311c-0.076-0.076-0.076-0.076-0.076-0.152V14.8c0-0.076-0.076-0.228-0.152-0.304s-0.152-0.152-0.304-0.152
				h-2.891c-0.076,0-0.076,0-0.152-0.076c-0.076-0.076-0.076-0.076-0.076-0.152v-1.674c0-0.076,0-0.076,0.076-0.152
				c0.076,0,0.076-0.076,0.152-0.076h9.13c0.076,0,0.152,0,0.152,0.076s0.076,0.076,0.076,0.152v1.598c0,0.076,0,0.076-0.076,0.152
				s-0.076,0.076-0.152,0.076h-2.891c-0.152,0-0.228,0.076-0.304,0.152c-0.076,0.076-0.152,0.152-0.152,0.304v9.434
				c0,0.076,0,0.076-0.076,0.152s-0.076,0.076-0.152,0.076h-2.054C80.714,24.387,80.638,24.311,80.638,24.311z"/>
			<path d="M87.181,24.311c0-0.076-0.076-0.076,0-0.152l3.043-11.641c0-0.076,0.076-0.152,0.152-0.152
				c0.076-0.076,0.152-0.076,0.228-0.076h3.576c0.076,0,0.152,0,0.228,0.076c0.076,0.076,0.152,0.076,0.152,0.152l3.043,11.641
				v0.076c0,0.152-0.076,0.152-0.152,0.152h-1.674c-0.076,0-0.152,0-0.228-0.076c-0.076-0.076-0.152-0.076-0.152-0.152l-0.837-3.195
				c0-0.076-0.076-0.152-0.152-0.228s-0.152-0.076-0.304-0.076h-3.348c-0.076,0-0.228,0-0.304,0.076S90.3,20.887,90.3,20.963
				l-0.837,3.195c0,0.076-0.076,0.152-0.152,0.228c-0.076,0.076-0.152,0.076-0.228,0.076h-1.674
				C87.257,24.387,87.181,24.311,87.181,24.311z M93.42,18.68c0.152,0,0.228-0.076,0.304-0.152s0.076-0.152,0.076-0.304
				l-0.989-3.576c0-0.076-0.076-0.152-0.152-0.228c-0.076-0.076-0.152-0.076-0.304-0.076h-0.076c-0.076,0-0.228,0-0.304,0.076
				c-0.076,0.076-0.152,0.152-0.152,0.228l-0.913,3.576V18.3c0,0.076,0,0.152,0.076,0.228s0.152,0.076,0.228,0.076h2.206V18.68z"/>
			<path d="M101.865,23.702c-0.913-0.533-1.674-1.293-2.206-2.282c-0.533-0.913-0.837-1.978-0.837-3.119s0.304-2.13,0.837-3.119
				c0.533-0.913,1.293-1.674,2.206-2.282c0.913-0.533,1.978-0.837,3.043-0.837c0.837,0,1.674,0.152,2.435,0.533
				c0.761,0.38,1.446,0.837,2.054,1.522c0.076,0.076,0.076,0.152,0.076,0.228c0,0.076-0.076,0.152-0.152,0.228
				c-0.228,0.228-0.457,0.38-0.761,0.609c-0.228,0.228-0.38,0.38-0.533,0.456c-0.076,0.076-0.152,0.076-0.228,0.076
				c-0.076,0-0.152,0-0.228-0.076c-0.38-0.38-0.761-0.685-1.293-0.913c-0.457-0.228-0.989-0.304-1.522-0.304
				c-0.685,0-1.369,0.152-1.902,0.533c-0.533,0.38-1.065,0.837-1.369,1.446c-0.38,0.609-0.533,1.217-0.533,1.978
				c0,0.685,0.152,1.37,0.533,1.978c0.38,0.609,0.837,1.065,1.369,1.446c0.533,0.38,1.217,0.533,1.902,0.533
				c0.533,0,0.989-0.076,1.446-0.304s0.837-0.456,1.217-0.837c0.152-0.076,0.228-0.152,0.38-0.152s0.228,0,0.304,0.076
				c0.152,0.076,0.304,0.228,0.457,0.38c0.228,0.152,0.38,0.304,0.533,0.456c0.152,0.076,0.152,0.228,0.152,0.38
				c0,0.076,0,0.152-0.076,0.228c-0.609,0.609-1.217,1.065-1.978,1.446c-0.761,0.304-1.598,0.533-2.435,0.533
				C103.843,24.539,102.854,24.234,101.865,23.702z"/>
			<path d="M112.821,22.485c-0.533-0.609-0.989-1.37-1.217-2.13v-0.076c-0.228-0.609-0.304-1.293-0.304-1.902
				c0-0.685,0.152-1.446,0.38-2.13c0.228-0.685,0.609-1.293,1.065-1.902c0.609-0.685,1.293-1.217,1.902-1.598
				c0.685-0.38,1.446-0.609,2.435-0.609h0.076c0.989-0.076,1.902,0.152,2.815,0.533c0.609,0.228,1.141,0.609,1.674,1.141
				c0.533,0.456,0.913,0.989,1.141,1.446c0.533,0.913,0.837,1.978,0.837,3.043c0,0.609-0.076,1.293-0.304,1.902
				c-0.228,0.609-0.457,1.217-0.837,1.75c-0.304,0.38-0.609,0.761-0.913,1.065c-0.304,0.304-0.761,0.609-1.217,0.837
				c-0.913,0.456-1.826,0.685-2.891,0.685c-0.913,0-1.674-0.152-2.511-0.533C114.114,23.626,113.43,23.093,112.821,22.485z
				 M120.353,20.963c0.304-0.38,0.533-0.685,0.685-0.989c0.228-0.533,0.38-1.065,0.38-1.598c0-0.761-0.228-1.446-0.609-2.13
				c-0.38-0.685-0.989-1.141-1.674-1.446c-0.533-0.228-1.065-0.38-1.674-0.38c-0.533,0-0.989,0.076-1.446,0.304
				c-0.457,0.152-0.913,0.456-1.217,0.837l-0.304,0.304c-0.304,0.38-0.533,0.761-0.685,1.217c-0.152,0.456-0.228,0.913-0.228,1.37
				c0,0.609,0.152,1.141,0.38,1.674c0.228,0.533,0.609,0.989,1.065,1.37c0.761,0.609,1.598,0.913,2.587,0.913
				c0.609,0,1.217-0.152,1.75-0.38C119.669,21.572,120.049,21.267,120.353,20.963z"/>
			<path d="M126.516,24.234c-0.076-0.076-0.076-0.152-0.076-0.228V12.594c0-0.076,0-0.152,0.076-0.228s0.152-0.076,0.228-0.076
				h1.826c0.076,0,0.152,0,0.228,0.076c0.076,0.076,0.076,0.152,0.076,0.228v11.489c0,0.076,0,0.152-0.076,0.228
				c-0.076,0.076-0.152,0.076-0.228,0.076h-1.826C126.668,24.387,126.592,24.311,126.516,24.234z"/>
			<path d="M132.451,24.234c-0.076-0.076-0.076-0.076-0.076-0.152V12.518c0-0.076,0-0.152,0.076-0.152
				c0.076,0,0.076-0.076,0.152-0.076h1.75c0.076,0,0.152,0.076,0.228,0.152l4.109,6.924c0.152,0.228,0.228,0.38,0.304,0.38
				c0.076,0,0.152-0.152,0.152-0.38v-6.771c0-0.076,0-0.152,0.076-0.152c0.076-0.076,0.076-0.076,0.152-0.076h1.826
				c0.076,0,0.152,0,0.152,0.076c0.076,0.076,0.076,0.076,0.076,0.152v11.565c0,0.076,0,0.152-0.076,0.152
				c-0.076,0.076-0.076,0.076-0.152,0.076h-1.217c-0.228,0-0.38,0-0.456-0.076c-0.076,0-0.152-0.152-0.228-0.304l-4.337-6.924
				c-0.076-0.076-0.152-0.152-0.152-0.152c-0.076,0-0.152,0.076-0.152,0.228v6.924c0,0.076,0,0.152-0.076,0.152
				c-0.076,0.076-0.076,0.076-0.152,0.076h-1.75C132.527,24.311,132.527,24.311,132.451,24.234z"/>
		</g>
		<g>
			<g>
				<path d="M23.01,33.353l-1.136-3.146l-1.469-4.456l-0.94-2.912l-1.084-3.303l-0.307-0.873l-0.144-0.443l-0.07-0.13l-0.036-0.027
					l-0.039-0.005c-0.019,0-0.033,0.007-0.048,0.018l-0.018,0.018L17.68,18.14c-0.014,0.021-0.041,0.062-0.048,0.074l-0.078,0.163
					c-0.002,0.004-0.538,1.512-0.538,1.512l-1.586,4.592l-1.528,4.162l-2.295,6.205c1.93,0.73,4.018,1.137,6.2,1.151
					c2.024,0.013,3.97-0.317,5.789-0.928L23.01,33.353z"/>
				<path d="M18.032,0C8.136-0.061,0.062,7.947,0,17.888c-0.031,5.031,1.995,9.593,5.287,12.88c0.031,0.03,0.063,0.059,0.094,0.089
					l3.977-6.747l1.322-2.628l1.146-2.472l1.067-2.589l0.93-2.697l1.116-3.293l0.95-2.951l1.18-3.889l0.86-2.781l0.437,1.466
					l0.783,2.918l0.705,2.632l0.783,2.658l0.81,2.514l0.744,2.228l0.809,2.28l0.966,2.306l1.214,2.521l1.462,2.873l1.449,2.475
					L30.307,31c3.381-3.251,5.501-7.816,5.533-12.888C35.902,8.171,27.929,0.062,18.032,0z"/>
			</g>
			<path fill="#FFFFFF" d="M9.359,24.11l-3.98,6.752c0.004,0.003,1.611,2.23,6.228,3.989l2.296-6.208l1.528-4.162l1.586-4.592
				c0,0,0.535-1.508,0.538-1.512l0.078-0.163c0.006-0.012,0.034-0.053,0.048-0.074l0.039-0.044l0.018-0.018
				c0.015-0.011,0.03-0.018,0.048-0.018l0.039,0.005l0.037,0.027l0.07,0.13l0.144,0.443l0.307,0.873l1.084,3.303l0.94,2.912
				l1.469,4.456l1.136,3.146l0.589,1.724c0,0,3.622-1.007,6.711-4.073l-2.214-3.324l-1.449-2.475l-1.462-2.873l-1.214-2.521
				l-0.966-2.306l-0.81-2.28l-0.744-2.228l-0.81-2.514l-0.783-2.658l-0.705-2.632l-0.783-2.918l-0.437-1.466l-0.86,2.781
				l-1.18,3.889l-0.95,2.951l-1.116,3.293l-0.93,2.697l-1.067,2.589l-1.146,2.472L9.359,24.11z"/>
		</g>
	</g>
</g>
<g id="Layer_2">
</g>
<g id="Layer_3">
</g>
<g id="Layer_4">
</g>
<g id="Layer_5">
</g>
<g id="Layer_6">
</g>
<g id="Layer_7">
</g>
<g id="Layer_8">
</g>
<g id="Layer_9">
</g>
<g id="Layer_10">
</g>
</svg>
